<?xml version="1.0" standalone="no"?>
<!DOCTYPE svg PUBLIC "-//W3C//DTD SVG 1.1//EN" "http://www.w3.org/Graphics/SVG/1.1/DTD/svg11.dtd" >
<svg xmlns="http://www.w3.org/2000/svg">
<metadata>
Copyright (c) 2018 by Fontsmith Ltd. All rights reserved. This font may not be altered in any way without prior permission of Fontsmith Ltd.
</metadata>
<defs>
<font id="HeinekenSerif18-ExtraBold" horiz-adv-x="0" >
  <font-face 
    font-family="Heineken Serif 18 ExtraBold"
    font-weight="800"
    font-stretch="normal"
    units-per-em="1000"
    panose-1="2 4 8 6 6 6 2 6 7 3"
    ascent="788"
    descent="-212"
    x-height="573"
    cap-height="788"
    bbox="-462 -361 1372 1138"
    underline-thickness="100"
    underline-position="0"
    unicode-range="U+000D-FB02"
  />
<missing-glyph horiz-adv-x="702" 
d="M70 788h562v-788h-562v788zM543 732h-383l192 -287zM317 394l-190 287v-574zM577 681l-192 -287l192 -287v574zM543 57l-191 286l-192 -286h383z" />
    <glyph glyph-name="fi" unicode="fi" horiz-adv-x="916" 
d="M34 103q10 6 29 12l14 5q12 4 16.5 12.5t4.5 34.5v268h-80v138h80v34q0 99 56.5 146t175.5 47q107 0 164.5 -36t57.5 -108v-8q0 -17 -6 -23q-5 -5 -10.5 -6.5t-15.5 -1.5h-154v25q0 23 -4 31t-14 8q-11 0 -15.5 -9t-4.5 -31v-68h116v-138h-116v-268q0 -22 6.5 -31.5
t19.5 -14.5l15 -6q23 -8 29 -12l-3 -103h-358zM627 650q-36 28 -36 81q0 50 36 77t91 27q56 0 91 -27t35 -77q0 -54 -33 -81.5t-93 -27.5q-55 0 -91 28zM540 103q9 5 29 12l14 5q15 5 21.5 14t6.5 33v244q0 21 -5 30.5t-24 16.5l-14 5q-21 8 -27 12l3 98h297v-408
q0 -23 6.5 -32t22.5 -15l14 -5q17 -6 28 -12l-3 -101h-366z" />
    <glyph glyph-name="fl" unicode="fl" horiz-adv-x="965" 
d="M34 103q10 6 29 12l14 5q12 4 16.5 12.5t4.5 34.5v268h-80v138h80v34q0 99 56.5 146t175.5 47q107 0 164.5 -36t57.5 -108v-8q0 -17 -6 -23q-5 -5 -10.5 -6.5t-15.5 -1.5h-154v25q0 23 -4 31t-14 8q-11 0 -15.5 -9t-4.5 -31v-68h116v-138h-116v-268q0 -22 6.5 -31.5
t19.5 -14.5l15 -6q23 -8 29 -12l-3 -103h-358zM581 103q10 6 29 12l14 5q16 5 22 13.5t6 33.5v459q0 19 -5.5 30t-20.5 16l-15 5q-20 6 -29 13l3 98h297v-621q0 -22 6.5 -31.5t20.5 -14.5l15 -6l29 -12l-3 -103h-366z" />
    <glyph glyph-name=".notdef" horiz-adv-x="702" 
d="M70 788h562v-788h-562v788zM543 732h-383l192 -287zM317 394l-190 287v-574zM577 681l-192 -287l192 -287v574zM543 57l-191 286l-192 -286h383z" />
    <glyph glyph-name=".null" 
 />
    <glyph glyph-name="nonmarkingreturn" unicode="&#xd;" horiz-adv-x="240" 
 />
    <glyph glyph-name="space" unicode=" " horiz-adv-x="240" 
 />
    <glyph glyph-name="A" unicode="A" horiz-adv-x="803" 
d="M9 104q12 8 30 14l16 6q17 6 28 22t22 51l175 591h243l189 -609q10 -27 18 -38.5t19 -15.5l17 -6q18 -6 30 -16l-6 -103h-375l-7 105q14 8 29 12l13 4q9 2 13 7.5t4 15.5q0 5 -4 29l-9 34q-3 9 -14 9h-146q-12 0 -15 -11l-8 -28q-4 -22 -4 -27q0 -23 16 -28l12 -5
q14 -6 26 -13l-9 -104h-298zM410 357q12 0 8 16l-42 185h-11l-48 -188l-1 -4q0 -9 10 -9h84z" />
    <glyph glyph-name="Aacute" unicode="&#xc1;" horiz-adv-x="803" 
d="M9 104q12 8 30 14l16 6q17 6 28 22t22 51l175 591h243l189 -609q10 -27 18 -38.5t19 -15.5l17 -6q18 -6 30 -16l-6 -103h-375l-7 105q14 8 29 12l13 4q9 2 13 7.5t4 15.5q0 5 -4 29l-9 34q-3 9 -14 9h-146q-12 0 -15 -11l-8 -28q-4 -22 -4 -27q0 -23 16 -28l12 -5
q14 -6 26 -13l-9 -104h-298zM410 357q12 0 8 16l-42 185h-11l-48 -188l-1 -4q0 -9 10 -9h84zM236 943l262 157l86 -164l-289 -107z" />
    <glyph glyph-name="Abreve" unicode="&#x102;" horiz-adv-x="803" 
d="M9 104q12 8 30 14l16 6q17 6 28 22t22 51l175 591h243l189 -609q10 -27 18 -38.5t19 -15.5l17 -6q18 -6 30 -16l-6 -103h-375l-7 105q14 8 29 12l13 4q9 2 13 7.5t4 15.5q0 5 -4 29l-9 34q-3 9 -14 9h-146q-12 0 -15 -11l-8 -28q-4 -22 -4 -27q0 -23 16 -28l12 -5
q14 -6 26 -13l-9 -104h-298zM410 357q12 0 8 16l-42 185h-11l-48 -188l-1 -4q0 -9 10 -9h84zM251.5 896.5q-54.5 48.5 -59.5 130.5h157q7 -50 51 -50q22 0 34.5 13.5t15.5 36.5h157q-5 -82 -59 -130.5t-148 -48.5t-148.5 48.5z" />
    <glyph glyph-name="uni01CD" unicode="&#x1cd;" horiz-adv-x="803" 
d="M9 104q12 8 30 14l16 6q17 6 28 22t22 51l175 591h243l189 -609q10 -27 18 -38.5t19 -15.5l17 -6q18 -6 30 -16l-6 -103h-375l-7 105q14 8 29 12l13 4q9 2 13 7.5t4 15.5q0 5 -4 29l-9 34q-3 9 -14 9h-146q-12 0 -15 -11l-8 -28q-4 -22 -4 -27q0 -23 16 -28l12 -5
q14 -6 26 -13l-9 -104h-298zM410 357q12 0 8 16l-42 185h-11l-48 -188l-1 -4q0 -9 10 -9h84zM179 991l80 81l141 -94l138 94l82 -81l-143 -138h-156z" />
    <glyph glyph-name="Acircumflex" unicode="&#xc2;" horiz-adv-x="803" 
d="M9 104q12 8 30 14l16 6q17 6 28 22t22 51l175 591h243l189 -609q10 -27 18 -38.5t19 -15.5l17 -6q18 -6 30 -16l-6 -103h-375l-7 105q14 8 29 12l13 4q9 2 13 7.5t4 15.5q0 5 -4 29l-9 34q-3 9 -14 9h-146q-12 0 -15 -11l-8 -28q-4 -22 -4 -27q0 -23 16 -28l12 -5
q14 -6 26 -13l-9 -104h-298zM410 357q12 0 8 16l-42 185h-11l-48 -188l-1 -4q0 -9 10 -9h84zM179 915l142 144h156l143 -144l-80 -81l-140 100l-138 -100z" />
    <glyph glyph-name="Adieresis" unicode="&#xc4;" horiz-adv-x="803" 
d="M9 104q12 8 30 14l16 6q17 6 28 22t22 51l175 591h243l189 -609q10 -27 18 -38.5t19 -15.5l17 -6q18 -6 30 -16l-6 -103h-375l-7 105q14 8 29 12l13 4q9 2 13 7.5t4 15.5q0 5 -4 29l-9 34q-3 9 -14 9h-146q-12 0 -15 -11l-8 -28q-4 -22 -4 -27q0 -23 16 -28l12 -5
q14 -6 26 -13l-9 -104h-298zM410 357q12 0 8 16l-42 185h-11l-48 -188l-1 -4q0 -9 10 -9h84zM203.5 868q-29.5 27 -29.5 68t29.5 68t71.5 27t71 -27t29 -68t-29 -68t-71 -27t-71.5 27zM452.5 868q-29.5 27 -29.5 68t29.5 68t71.5 27t71 -27t29 -68t-29 -68t-71 -27t-71.5 27
z" />
    <glyph glyph-name="Agrave" unicode="&#xc0;" horiz-adv-x="803" 
d="M9 104q12 8 30 14l16 6q17 6 28 22t22 51l175 591h243l189 -609q10 -27 18 -38.5t19 -15.5l17 -6q18 -6 30 -16l-6 -103h-375l-7 105q14 8 29 12l13 4q9 2 13 7.5t4 15.5q0 5 -4 29l-9 34q-3 9 -14 9h-146q-12 0 -15 -11l-8 -28q-4 -22 -4 -27q0 -23 16 -28l12 -5
q14 -6 26 -13l-9 -104h-298zM410 357q12 0 8 16l-42 185h-11l-48 -188l-1 -4q0 -9 10 -9h84zM205 936l86 164l262 -157l-59 -114z" />
    <glyph glyph-name="Amacron" unicode="&#x100;" horiz-adv-x="803" 
d="M9 104q12 8 30 14l16 6q17 6 28 22t22 51l175 591h243l189 -609q10 -27 18 -38.5t19 -15.5l17 -6q18 -6 30 -16l-6 -103h-375l-7 105q14 8 29 12l13 4q9 2 13 7.5t4 15.5q0 5 -4 29l-9 34q-3 9 -14 9h-146q-12 0 -15 -11l-8 -28q-4 -22 -4 -27q0 -23 16 -28l12 -5
q14 -6 26 -13l-9 -104h-298zM410 357q12 0 8 16l-42 185h-11l-48 -188l-1 -4q0 -9 10 -9h84zM195 1003h410v-137h-410v137z" />
    <glyph glyph-name="Aogonek" unicode="&#x104;" horiz-adv-x="803" 
d="M9 104q12 8 30 14l16 6q17 6 28 22t22 51l175 591h243l189 -609q10 -27 18 -38.5t19 -15.5l17 -6q18 -6 30 -16l-6 -103h-375l-7 105q14 8 29 12l13 4q9 2 13 7.5t4 15.5q0 5 -4 29l-9 34q-3 9 -14 9h-146q-12 0 -15 -11l-8 -28q-4 -22 -4 -27q0 -23 16 -28l12 -5
q14 -6 26 -13l-9 -104h-298zM410 357q12 0 8 16l-42 185h-11l-48 -188l-1 -4q0 -9 10 -9h84zM525.5 -191.5q-39.5 25.5 -39.5 73.5q0 38 26.5 72.5t64.5 50.5h137q-28 -16 -45.5 -41.5t-17.5 -47.5q0 -25 24 -25q27 0 60 33l54 -82q-25 -27 -65.5 -43t-88.5 -16
q-70 0 -109.5 25.5z" />
    <glyph glyph-name="Aring" unicode="&#xc5;" horiz-adv-x="803" 
d="M9 104q12 8 30 14l16 6q17 6 28 22t22 51l175 591h243l189 -609q10 -27 18 -38.5t19 -15.5l17 -6q18 -6 30 -16l-6 -103h-375l-7 105q14 8 29 12l13 4q9 2 13 7.5t4 15.5q0 5 -4 29l-9 34q-3 9 -14 9h-146q-12 0 -15 -11l-8 -28q-4 -22 -4 -27q0 -23 16 -28l12 -5
q14 -6 26 -13l-9 -104h-298zM410 357q12 0 8 16l-42 185h-11l-48 -188l-1 -4q0 -9 10 -9h84zM294 859.5q-37 29.5 -37 77.5q0 49 37.5 79t106.5 30q68 0 105.5 -30t37.5 -78q0 -49 -37.5 -78.5t-107.5 -29.5q-68 0 -105 29.5zM425.5 915.5q9.5 8.5 9.5 22.5q0 15 -9.5 23
t-25.5 8q-15 0 -24.5 -8t-9.5 -23q0 -14 9.5 -22.5t25.5 -8.5q15 0 24.5 8.5z" />
    <glyph glyph-name="Atilde" unicode="&#xc3;" horiz-adv-x="803" 
d="M9 104q12 8 30 14l16 6q17 6 28 22t22 51l175 591h243l189 -609q10 -27 18 -38.5t19 -15.5l17 -6q18 -6 30 -16l-6 -103h-375l-7 105q14 8 29 12l13 4q9 2 13 7.5t4 15.5q0 5 -4 29l-9 34q-3 9 -14 9h-146q-12 0 -15 -11l-8 -28q-4 -22 -4 -27q0 -23 16 -28l12 -5
q14 -6 26 -13l-9 -104h-298zM410 357q12 0 8 16l-42 185h-11l-48 -188l-1 -4q0 -9 10 -9h84zM161 910q18 53 63.5 89.5t98.5 36.5q24 0 43.5 -7t44.5 -20q4 -2 16.5 -8t23 -9t19.5 -3q36 0 53 49l112 -64q-14 -57 -55 -96.5t-97 -39.5q-26 0 -46.5 7t-48.5 21q-19 10 -31 15
t-25 5q-37 0 -59 -45z" />
    <glyph glyph-name="AE" unicode="&#xc6;" horiz-adv-x="1002" 
d="M4 104q18 9 43 19l17 6q16 6 27.5 22.5t22.5 47.5l132 369q20 55 20 67q0 9 -6.5 15t-21.5 11l-19 7q-19 7 -32 16l15 104h743v-227h-108q-11 16 -22 43l-5 13q-7 18 -14 24t-23 6h-80q-14 0 -14 -14v-154q0 -14 14 -14h13q10 0 16.5 5t13.5 22l7 16l11 25l81 -1v-265
l-79 -2q-7 9 -15 26l-5 11q-7 15 -12.5 19.5t-17.5 4.5h-13q-14 0 -14 -14v-157q0 -14 14 -14h92q17 0 23 4t13 22l8 20q10 28 22 47h108v-234h-578l-6 104q10 10 27 16l11 4q15 5 20 16.5t5 42.5v16q0 17 -16 17h-116q-16 0 -21 -14l-8 -23q-10 -28 -10 -38q0 -12 20 -19
l11 -4q21 -8 28 -15l-9 -103h-308zM418 357q12 0 16 5t4 16v268h-12l-86 -267q-3 -9 -3 -14q0 -8 12 -8h69z" />
    <glyph glyph-name="AEacute" unicode="&#x1fc;" horiz-adv-x="1002" 
d="M4 104q18 9 43 19l17 6q16 6 27.5 22.5t22.5 47.5l132 369q20 55 20 67q0 9 -6.5 15t-21.5 11l-19 7q-19 7 -32 16l15 104h743v-227h-108q-11 16 -22 43l-5 13q-7 18 -14 24t-23 6h-80q-14 0 -14 -14v-154q0 -14 14 -14h13q10 0 16.5 5t13.5 22l7 16l11 25l81 -1v-265
l-79 -2q-7 9 -15 26l-5 11q-7 15 -12.5 19.5t-17.5 4.5h-13q-14 0 -14 -14v-157q0 -14 14 -14h92q17 0 23 4t13 22l8 20q10 28 22 47h108v-234h-578l-6 104q10 10 27 16l11 4q15 5 20 16.5t5 42.5v16q0 17 -16 17h-116q-16 0 -21 -14l-8 -23q-10 -28 -10 -38q0 -12 20 -19
l11 -4q21 -8 28 -15l-9 -103h-308zM418 357q12 0 16 5t4 16v268h-12l-86 -267q-3 -9 -3 -14q0 -8 12 -8h69zM446 943l262 157l86 -164l-289 -107z" />
    <glyph glyph-name="B" unicode="B" horiz-adv-x="750" 
d="M38 104q8 8 27 16l15 6q12 5 16.5 17.5t4.5 43.5v415q0 29 -4.5 42t-15.5 18l-13 6q-20 10 -29 16l4 104h352q139 0 208 -46.5t69 -132.5q0 -62 -35.5 -106.5t-93.5 -60.5v-5q78 -16 122.5 -68.5t44.5 -130.5q0 -72 -38 -126t-112.5 -83t-179.5 -29h-337zM371 488
q33 0 49.5 19t16.5 65q0 41 -16.5 58.5t-50.5 17.5h-14q-14 0 -14 -14v-131q0 -15 15 -15h14zM375 141q87 0 87 109q0 49 -21.5 76t-64.5 27h-18q-16 0 -16 -15v-183q0 -14 14 -14h19z" />
    <glyph glyph-name="C" unicode="C" horiz-adv-x="695" 
d="M127.5 89.5q-89.5 101.5 -89.5 302.5q0 133 43.5 225t119.5 137.5t173 45.5q76 0 126 -28l6 -2q4 0 5 7l4 17h141v-268h-171l-4 32q-7 53 -26 77.5t-55 24.5q-50 0 -82 -63t-32 -199q0 -143 33.5 -204.5t93.5 -61.5q84 0 130 145l138 -56q-75 -233 -301 -233
q-163 0 -252.5 101.5z" />
    <glyph glyph-name="Cacute" unicode="&#x106;" horiz-adv-x="695" 
d="M127.5 89.5q-89.5 101.5 -89.5 302.5q0 133 43.5 225t119.5 137.5t173 45.5q76 0 126 -28l6 -2q4 0 5 7l4 17h141v-268h-171l-4 32q-7 53 -26 77.5t-55 24.5q-50 0 -82 -63t-32 -199q0 -143 33.5 -204.5t93.5 -61.5q84 0 130 145l138 -56q-75 -233 -301 -233
q-163 0 -252.5 101.5zM216 943l262 157l86 -164l-289 -107z" />
    <glyph glyph-name="Ccaron" unicode="&#x10c;" horiz-adv-x="695" 
d="M127.5 89.5q-89.5 101.5 -89.5 302.5q0 133 43.5 225t119.5 137.5t173 45.5q76 0 126 -28l6 -2q4 0 5 7l4 17h141v-268h-171l-4 32q-7 53 -26 77.5t-55 24.5q-50 0 -82 -63t-32 -199q0 -143 33.5 -204.5t93.5 -61.5q84 0 130 145l138 -56q-75 -233 -301 -233
q-163 0 -252.5 101.5zM159 991l80 81l141 -94l138 94l82 -81l-143 -138h-156z" />
    <glyph glyph-name="Ccedilla" unicode="&#xc7;" horiz-adv-x="695" 
d="M127.5 89.5q-89.5 101.5 -89.5 302.5q0 133 43.5 225t119.5 137.5t173 45.5q76 0 126 -28l6 -2q4 0 5 7l4 17h141v-268h-171l-4 32q-7 53 -26 77.5t-55 24.5q-50 0 -82 -63t-32 -199q0 -143 33.5 -204.5t93.5 -61.5q84 0 130 145l138 -56q-75 -233 -301 -233
q-163 0 -252.5 101.5zM274 -216.5q-39 10.5 -62 26.5l30 83q15 -11 38 -19.5t42 -8.5q18 0 27 6.5t9 16.5q0 16 -20 24.5t-64 12.5l35 77h94l-13 -27q54 -7 84.5 -33t30.5 -67q0 -46 -40 -74t-108 -28q-44 0 -83 10.5z" />
    <glyph glyph-name="Ccircumflex" unicode="&#x108;" horiz-adv-x="695" 
d="M127.5 89.5q-89.5 101.5 -89.5 302.5q0 133 43.5 225t119.5 137.5t173 45.5q76 0 126 -28l6 -2q4 0 5 7l4 17h141v-268h-171l-4 32q-7 53 -26 77.5t-55 24.5q-50 0 -82 -63t-32 -199q0 -143 33.5 -204.5t93.5 -61.5q84 0 130 145l138 -56q-75 -233 -301 -233
q-163 0 -252.5 101.5zM159 915l142 144h156l143 -144l-80 -81l-140 100l-138 -100z" />
    <glyph glyph-name="Cdotaccent" unicode="&#x10a;" horiz-adv-x="695" 
d="M127.5 89.5q-89.5 101.5 -89.5 302.5q0 133 43.5 225t119.5 137.5t173 45.5q76 0 126 -28l6 -2q4 0 5 7l4 17h141v-268h-171l-4 32q-7 53 -26 77.5t-55 24.5q-50 0 -82 -63t-32 -199q0 -143 33.5 -204.5t93.5 -61.5q84 0 130 145l138 -56q-75 -233 -301 -233
q-163 0 -252.5 101.5zM299.5 878q-31.5 31 -31.5 78q0 48 31 78t82 30q48 0 79.5 -30t31.5 -78q0 -47 -31.5 -78t-79.5 -31q-50 0 -81.5 31z" />
    <glyph glyph-name="D" unicode="D" horiz-adv-x="788" 
d="M38 104q8 8 27 16l15 6q12 5 16.5 17.5t4.5 43.5v415q0 29 -4.5 42t-15.5 18l-13 6q-20 10 -29 16l4 104h335q111 0 194.5 -42.5t130.5 -128.5t47 -210q0 -133 -47.5 -224.5t-131 -137t-192.5 -45.5h-336zM380 141q57 0 89.5 62.5t32.5 197.5q0 247 -121 247h-25
q-14 0 -14 -14v-479q0 -14 14 -14h24z" />
    <glyph glyph-name="Eth" unicode="&#xd0;" horiz-adv-x="791" 
d="M575.5 745.5q83.5 -42.5 130.5 -128.5t47 -210q0 -133 -47.5 -224.5t-131 -137t-192.5 -45.5h-336l-5 104q8 8 27 16l15 6q12 5 16.5 17.5t4.5 43.5v152h-75v142h75v121q0 29 -4.5 42t-15.5 18l-13 6q-20 10 -29 16l4 104h335q111 0 194.5 -42.5zM472.5 203.5
q32.5 62.5 32.5 197.5q0 247 -121 247h-25q-14 0 -14 -14v-153h74v-142h-74v-184q0 -14 14 -14h24q57 0 89.5 62.5z" />
    <glyph glyph-name="Dcaron" unicode="&#x10e;" horiz-adv-x="788" 
d="M38 104q8 8 27 16l15 6q12 5 16.5 17.5t4.5 43.5v415q0 29 -4.5 42t-15.5 18l-13 6q-20 10 -29 16l4 104h335q111 0 194.5 -42.5t130.5 -128.5t47 -210q0 -133 -47.5 -224.5t-131 -137t-192.5 -45.5h-336zM380 141q57 0 89.5 62.5t32.5 197.5q0 247 -121 247h-25
q-14 0 -14 -14v-479q0 -14 14 -14h24zM159 991l80 81l141 -94l138 94l82 -81l-143 -138h-156z" />
    <glyph glyph-name="Dcroat" unicode="&#x110;" horiz-adv-x="791" 
d="M575.5 745.5q83.5 -42.5 130.5 -128.5t47 -210q0 -133 -47.5 -224.5t-131 -137t-192.5 -45.5h-336l-5 104q8 8 27 16l15 6q12 5 16.5 17.5t4.5 43.5v152h-75v142h75v121q0 29 -4.5 42t-15.5 18l-13 6q-20 10 -29 16l4 104h335q111 0 194.5 -42.5zM472.5 203.5
q32.5 62.5 32.5 197.5q0 247 -121 247h-25q-14 0 -14 -14v-153h74v-142h-74v-184q0 -14 14 -14h24q57 0 89.5 62.5z" />
    <glyph glyph-name="E" unicode="E" horiz-adv-x="681" 
d="M38 104q8 8 27 16l15 6q12 5 16.5 17.5t4.5 43.5v415q0 29 -4.5 42t-15.5 18l-13 6q-20 10 -29 16l4 104h581v-227h-108q-13 19 -22 43l-9 23q-5 12 -11.5 16t-22.5 4h-95q-14 0 -14 -14v-154q0 -14 14 -14h12q11 0 17 4.5t12 17.5l7 16l13 30l81 -2v-264l-79 -2
q-7 9 -16 28l-5 11q-5 12 -11 17t-16 5h-15q-14 0 -14 -14v-157q0 -14 14 -14h108q16 0 22.5 4t11.5 15l9 24q15 38 23 50h108v-234h-595z" />
    <glyph glyph-name="Eacute" unicode="&#xc9;" horiz-adv-x="681" 
d="M38 104q8 8 27 16l15 6q12 5 16.5 17.5t4.5 43.5v415q0 29 -4.5 42t-15.5 18l-13 6q-20 10 -29 16l4 104h581v-227h-108q-13 19 -22 43l-9 23q-5 12 -11.5 16t-22.5 4h-95q-14 0 -14 -14v-154q0 -14 14 -14h12q11 0 17 4.5t12 17.5l7 16l13 30l81 -2v-264l-79 -2
q-7 9 -16 28l-5 11q-5 12 -11 17t-16 5h-15q-14 0 -14 -14v-157q0 -14 14 -14h108q16 0 22.5 4t11.5 15l9 24q15 38 23 50h108v-234h-595zM194 943l262 157l86 -164l-289 -107z" />
    <glyph glyph-name="Ebreve" unicode="&#x114;" horiz-adv-x="681" 
d="M38 104q8 8 27 16l15 6q12 5 16.5 17.5t4.5 43.5v415q0 29 -4.5 42t-15.5 18l-13 6q-20 10 -29 16l4 104h581v-227h-108q-13 19 -22 43l-9 23q-5 12 -11.5 16t-22.5 4h-95q-14 0 -14 -14v-154q0 -14 14 -14h12q11 0 17 4.5t12 17.5l7 16l13 30l81 -2v-264l-79 -2
q-7 9 -16 28l-5 11q-5 12 -11 17t-16 5h-15q-14 0 -14 -14v-157q0 -14 14 -14h108q16 0 22.5 4t11.5 15l9 24q15 38 23 50h108v-234h-595zM209.5 896.5q-54.5 48.5 -59.5 130.5h157q7 -50 51 -50q22 0 34.5 13.5t15.5 36.5h157q-5 -82 -59 -130.5t-148 -48.5t-148.5 48.5z
" />
    <glyph glyph-name="Ecaron" unicode="&#x11a;" horiz-adv-x="681" 
d="M38 104q8 8 27 16l15 6q12 5 16.5 17.5t4.5 43.5v415q0 29 -4.5 42t-15.5 18l-13 6q-20 10 -29 16l4 104h581v-227h-108q-13 19 -22 43l-9 23q-5 12 -11.5 16t-22.5 4h-95q-14 0 -14 -14v-154q0 -14 14 -14h12q11 0 17 4.5t12 17.5l7 16l13 30l81 -2v-264l-79 -2
q-7 9 -16 28l-5 11q-5 12 -11 17t-16 5h-15q-14 0 -14 -14v-157q0 -14 14 -14h108q16 0 22.5 4t11.5 15l9 24q15 38 23 50h108v-234h-595zM137 991l80 81l141 -94l138 94l82 -81l-143 -138h-156z" />
    <glyph glyph-name="Ecircumflex" unicode="&#xca;" horiz-adv-x="681" 
d="M38 104q8 8 27 16l15 6q12 5 16.5 17.5t4.5 43.5v415q0 29 -4.5 42t-15.5 18l-13 6q-20 10 -29 16l4 104h581v-227h-108q-13 19 -22 43l-9 23q-5 12 -11.5 16t-22.5 4h-95q-14 0 -14 -14v-154q0 -14 14 -14h12q11 0 17 4.5t12 17.5l7 16l13 30l81 -2v-264l-79 -2
q-7 9 -16 28l-5 11q-5 12 -11 17t-16 5h-15q-14 0 -14 -14v-157q0 -14 14 -14h108q16 0 22.5 4t11.5 15l9 24q15 38 23 50h108v-234h-595zM137 915l142 144h156l143 -144l-80 -81l-140 100l-138 -100z" />
    <glyph glyph-name="Edieresis" unicode="&#xcb;" horiz-adv-x="681" 
d="M38 104q8 8 27 16l15 6q12 5 16.5 17.5t4.5 43.5v415q0 29 -4.5 42t-15.5 18l-13 6q-20 10 -29 16l4 104h581v-227h-108q-13 19 -22 43l-9 23q-5 12 -11.5 16t-22.5 4h-95q-14 0 -14 -14v-154q0 -14 14 -14h12q11 0 17 4.5t12 17.5l7 16l13 30l81 -2v-264l-79 -2
q-7 9 -16 28l-5 11q-5 12 -11 17t-16 5h-15q-14 0 -14 -14v-157q0 -14 14 -14h108q16 0 22.5 4t11.5 15l9 24q15 38 23 50h108v-234h-595zM161.5 868q-29.5 27 -29.5 68t29.5 68t71.5 27t71 -27t29 -68t-29 -68t-71 -27t-71.5 27zM410.5 868q-29.5 27 -29.5 68t29.5 68
t71.5 27t71 -27t29 -68t-29 -68t-71 -27t-71.5 27z" />
    <glyph glyph-name="Edotaccent" unicode="&#x116;" horiz-adv-x="681" 
d="M38 104q8 8 27 16l15 6q12 5 16.5 17.5t4.5 43.5v415q0 29 -4.5 42t-15.5 18l-13 6q-20 10 -29 16l4 104h581v-227h-108q-13 19 -22 43l-9 23q-5 12 -11.5 16t-22.5 4h-95q-14 0 -14 -14v-154q0 -14 14 -14h12q11 0 17 4.5t12 17.5l7 16l13 30l81 -2v-264l-79 -2
q-7 9 -16 28l-5 11q-5 12 -11 17t-16 5h-15q-14 0 -14 -14v-157q0 -14 14 -14h108q16 0 22.5 4t11.5 15l9 24q15 38 23 50h108v-234h-595zM277.5 878q-31.5 31 -31.5 78q0 48 31 78t82 30q48 0 79.5 -30t31.5 -78q0 -47 -31.5 -78t-79.5 -31q-50 0 -81.5 31z" />
    <glyph glyph-name="Egrave" unicode="&#xc8;" horiz-adv-x="681" 
d="M38 104q8 8 27 16l15 6q12 5 16.5 17.5t4.5 43.5v415q0 29 -4.5 42t-15.5 18l-13 6q-20 10 -29 16l4 104h581v-227h-108q-13 19 -22 43l-9 23q-5 12 -11.5 16t-22.5 4h-95q-14 0 -14 -14v-154q0 -14 14 -14h12q11 0 17 4.5t12 17.5l7 16l13 30l81 -2v-264l-79 -2
q-7 9 -16 28l-5 11q-5 12 -11 17t-16 5h-15q-14 0 -14 -14v-157q0 -14 14 -14h108q16 0 22.5 4t11.5 15l9 24q15 38 23 50h108v-234h-595zM163 936l86 164l262 -157l-59 -114z" />
    <glyph glyph-name="Emacron" unicode="&#x112;" horiz-adv-x="681" 
d="M38 104q8 8 27 16l15 6q12 5 16.5 17.5t4.5 43.5v415q0 29 -4.5 42t-15.5 18l-13 6q-20 10 -29 16l4 104h581v-227h-108q-13 19 -22 43l-9 23q-5 12 -11.5 16t-22.5 4h-95q-14 0 -14 -14v-154q0 -14 14 -14h12q11 0 17 4.5t12 17.5l7 16l13 30l81 -2v-264l-79 -2
q-7 9 -16 28l-5 11q-5 12 -11 17t-16 5h-15q-14 0 -14 -14v-157q0 -14 14 -14h108q16 0 22.5 4t11.5 15l9 24q15 38 23 50h108v-234h-595zM153 1003h410v-137h-410v137z" />
    <glyph glyph-name="Eogonek" unicode="&#x118;" horiz-adv-x="681" 
d="M38 104q8 8 27 16l15 6q12 5 16.5 17.5t4.5 43.5v415q0 29 -4.5 42t-15.5 18l-13 6q-20 10 -29 16l4 104h581v-227h-108q-13 19 -22 43l-9 23q-5 12 -11.5 16t-22.5 4h-95q-14 0 -14 -14v-154q0 -14 14 -14h12q11 0 17 4.5t12 17.5l7 16l13 30l81 -2v-264l-79 -2
q-7 9 -16 28l-5 11q-5 12 -11 17t-16 5h-15q-14 0 -14 -14v-157q0 -14 14 -14h108q16 0 22.5 4t11.5 15l9 24q15 38 23 50h108v-234h-595zM394.5 -191.5q-39.5 25.5 -39.5 73.5q0 38 26.5 72.5t64.5 50.5h137q-28 -16 -45.5 -41.5t-17.5 -47.5q0 -25 24 -25q27 0 60 33
l54 -82q-25 -27 -65.5 -43t-88.5 -16q-70 0 -109.5 25.5z" />
    <glyph glyph-name="F" unicode="F" horiz-adv-x="673" 
d="M38 104q8 8 27 16l15 6q14 6 17.5 19t3.5 56v401q0 29 -4.5 42t-15.5 18l-13 6q-20 10 -29 16l4 104h594v-238h-108q-7 13 -22 51l-11 27q-5 12 -11 15.5t-22 3.5h-107q-14 0 -14 -14v-169q0 -14 14 -14h34q14 0 22 5t13 18l6 15q7 18 14 27l86 -3v-260l-86 -5
q-7 9 -15 29l-5 12q-5 13 -12 17t-23 4h-34q-14 0 -14 -14v-101q0 -36 5 -49t22 -20l14 -5q20 -7 29 -16l-4 -104h-365z" />
    <glyph glyph-name="G" unicode="G" horiz-adv-x="791" 
d="M201.5 33q-76.5 45 -120 135t-43.5 221q0 128 46 221t125.5 141.5t179.5 48.5q84 0 142 -30q2 -1 5 -1q6 0 7 7l3 18h145v-258h-171l-4 27q-7 46 -32 71.5t-67 25.5q-60 0 -95.5 -62t-35.5 -200q0 -143 34 -207.5t93 -64.5q35 0 58 27.5t23 77.5v21q0 22 -7 30.5
t-24 10.5l-22 3q-25 4 -38 10l5 120h317v-426h-157l-15 42q-3 10 -9 10q-4 0 -10 -6q-58 -58 -157 -58t-175.5 45z" />
    <glyph glyph-name="Gbreve" unicode="&#x11e;" horiz-adv-x="791" 
d="M201.5 33q-76.5 45 -120 135t-43.5 221q0 128 46 221t125.5 141.5t179.5 48.5q84 0 142 -30q2 -1 5 -1q6 0 7 7l3 18h145v-258h-171l-4 27q-7 46 -32 71.5t-67 25.5q-60 0 -95.5 -62t-35.5 -200q0 -143 34 -207.5t93 -64.5q35 0 58 27.5t23 77.5v21q0 22 -7 30.5
t-24 10.5l-22 3q-25 4 -38 10l5 120h317v-426h-157l-15 42q-3 10 -9 10q-4 0 -10 -6q-58 -58 -157 -58t-175.5 45zM235.5 896.5q-54.5 48.5 -59.5 130.5h157q7 -50 51 -50q22 0 34.5 13.5t15.5 36.5h157q-5 -82 -59 -130.5t-148 -48.5t-148.5 48.5z" />
    <glyph glyph-name="Gcircumflex" unicode="&#x11c;" horiz-adv-x="791" 
d="M201.5 33q-76.5 45 -120 135t-43.5 221q0 128 46 221t125.5 141.5t179.5 48.5q84 0 142 -30q2 -1 5 -1q6 0 7 7l3 18h145v-258h-171l-4 27q-7 46 -32 71.5t-67 25.5q-60 0 -95.5 -62t-35.5 -200q0 -143 34 -207.5t93 -64.5q35 0 58 27.5t23 77.5v21q0 22 -7 30.5
t-24 10.5l-22 3q-25 4 -38 10l5 120h317v-426h-157l-15 42q-3 10 -9 10q-4 0 -10 -6q-58 -58 -157 -58t-175.5 45zM163 915l142 144h156l143 -144l-80 -81l-140 100l-138 -100z" />
    <glyph glyph-name="Gcommaaccent" unicode="&#x122;" horiz-adv-x="791" 
d="M201.5 33q-76.5 45 -120 135t-43.5 221q0 128 46 221t125.5 141.5t179.5 48.5q84 0 142 -30q2 -1 5 -1q6 0 7 7l3 18h145v-258h-171l-4 27q-7 46 -32 71.5t-67 25.5q-60 0 -95.5 -62t-35.5 -200q0 -143 34 -207.5t93 -64.5q35 0 58 27.5t23 77.5v21q0 22 -7 30.5
t-24 10.5l-22 3q-25 4 -38 10l5 120h317v-426h-157l-15 42q-3 10 -9 10q-4 0 -10 -6q-58 -58 -157 -58t-175.5 45zM303 -296q61 41 61 65q0 8 -4 14t-13 15q-14 14 -21 26.5t-7 34.5q0 34 26.5 56t67.5 22q49 0 80 -33t31 -82t-36.5 -99.5t-93.5 -83.5z" />
    <glyph glyph-name="Gdotaccent" unicode="&#x120;" horiz-adv-x="791" 
d="M201.5 33q-76.5 45 -120 135t-43.5 221q0 128 46 221t125.5 141.5t179.5 48.5q84 0 142 -30q2 -1 5 -1q6 0 7 7l3 18h145v-258h-171l-4 27q-7 46 -32 71.5t-67 25.5q-60 0 -95.5 -62t-35.5 -200q0 -143 34 -207.5t93 -64.5q35 0 58 27.5t23 77.5v21q0 22 -7 30.5
t-24 10.5l-22 3q-25 4 -38 10l5 120h317v-426h-157l-15 42q-3 10 -9 10q-4 0 -10 -6q-58 -58 -157 -58t-175.5 45zM303.5 878q-31.5 31 -31.5 78q0 48 31 78t82 30q48 0 79.5 -30t31.5 -78q0 -47 -31.5 -78t-79.5 -31q-50 0 -81.5 31z" />
    <glyph glyph-name="H" unicode="H" horiz-adv-x="843" 
d="M38 105q5 5 25 14l17 7q14 6 17.5 17t3.5 44v415q0 29 -4.5 42t-15.5 18l-13 6q-3 2 -14 7t-15 9l4 104h346l5 -105q-8 -7 -20 -12l-16 -6q-11 -4 -13.5 -15.5t-2.5 -48.5v-102q0 -14 13 -14h135q12 0 12 14v95q0 35 -4.5 48.5t-15.5 18.5l-16 7q-15 8 -25 16l6 104h352
l6 -105q-8 -7 -28 -15l-13 -5q-14 -5 -17.5 -18t-3.5 -51v-393q0 -41 3.5 -55.5t15.5 -19.5l14 -6q18 -8 28 -16l-5 -104h-350l-7 105q11 10 26 15l14 5q12 4 16 19.5t4 57.5v128q0 7 -3.5 10.5t-8.5 3.5h-135q-13 0 -13 -14v-144q0 -33 3 -45.5t13 -16.5l13 -6
q12 -5 19 -14l-4 -104h-343z" />
    <glyph glyph-name="Hbar" unicode="&#x126;" horiz-adv-x="832" 
d="M737 522v-321q0 -41 3.5 -55.5t15.5 -19.5l14 -6q18 -8 28 -16l-5 -104h-350l-7 105q11 10 26 15l14 5q12 4 16 19.5t4 57.5v128q0 7 -3.5 10.5t-8.5 3.5h-135q-13 0 -13 -14v-144q0 -33 3 -45.5t13 -16.5l13 -6q12 -5 19 -14l-4 -104h-343l-5 105q5 5 25 14l17 7
q14 6 17.5 17t3.5 44v335h-70v100h69q-1 17 -5.5 26t-13.5 14l-13 6q-3 2 -14 7t-15 9l4 104h346l5 -105q-8 -7 -20 -12l-16 -6q-9 -4 -12 -12.5t-4 -30.5h159q-1 19 -5.5 27t-13.5 12l-16 7q-15 8 -25 16l6 104h352l6 -105q-8 -7 -28 -15l-13 -5q-11 -4 -15 -12.5t-6 -28.5
h70v-100h-70zM496 522h-160v-23q0 -14 13 -14h135q12 0 12 14v23z" />
    <glyph glyph-name="Hcircumflex" unicode="&#x124;" horiz-adv-x="843" 
d="M38 105q5 5 25 14l17 7q14 6 17.5 17t3.5 44v415q0 29 -4.5 42t-15.5 18l-13 6q-3 2 -14 7t-15 9l4 104h346l5 -105q-8 -7 -20 -12l-16 -6q-11 -4 -13.5 -15.5t-2.5 -48.5v-102q0 -14 13 -14h135q12 0 12 14v95q0 35 -4.5 48.5t-15.5 18.5l-16 7q-15 8 -25 16l6 104h352
l6 -105q-8 -7 -28 -15l-13 -5q-14 -5 -17.5 -18t-3.5 -51v-393q0 -41 3.5 -55.5t15.5 -19.5l14 -6q18 -8 28 -16l-5 -104h-350l-7 105q11 10 26 15l14 5q12 4 16 19.5t4 57.5v128q0 7 -3.5 10.5t-8.5 3.5h-135q-13 0 -13 -14v-144q0 -33 3 -45.5t13 -16.5l13 -6
q12 -5 19 -14l-4 -104h-343zM197 915l142 144h156l143 -144l-80 -81l-140 100l-138 -100z" />
    <glyph glyph-name="I" unicode="I" horiz-adv-x="454" 
d="M44 105q5 5 25 14l17 7q13 5 17 17t4 44v415q0 29 -4.5 42t-15.5 18l-13 6q-3 2 -14 7t-15 9l4 104h356l5 -105q-8 -7 -26 -14l-16 -6q-12 -4 -16 -17.5t-4 -43.5v-416q0 -30 4 -43.5t14 -17.5l15 -6q19 -8 28 -15l-4 -104h-356z" />
    <glyph glyph-name="IJ" unicode="&#x132;" horiz-adv-x="1058" 
d="M44 105q5 5 25 14l17 7q13 5 17 17t4 44v415q0 29 -4.5 42t-15.5 18l-13 6q-3 2 -14 7t-15 9l4 104h356l5 -105q-8 -7 -26 -14l-16 -6q-12 -4 -16 -17.5t-4 -43.5v-416q0 -30 4 -43.5t14 -17.5l15 -6q19 -8 28 -15l-4 -104h-356zM516.5 40.5q-63.5 52.5 -63.5 162.5
q0 19 8.5 28t26.5 9h197v-73q0 -39 25 -39q14 0 21.5 11.5t7.5 43.5v419q0 29 -4.5 42t-15.5 18l-13 6q-22 11 -29 16l4 104h348l5 -105q-8 -7 -26 -14l-16 -6q-14 -5 -17 -15t-3 -40v-388q0 -120 -65.5 -176t-192.5 -56q-134 0 -197.5 52.5z" />
    <glyph glyph-name="Iacute" unicode="&#xcd;" horiz-adv-x="454" 
d="M44 105q5 5 25 14l17 7q13 5 17 17t4 44v415q0 29 -4.5 42t-15.5 18l-13 6q-3 2 -14 7t-15 9l4 104h356l5 -105q-8 -7 -26 -14l-16 -6q-12 -4 -16 -17.5t-4 -43.5v-416q0 -30 4 -43.5t14 -17.5l15 -6q19 -8 28 -15l-4 -104h-356zM66 943l262 157l86 -164l-289 -107z" />
    <glyph glyph-name="Ibreve" unicode="&#x12c;" horiz-adv-x="454" 
d="M44 105q5 5 25 14l17 7q13 5 17 17t4 44v415q0 29 -4.5 42t-15.5 18l-13 6q-3 2 -14 7t-15 9l4 104h356l5 -105q-8 -7 -26 -14l-16 -6q-12 -4 -16 -17.5t-4 -43.5v-416q0 -30 4 -43.5t14 -17.5l15 -6q19 -8 28 -15l-4 -104h-356zM81.5 896.5q-54.5 48.5 -59.5 130.5h157
q7 -50 51 -50q22 0 34.5 13.5t15.5 36.5h157q-5 -82 -59 -130.5t-148 -48.5t-148.5 48.5z" />
    <glyph glyph-name="Icircumflex" unicode="&#xce;" horiz-adv-x="454" 
d="M44 105q5 5 25 14l17 7q13 5 17 17t4 44v415q0 29 -4.5 42t-15.5 18l-13 6q-3 2 -14 7t-15 9l4 104h356l5 -105q-8 -7 -26 -14l-16 -6q-12 -4 -16 -17.5t-4 -43.5v-416q0 -30 4 -43.5t14 -17.5l15 -6q19 -8 28 -15l-4 -104h-356zM9 915l142 144h156l143 -144l-80 -81
l-140 100l-138 -100z" />
    <glyph glyph-name="Idieresis" unicode="&#xcf;" horiz-adv-x="454" 
d="M44 105q5 5 25 14l17 7q13 5 17 17t4 44v415q0 29 -4.5 42t-15.5 18l-13 6q-3 2 -14 7t-15 9l4 104h356l5 -105q-8 -7 -26 -14l-16 -6q-12 -4 -16 -17.5t-4 -43.5v-416q0 -30 4 -43.5t14 -17.5l15 -6q19 -8 28 -15l-4 -104h-356zM33.5 868q-29.5 27 -29.5 68t29.5 68
t71.5 27t71 -27t29 -68t-29 -68t-71 -27t-71.5 27zM282.5 868q-29.5 27 -29.5 68t29.5 68t71.5 27t71 -27t29 -68t-29 -68t-71 -27t-71.5 27z" />
    <glyph glyph-name="Idotaccent" unicode="&#x130;" horiz-adv-x="454" 
d="M44 105q5 5 25 14l17 7q13 5 17 17t4 44v415q0 29 -4.5 42t-15.5 18l-13 6q-3 2 -14 7t-15 9l4 104h356l5 -105q-8 -7 -26 -14l-16 -6q-12 -4 -16 -17.5t-4 -43.5v-416q0 -30 4 -43.5t14 -17.5l15 -6q19 -8 28 -15l-4 -104h-356zM149.5 878q-31.5 31 -31.5 78q0 48 31 78
t82 30q48 0 79.5 -30t31.5 -78q0 -47 -31.5 -78t-79.5 -31q-50 0 -81.5 31z" />
    <glyph glyph-name="Igrave" unicode="&#xcc;" horiz-adv-x="454" 
d="M44 105q5 5 25 14l17 7q13 5 17 17t4 44v415q0 29 -4.5 42t-15.5 18l-13 6q-3 2 -14 7t-15 9l4 104h356l5 -105q-8 -7 -26 -14l-16 -6q-12 -4 -16 -17.5t-4 -43.5v-416q0 -30 4 -43.5t14 -17.5l15 -6q19 -8 28 -15l-4 -104h-356zM35 936l86 164l262 -157l-59 -114z" />
    <glyph glyph-name="Imacron" unicode="&#x12a;" horiz-adv-x="454" 
d="M44 105q5 5 25 14l17 7q13 5 17 17t4 44v415q0 29 -4.5 42t-15.5 18l-13 6q-3 2 -14 7t-15 9l4 104h356l5 -105q-8 -7 -26 -14l-16 -6q-12 -4 -16 -17.5t-4 -43.5v-416q0 -30 4 -43.5t14 -17.5l15 -6q19 -8 28 -15l-4 -104h-356zM25 1003h410v-137h-410v137z" />
    <glyph glyph-name="Iogonek" unicode="&#x12e;" horiz-adv-x="454" 
d="M44 105q5 5 25 14l17 7q13 5 17 17t4 44v415q0 29 -4.5 42t-15.5 18l-13 6q-3 2 -14 7t-15 9l4 104h356l5 -105q-8 -7 -26 -14l-16 -6q-12 -4 -16 -17.5t-4 -43.5v-416q0 -30 4 -43.5t14 -17.5l15 -6q19 -8 28 -15l-4 -104h-356zM133.5 -191.5q-39.5 25.5 -39.5 73.5
q0 38 26.5 72.5t64.5 50.5h137q-28 -16 -45.5 -41.5t-17.5 -47.5q0 -25 24 -25q27 0 60 33l54 -82q-25 -27 -65.5 -43t-88.5 -16q-70 0 -109.5 25.5z" />
    <glyph glyph-name="Itilde" unicode="&#x128;" horiz-adv-x="454" 
d="M44 105q5 5 25 14l17 7q13 5 17 17t4 44v415q0 29 -4.5 42t-15.5 18l-13 6q-3 2 -14 7t-15 9l4 104h356l5 -105q-8 -7 -26 -14l-16 -6q-12 -4 -16 -17.5t-4 -43.5v-416q0 -30 4 -43.5t14 -17.5l15 -6q19 -8 28 -15l-4 -104h-356zM-9 910q18 53 63.5 89.5t98.5 36.5
q24 0 43.5 -7t44.5 -20q4 -2 16.5 -8t23 -9t19.5 -3q36 0 53 49l112 -64q-14 -57 -55 -96.5t-97 -39.5q-26 0 -46.5 7t-48.5 21q-19 10 -31 15t-25 5q-37 0 -59 -45z" />
    <glyph glyph-name="J" unicode="J" horiz-adv-x="639" 
d="M97.5 40.5q-63.5 52.5 -63.5 162.5q0 19 8.5 28t26.5 9h197v-73q0 -39 25 -39q14 0 21.5 11.5t7.5 43.5v419q0 29 -4.5 42t-15.5 18l-13 6q-22 11 -29 16l4 104h348l5 -105q-8 -7 -26 -14l-16 -6q-14 -5 -17 -15t-3 -40v-388q0 -120 -65.5 -176t-192.5 -56
q-134 0 -197.5 52.5z" />
    <glyph glyph-name="uni00A40301" horiz-adv-x="639" 
d="M97.5 40.5q-63.5 52.5 -63.5 162.5q0 19 8.5 28t26.5 9h197v-73q0 -39 25 -39q14 0 21.5 11.5t7.5 43.5v419q0 29 -4.5 42t-15.5 18l-13 6q-22 11 -29 16l4 104h348l5 -105q-8 -7 -26 -14l-16 -6q-14 -5 -17 -15t-3 -40v-388q0 -120 -65.5 -176t-192.5 -56
q-134 0 -197.5 52.5zM269 943l262 157l86 -164l-289 -107z" />
    <glyph glyph-name="Jcircumflex" unicode="&#x134;" horiz-adv-x="639" 
d="M97.5 40.5q-63.5 52.5 -63.5 162.5q0 19 8.5 28t26.5 9h197v-73q0 -39 25 -39q14 0 21.5 11.5t7.5 43.5v419q0 29 -4.5 42t-15.5 18l-13 6q-22 11 -29 16l4 104h348l5 -105q-8 -7 -26 -14l-16 -6q-14 -5 -17 -15t-3 -40v-388q0 -120 -65.5 -176t-192.5 -56
q-134 0 -197.5 52.5zM212 915l142 144h156l143 -144l-80 -81l-140 100l-138 -100z" />
    <glyph glyph-name="K" unicode="K" horiz-adv-x="811" 
d="M797 104l-4 -104h-286l-134 302q-3 8 -13 2q-11 -6 -14.5 -12.5t-3.5 -20.5v-85q0 -30 4 -43.5t14 -17.5l15 -6q19 -8 28 -15l-4 -104h-356l-5 105q5 5 25 14l17 7q13 5 17 17t4 44v415q0 29 -4.5 42t-15.5 18l-13 6q-19 8 -29 16l4 104h356l5 -105q-8 -7 -26 -14l-16 -6
q-12 -4 -16 -17.5t-4 -43.5v-100l127 150q7 7 7 15q0 9 -9 12l-10 4l-18 8l8 97h318l4 -105q-6 -8 -36 -15l-22 -6q-50 -13 -94 -65l-70 -85q-6 -6 -6 -13t4 -14l129 -261q23 -48 39.5 -69t35.5 -29l13 -5q26 -9 35 -17z" />
    <glyph glyph-name="Kcommaaccent" unicode="&#x136;" horiz-adv-x="811" 
d="M797 104l-4 -104h-286l-134 302q-3 8 -13 2q-11 -6 -14.5 -12.5t-3.5 -20.5v-85q0 -30 4 -43.5t14 -17.5l15 -6q19 -8 28 -15l-4 -104h-356l-5 105q5 5 25 14l17 7q13 5 17 17t4 44v415q0 29 -4.5 42t-15.5 18l-13 6q-19 8 -29 16l4 104h356l5 -105q-8 -7 -26 -14l-16 -6
q-12 -4 -16 -17.5t-4 -43.5v-100l127 150q7 7 7 15q0 9 -9 12l-10 4l-18 8l8 97h318l4 -105q-6 -8 -36 -15l-22 -6q-50 -13 -94 -65l-70 -85q-6 -6 -6 -13t4 -14l129 -261q23 -48 39.5 -69t35.5 -29l13 -5q26 -9 35 -17zM329 -296q61 41 61 65q0 8 -4 14t-13 15
q-14 14 -21 26.5t-7 34.5q0 34 26.5 56t67.5 22q49 0 80 -33t31 -82t-36.5 -99.5t-93.5 -83.5z" />
    <glyph glyph-name="L" unicode="L" horiz-adv-x="652" 
d="M38 104q8 8 27 16l15 6q14 6 17.5 19t3.5 56v401q0 29 -4.5 42t-15.5 18l-13 6q-22 11 -29 16l4 104h357l5 -105q-8 -7 -26 -14l-16 -6q-12 -4 -16.5 -17.5t-4.5 -43.5v-447q0 -14 14 -14h94q17 0 23 3t10 16l16 45q12 35 19 51h108v-256h-583z" />
    <glyph glyph-name="Lacute" unicode="&#x139;" horiz-adv-x="652" 
d="M38 104q8 8 27 16l15 6q14 6 17.5 19t3.5 56v401q0 29 -4.5 42t-15.5 18l-13 6q-22 11 -29 16l4 104h357l5 -105q-8 -7 -26 -14l-16 -6q-12 -4 -16.5 -17.5t-4.5 -43.5v-447q0 -14 14 -14h94q17 0 23 3t10 16l16 45q12 35 19 51h108v-256h-583zM60 943l262 157l86 -164
l-289 -107z" />
    <glyph glyph-name="Lcaron" unicode="&#x13d;" horiz-adv-x="652" 
d="M38 104q8 8 27 16l15 6q14 6 17.5 19t3.5 56v401q0 29 -4.5 42t-15.5 18l-13 6q-22 11 -29 16l4 104h357l5 -105q-8 -7 -26 -14l-16 -6q-12 -4 -16.5 -17.5t-4.5 -43.5v-447q0 -14 14 -14h94q17 0 23 3t10 16l16 45q12 35 19 51h108v-256h-583zM438 577q26 15 42 31.5
t16 30.5q0 8 -4 14.5t-12 15.5q-13 14 -19.5 26.5t-6.5 33.5q0 32 24 52.5t64 20.5q49 0 75 -28t26 -81q0 -44 -33.5 -95t-84.5 -83z" />
    <glyph glyph-name="Lcommaaccent" unicode="&#x13b;" horiz-adv-x="652" 
d="M38 104q8 8 27 16l15 6q14 6 17.5 19t3.5 56v401q0 29 -4.5 42t-15.5 18l-13 6q-22 11 -29 16l4 104h357l5 -105q-8 -7 -26 -14l-16 -6q-12 -4 -16.5 -17.5t-4.5 -43.5v-447q0 -14 14 -14h94q17 0 23 3t10 16l16 45q12 35 19 51h108v-256h-583zM224 -296q61 41 61 65
q0 8 -4 14t-13 15q-14 14 -21 26.5t-7 34.5q0 34 26.5 56t67.5 22q49 0 80 -33t31 -82t-36.5 -99.5t-93.5 -83.5z" />
    <glyph glyph-name="Ldot" unicode="&#x13f;" horiz-adv-x="634" 
d="M38 104q8 8 27 16l15 6q14 6 17.5 19t3.5 56v401q0 29 -4.5 42t-15.5 18l-13 6q-22 11 -29 16l4 104h357l5 -105q-8 -7 -26 -14l-16 -6q-12 -4 -16.5 -17.5t-4.5 -43.5v-447q0 -14 14 -14h94q17 0 23 3t10 16l16 45q12 35 19 51h108v-256h-583zM458.5 392
q-33.5 33 -33.5 81q0 46 33.5 78.5t81.5 32.5q47 0 79 -32t32 -79q0 -48 -32 -81t-79 -33q-48 0 -81.5 33z" />
    <glyph glyph-name="Lslash" unicode="&#x141;" horiz-adv-x="688" 
d="M662 256v-256h-583l-5 104q8 8 27 16l15 6q14 6 17.5 19t3.5 56v80l-56 -26l-66 130l122 56v161q0 29 -4.5 42t-15.5 18l-13 6q-22 11 -29 16l4 104h357l5 -105q-8 -7 -26 -14l-16 -6q-12 -4 -16.5 -17.5t-4.5 -43.5v-51l91 41l66 -130l-157 -72v-235q0 -14 14 -14h94
q17 0 23 3t10 16l16 45q12 35 19 51h108z" />
    <glyph glyph-name="M" unicode="M" horiz-adv-x="1006" 
d="M55 104q8 8 27 14l15 5q11 4 15 16.5t4 48.5v396q0 31 -1.5 44t-8.5 19.5t-24 12.5l-20 7q-15 5 -24 14l5 107h321l156 -355l151 355h292l5 -107q-9 -9 -24 -14l-20 -7q-16 -6 -19.5 -19t-3.5 -57v-396q0 -35 4 -47t17 -17l14 -5q20 -8 30 -16l-5 -103h-312l-6 104
q8 8 27 14l15 5q11 4 15 16.5t4 48.5v283l-128 -300h-163l-129 291v-274q0 -35 4 -47t17 -17l14 -5q20 -8 30 -16l-5 -103h-283z" />
    <glyph glyph-name="N" unicode="N" horiz-adv-x="850" 
d="M55 104q8 8 27 14l15 5q11 4 15 16.5t4 48.5v396q0 31 -1.5 44t-8.5 19.5t-24 12.5l-20 7q-15 5 -24 14l5 107h299l248 -417v229q0 35 -4 47t-17 17l-14 5q-20 8 -30 16l5 103h284l6 -104q-7 -8 -27 -14l-15 -5q-11 -4 -15 -16.5t-4 -48.5v-600h-199l-276 459v-271
q0 -35 4 -47t17 -17l14 -5q20 -8 30 -16l-5 -103h-283z" />
    <glyph glyph-name="Nacute" unicode="&#x143;" horiz-adv-x="850" 
d="M55 104q8 8 27 14l15 5q11 4 15 16.5t4 48.5v396q0 31 -1.5 44t-8.5 19.5t-24 12.5l-20 7q-15 5 -24 14l5 107h299l248 -417v229q0 35 -4 47t-17 17l-14 5q-20 8 -30 16l5 103h284l6 -104q-7 -8 -27 -14l-15 -5q-11 -4 -15 -16.5t-4 -48.5v-600h-199l-276 459v-271
q0 -35 4 -47t17 -17l14 -5q20 -8 30 -16l-5 -103h-283zM276 943l262 157l86 -164l-289 -107z" />
    <glyph glyph-name="Ncaron" unicode="&#x147;" horiz-adv-x="850" 
d="M55 104q8 8 27 14l15 5q11 4 15 16.5t4 48.5v396q0 31 -1.5 44t-8.5 19.5t-24 12.5l-20 7q-15 5 -24 14l5 107h299l248 -417v229q0 35 -4 47t-17 17l-14 5q-20 8 -30 16l5 103h284l6 -104q-7 -8 -27 -14l-15 -5q-11 -4 -15 -16.5t-4 -48.5v-600h-199l-276 459v-271
q0 -35 4 -47t17 -17l14 -5q20 -8 30 -16l-5 -103h-283zM219 991l80 81l141 -94l138 94l82 -81l-143 -138h-156z" />
    <glyph glyph-name="Ncommaaccent" unicode="&#x145;" horiz-adv-x="850" 
d="M55 104q8 8 27 14l15 5q11 4 15 16.5t4 48.5v396q0 31 -1.5 44t-8.5 19.5t-24 12.5l-20 7q-15 5 -24 14l5 107h299l248 -417v229q0 35 -4 47t-17 17l-14 5q-20 8 -30 16l5 103h284l6 -104q-7 -8 -27 -14l-15 -5q-11 -4 -15 -16.5t-4 -48.5v-600h-199l-276 459v-271
q0 -35 4 -47t17 -17l14 -5q20 -8 30 -16l-5 -103h-283zM340 -296q61 41 61 65q0 8 -4 14t-13 15q-14 14 -21 26.5t-7 34.5q0 34 26.5 56t67.5 22q49 0 80 -33t31 -82t-36.5 -99.5t-93.5 -83.5z" />
    <glyph glyph-name="Eng" unicode="&#x14a;" horiz-adv-x="850" 
d="M820 684q-7 -8 -27 -14l-15 -5q-11 -4 -15 -16.5t-4 -48.5v-600q-2 -121 -56 -172.5t-162 -51.5q-30 0 -64 3t-54 8v138q15 -5 39 -8t44 -3q39 0 61.5 13t22.5 38v4l-306 495v-276q0 -35 4 -47t17 -17l14 -5q20 -8 30 -16l-5 -103h-283l-6 104q8 8 27 14l15 5
q11 4 15 16.5t4 48.5v396q0 31 -1.5 44t-8.5 19.5t-24 12.5l-20 7q-15 5 -24 14l5 107h299l248 -403v215q0 35 -4 47t-17 17l-14 5q-20 8 -30 16l5 103h284z" />
    <glyph glyph-name="Ntilde" unicode="&#xd1;" horiz-adv-x="850" 
d="M55 104q8 8 27 14l15 5q11 4 15 16.5t4 48.5v396q0 31 -1.5 44t-8.5 19.5t-24 12.5l-20 7q-15 5 -24 14l5 107h299l248 -417v229q0 35 -4 47t-17 17l-14 5q-20 8 -30 16l5 103h284l6 -104q-7 -8 -27 -14l-15 -5q-11 -4 -15 -16.5t-4 -48.5v-600h-199l-276 459v-271
q0 -35 4 -47t17 -17l14 -5q20 -8 30 -16l-5 -103h-283zM201 910q18 53 63.5 89.5t98.5 36.5q24 0 43.5 -7t44.5 -20q4 -2 16.5 -8t23 -9t19.5 -3q36 0 53 49l112 -64q-14 -57 -55 -96.5t-97 -39.5q-26 0 -46.5 7t-48.5 21q-19 10 -31 15t-25 5q-37 0 -59 -45z" />
    <glyph glyph-name="O" unicode="O" horiz-adv-x="755" 
d="M128 86.5q-90 98.5 -90 302.5q0 138 43.5 230t121 136.5t179.5 44.5q154 0 244.5 -101.5t90.5 -303.5q0 -205 -90 -306t-247 -101q-162 0 -252 98.5zM438 156.5q19 27.5 25 83t6 156.5t-6 155.5t-25 81t-56 26.5q-38 0 -58.5 -27t-29 -83t-8.5 -151q0 -98 8.5 -155.5
t29 -85.5t58.5 -28q37 0 56 27.5z" />
    <glyph glyph-name="Oacute" unicode="&#xd3;" horiz-adv-x="755" 
d="M128 86.5q-90 98.5 -90 302.5q0 138 43.5 230t121 136.5t179.5 44.5q154 0 244.5 -101.5t90.5 -303.5q0 -205 -90 -306t-247 -101q-162 0 -252 98.5zM438 156.5q19 27.5 25 83t6 156.5t-6 155.5t-25 81t-56 26.5q-38 0 -58.5 -27t-29 -83t-8.5 -151q0 -98 8.5 -155.5
t29 -85.5t58.5 -28q37 0 56 27.5zM219 943l262 157l86 -164l-289 -107z" />
    <glyph glyph-name="Obreve" unicode="&#x14e;" horiz-adv-x="755" 
d="M128 86.5q-90 98.5 -90 302.5q0 138 43.5 230t121 136.5t179.5 44.5q154 0 244.5 -101.5t90.5 -303.5q0 -205 -90 -306t-247 -101q-162 0 -252 98.5zM438 156.5q19 27.5 25 83t6 156.5t-6 155.5t-25 81t-56 26.5q-38 0 -58.5 -27t-29 -83t-8.5 -151q0 -98 8.5 -155.5
t29 -85.5t58.5 -28q37 0 56 27.5zM234.5 896.5q-54.5 48.5 -59.5 130.5h157q7 -50 51 -50q22 0 34.5 13.5t15.5 36.5h157q-5 -82 -59 -130.5t-148 -48.5t-148.5 48.5z" />
    <glyph glyph-name="Ocircumflex" unicode="&#xd4;" horiz-adv-x="755" 
d="M128 86.5q-90 98.5 -90 302.5q0 138 43.5 230t121 136.5t179.5 44.5q154 0 244.5 -101.5t90.5 -303.5q0 -205 -90 -306t-247 -101q-162 0 -252 98.5zM438 156.5q19 27.5 25 83t6 156.5t-6 155.5t-25 81t-56 26.5q-38 0 -58.5 -27t-29 -83t-8.5 -151q0 -98 8.5 -155.5
t29 -85.5t58.5 -28q37 0 56 27.5zM162 915l142 144h156l143 -144l-80 -81l-140 100l-138 -100z" />
    <glyph glyph-name="Odieresis" unicode="&#xd6;" horiz-adv-x="755" 
d="M128 86.5q-90 98.5 -90 302.5q0 138 43.5 230t121 136.5t179.5 44.5q154 0 244.5 -101.5t90.5 -303.5q0 -205 -90 -306t-247 -101q-162 0 -252 98.5zM438 156.5q19 27.5 25 83t6 156.5t-6 155.5t-25 81t-56 26.5q-38 0 -58.5 -27t-29 -83t-8.5 -151q0 -98 8.5 -155.5
t29 -85.5t58.5 -28q37 0 56 27.5zM186.5 868q-29.5 27 -29.5 68t29.5 68t71.5 27t71 -27t29 -68t-29 -68t-71 -27t-71.5 27zM435.5 868q-29.5 27 -29.5 68t29.5 68t71.5 27t71 -27t29 -68t-29 -68t-71 -27t-71.5 27z" />
    <glyph glyph-name="Ograve" unicode="&#xd2;" horiz-adv-x="755" 
d="M128 86.5q-90 98.5 -90 302.5q0 138 43.5 230t121 136.5t179.5 44.5q154 0 244.5 -101.5t90.5 -303.5q0 -205 -90 -306t-247 -101q-162 0 -252 98.5zM438 156.5q19 27.5 25 83t6 156.5t-6 155.5t-25 81t-56 26.5q-38 0 -58.5 -27t-29 -83t-8.5 -151q0 -98 8.5 -155.5
t29 -85.5t58.5 -28q37 0 56 27.5zM188 936l86 164l262 -157l-59 -114z" />
    <glyph glyph-name="Ohungarumlaut" unicode="&#x150;" horiz-adv-x="755" 
d="M128 86.5q-90 98.5 -90 302.5q0 138 43.5 230t121 136.5t179.5 44.5q154 0 244.5 -101.5t90.5 -303.5q0 -205 -90 -306t-247 -101q-162 0 -252 98.5zM438 156.5q19 27.5 25 83t6 156.5t-6 155.5t-25 81t-56 26.5q-38 0 -58.5 -27t-29 -83t-8.5 -151q0 -98 8.5 -155.5
t29 -85.5t58.5 -28q37 0 56 27.5zM109 927l189 186l114 -124l-218 -161zM414 927l189 186l114 -124l-218 -161z" />
    <glyph glyph-name="Omacron" unicode="&#x14c;" horiz-adv-x="755" 
d="M128 86.5q-90 98.5 -90 302.5q0 138 43.5 230t121 136.5t179.5 44.5q154 0 244.5 -101.5t90.5 -303.5q0 -205 -90 -306t-247 -101q-162 0 -252 98.5zM438 156.5q19 27.5 25 83t6 156.5t-6 155.5t-25 81t-56 26.5q-38 0 -58.5 -27t-29 -83t-8.5 -151q0 -98 8.5 -155.5
t29 -85.5t58.5 -28q37 0 56 27.5zM178 1003h410v-137h-410v137z" />
    <glyph glyph-name="Oslash" unicode="&#xd8;" horiz-adv-x="759" 
d="M717 395q0 -205 -90 -306t-247 -101q-77 0 -137 22l-59 -105l-117 72l61 109q-90 103 -90 303q0 138 43.5 230t121 136.5t179.5 44.5q76 0 132 -23l58 103l117 -72l-62 -110q90 -106 90 -303zM286 369l149 267q-17 23 -53 23q-38 0 -58.5 -27t-29 -83t-8.5 -151v-29z
M438 156.5q19 27.5 25 83t6 156.5v19l-145 -259q21 -27 58 -27t56 27.5z" />
    <glyph glyph-name="Oslashacute" unicode="&#x1fe;" horiz-adv-x="759" 
d="M717 395q0 -205 -90 -306t-247 -101q-77 0 -137 22l-59 -105l-117 72l61 109q-90 103 -90 303q0 138 43.5 230t121 136.5t179.5 44.5q76 0 132 -23l58 103l117 -72l-62 -110q90 -106 90 -303zM286 369l149 267q-17 23 -53 23q-38 0 -58.5 -27t-29 -83t-8.5 -151v-29z
M438 156.5q19 27.5 25 83t6 156.5v19l-145 -259q21 -27 58 -27t56 27.5zM190 943l262 157l86 -164l-289 -107z" />
    <glyph glyph-name="Otilde" unicode="&#xd5;" horiz-adv-x="755" 
d="M128 86.5q-90 98.5 -90 302.5q0 138 43.5 230t121 136.5t179.5 44.5q154 0 244.5 -101.5t90.5 -303.5q0 -205 -90 -306t-247 -101q-162 0 -252 98.5zM438 156.5q19 27.5 25 83t6 156.5t-6 155.5t-25 81t-56 26.5q-38 0 -58.5 -27t-29 -83t-8.5 -151q0 -98 8.5 -155.5
t29 -85.5t58.5 -28q37 0 56 27.5zM144 910q18 53 63.5 89.5t98.5 36.5q24 0 43.5 -7t44.5 -20q4 -2 16.5 -8t23 -9t19.5 -3q36 0 53 49l112 -64q-14 -57 -55 -96.5t-97 -39.5q-26 0 -46.5 7t-48.5 21q-19 10 -31 15t-25 5q-37 0 -59 -45z" />
    <glyph glyph-name="OE" unicode="&#x152;" horiz-adv-x="1027" 
d="M170.5 34q-63.5 46 -98 136t-34.5 219q0 130 35 222.5t98.5 140.5t149.5 48q48 0 89.5 -17t70.5 -46v51h489v-227h-108q-11 16 -22 43l-5 13q-7 18 -14 24t-23 6h-80q-14 0 -14 -14v-154q0 -14 14 -14h13q10 0 16.5 5t13.5 22l7 16l11 25l81 -1v-265l-79 -2q-7 9 -15 26
l-5 11q-7 15 -12.5 19.5t-17.5 4.5h-13q-14 0 -14 -14v-157q0 -14 14 -14h92q17 0 23 4t13 22l8 20q10 28 22 47h108v-234h-502v64q-25 -35 -66.5 -55.5t-95.5 -20.5q-86 0 -149.5 46zM463 176v446q-28 32 -65 32q-51 0 -81.5 -61.5t-30.5 -197.5q0 -149 27 -207.5t78 -58.5
q48 0 72 47z" />
    <glyph glyph-name="P" unicode="P" horiz-adv-x="726" 
d="M38 104q8 8 27 16l15 6q12 5 16.5 17.5t4.5 43.5v415q0 29 -4.5 42t-15.5 18l-13 6q-20 10 -29 16l5 104h335q146 0 228.5 -62t82.5 -180q0 -123 -75 -190.5t-213 -67.5h-45q-15 0 -15 -15v-95q0 -26 6.5 -38t23.5 -17l15 -5q20 -7 30 -15l-5 -103h-369zM373 429
q34 0 51.5 27t17.5 86t-16.5 82t-52.5 23h-17q-14 0 -14 -15v-188q0 -15 15 -15h16z" />
    <glyph glyph-name="Thorn" unicode="&#xde;" horiz-adv-x="729" 
d="M44 105q5 5 25 14l17 7q13 5 17 17t4 44v415q0 29 -5 42t-18 19l-13 6q-14 7 -26 15l4 104h356l5 -105q-8 -7 -26 -14l-16 -6q-19 -7 -19 -24v-15q0 -8 8 -8h38q302 0 302 -211q0 -110 -74.5 -165t-206.5 -55h-57q-11 0 -11 -11v-14q0 -16 4 -23.5t14 -11.5l15 -6
q19 -8 28 -15l-4 -104h-356zM384 323q29 0 47 22.5t18 57.5q0 38 -17 56.5t-48 18.5h-22q-14 0 -14 -15v-124q0 -16 15 -16h21z" />
    <glyph glyph-name="Q" unicode="Q" horiz-adv-x="755" 
d="M460.5 -49q22.5 -13 65.5 -13h98v-122q0 -29 -14.5 -38.5t-53.5 -9.5q-140 0 -206.5 58t-68.5 173q-116 26 -179.5 122.5t-63.5 267.5q0 138 43.5 230t121 136.5t179.5 44.5q154 0 244.5 -101.5t90.5 -303.5q0 -186 -74.5 -286.5t-207.5 -117.5q3 -27 25.5 -40z
M323.5 632q-20.5 -27 -29 -83t-8.5 -151q0 -98 8.5 -155.5t29 -85.5t58.5 -28q37 0 56 27.5t25 83t6 156.5t-6 155.5t-25 81t-56 26.5q-38 0 -58.5 -27z" />
    <glyph glyph-name="R" unicode="R" horiz-adv-x="758" 
d="M38 104q8 8 27 16l15 6q12 5 16.5 17.5t4.5 43.5v415q0 29 -4.5 42t-15.5 18l-13 6q-20 10 -29 16l5 104h332q151 0 234.5 -53.5t83.5 -166.5q0 -71 -31.5 -119.5t-79.5 -77.5q-8 -5 -4 -15l69 -159q15 -35 29 -51t33 -22l15 -5q15 -5 29 -15l-6 -104h-260l-112 290
q-4 12 -14 12h-11q-9 0 -9 -12v-120q0 -23 4 -32.5t14 -13.5l12 -5q16 -6 26 -14l-5 -105h-350zM367 444q39 0 59.5 27t20.5 80q0 50 -20 73t-59 23h-12q-14 0 -14 -15v-173q0 -15 15 -15h10z" />
    <glyph glyph-name="Racute" unicode="&#x154;" horiz-adv-x="758" 
d="M38 104q8 8 27 16l15 6q12 5 16.5 17.5t4.5 43.5v415q0 29 -4.5 42t-15.5 18l-13 6q-20 10 -29 16l5 104h332q151 0 234.5 -53.5t83.5 -166.5q0 -71 -31.5 -119.5t-79.5 -77.5q-8 -5 -4 -15l69 -159q15 -35 29 -51t33 -22l15 -5q15 -5 29 -15l-6 -104h-260l-112 290
q-4 12 -14 12h-11q-9 0 -9 -12v-120q0 -23 4 -32.5t14 -13.5l12 -5q16 -6 26 -14l-5 -105h-350zM367 444q39 0 59.5 27t20.5 80q0 50 -20 73t-59 23h-12q-14 0 -14 -15v-173q0 -15 15 -15h10zM196 943l262 157l86 -164l-289 -107z" />
    <glyph glyph-name="Rcaron" unicode="&#x158;" horiz-adv-x="758" 
d="M38 104q8 8 27 16l15 6q12 5 16.5 17.5t4.5 43.5v415q0 29 -4.5 42t-15.5 18l-13 6q-20 10 -29 16l5 104h332q151 0 234.5 -53.5t83.5 -166.5q0 -71 -31.5 -119.5t-79.5 -77.5q-8 -5 -4 -15l69 -159q15 -35 29 -51t33 -22l15 -5q15 -5 29 -15l-6 -104h-260l-112 290
q-4 12 -14 12h-11q-9 0 -9 -12v-120q0 -23 4 -32.5t14 -13.5l12 -5q16 -6 26 -14l-5 -105h-350zM367 444q39 0 59.5 27t20.5 80q0 50 -20 73t-59 23h-12q-14 0 -14 -15v-173q0 -15 15 -15h10zM139 991l80 81l141 -94l138 94l82 -81l-143 -138h-156z" />
    <glyph glyph-name="Rcommaaccent" unicode="&#x156;" horiz-adv-x="758" 
d="M38 104q8 8 27 16l15 6q12 5 16.5 17.5t4.5 43.5v415q0 29 -4.5 42t-15.5 18l-13 6q-20 10 -29 16l5 104h332q151 0 234.5 -53.5t83.5 -166.5q0 -71 -31.5 -119.5t-79.5 -77.5q-8 -5 -4 -15l69 -159q15 -35 29 -51t33 -22l15 -5q15 -5 29 -15l-6 -104h-260l-112 290
q-4 12 -14 12h-11q-9 0 -9 -12v-120q0 -23 4 -32.5t14 -13.5l12 -5q16 -6 26 -14l-5 -105h-350zM367 444q39 0 59.5 27t20.5 80q0 50 -20 73t-59 23h-12q-14 0 -14 -15v-173q0 -15 15 -15h10zM301 -296q61 41 61 65q0 8 -4 14t-13 15q-14 14 -21 26.5t-7 34.5q0 34 26.5 56
t67.5 22q49 0 80 -33t31 -82t-36.5 -99.5t-93.5 -83.5z" />
    <glyph glyph-name="S" unicode="S" horiz-adv-x="684" 
d="M226 27q-2 2 -7 2q-6 0 -7 -11l-1 -18h-163v281h178l2 -36q3 -54 33.5 -84t79.5 -30q30 0 47 17.5t17 45.5q0 21 -10 37t-38 34.5t-84 47.5l-17 9q-77 42 -122.5 79t-68 81.5t-22.5 105.5q0 64 31.5 112t88 74t129.5 26q45 0 81 -7.5t58 -18.5l5 -2q4 0 5 7l2 19h163
v-253h-178l-2 23q-4 45 -21.5 66.5t-55.5 21.5q-30 0 -43.5 -12.5t-13.5 -33.5q0 -18 10 -31t37.5 -29.5t87.5 -46.5l16 -8q79 -39 123 -75.5t63 -81t19 -108.5q0 -71 -34.5 -126.5t-92.5 -85.5t-127 -30q-105 0 -168 39z" />
    <glyph glyph-name="Sacute" unicode="&#x15a;" horiz-adv-x="684" 
d="M226 27q-2 2 -7 2q-6 0 -7 -11l-1 -18h-163v281h178l2 -36q3 -54 33.5 -84t79.5 -30q30 0 47 17.5t17 45.5q0 21 -10 37t-38 34.5t-84 47.5l-17 9q-77 42 -122.5 79t-68 81.5t-22.5 105.5q0 64 31.5 112t88 74t129.5 26q45 0 81 -7.5t58 -18.5l5 -2q4 0 5 7l2 19h163
v-253h-178l-2 23q-4 45 -21.5 66.5t-55.5 21.5q-30 0 -43.5 -12.5t-13.5 -33.5q0 -18 10 -31t37.5 -29.5t87.5 -46.5l16 -8q79 -39 123 -75.5t63 -81t19 -108.5q0 -71 -34.5 -126.5t-92.5 -85.5t-127 -30q-105 0 -168 39zM174 943l262 157l86 -164l-289 -107z" />
    <glyph glyph-name="Scaron" unicode="&#x160;" horiz-adv-x="684" 
d="M226 27q-2 2 -7 2q-6 0 -7 -11l-1 -18h-163v281h178l2 -36q3 -54 33.5 -84t79.5 -30q30 0 47 17.5t17 45.5q0 21 -10 37t-38 34.5t-84 47.5l-17 9q-77 42 -122.5 79t-68 81.5t-22.5 105.5q0 64 31.5 112t88 74t129.5 26q45 0 81 -7.5t58 -18.5l5 -2q4 0 5 7l2 19h163
v-253h-178l-2 23q-4 45 -21.5 66.5t-55.5 21.5q-30 0 -43.5 -12.5t-13.5 -33.5q0 -18 10 -31t37.5 -29.5t87.5 -46.5l16 -8q79 -39 123 -75.5t63 -81t19 -108.5q0 -71 -34.5 -126.5t-92.5 -85.5t-127 -30q-105 0 -168 39zM117 991l80 81l141 -94l138 94l82 -81l-143 -138
h-156z" />
    <glyph glyph-name="Scedilla" unicode="&#x15e;" horiz-adv-x="684" 
d="M226 27q-2 2 -7 2q-6 0 -7 -11l-1 -18h-163v281h178l2 -36q3 -54 33.5 -84t79.5 -30q30 0 47 17.5t17 45.5q0 21 -10 37t-38 34.5t-84 47.5l-17 9q-77 42 -122.5 79t-68 81.5t-22.5 105.5q0 64 31.5 112t88 74t129.5 26q45 0 81 -7.5t58 -18.5l5 -2q4 0 5 7l2 19h163
v-253h-178l-2 23q-4 45 -21.5 66.5t-55.5 21.5q-30 0 -43.5 -12.5t-13.5 -33.5q0 -18 10 -31t37.5 -29.5t87.5 -46.5l16 -8q79 -39 123 -75.5t63 -81t19 -108.5q0 -71 -34.5 -126.5t-92.5 -85.5t-127 -30q-105 0 -168 39zM277 -216.5q-39 10.5 -62 26.5l30 83
q15 -11 38 -19.5t42 -8.5q18 0 27 6.5t9 16.5q0 16 -20 24.5t-64 12.5l35 77h94l-13 -27q54 -7 84.5 -33t30.5 -67q0 -46 -40 -74t-108 -28q-44 0 -83 10.5z" />
    <glyph glyph-name="Scircumflex" unicode="&#x15c;" horiz-adv-x="684" 
d="M226 27q-2 2 -7 2q-6 0 -7 -11l-1 -18h-163v281h178l2 -36q3 -54 33.5 -84t79.5 -30q30 0 47 17.5t17 45.5q0 21 -10 37t-38 34.5t-84 47.5l-17 9q-77 42 -122.5 79t-68 81.5t-22.5 105.5q0 64 31.5 112t88 74t129.5 26q45 0 81 -7.5t58 -18.5l5 -2q4 0 5 7l2 19h163
v-253h-178l-2 23q-4 45 -21.5 66.5t-55.5 21.5q-30 0 -43.5 -12.5t-13.5 -33.5q0 -18 10 -31t37.5 -29.5t87.5 -46.5l16 -8q79 -39 123 -75.5t63 -81t19 -108.5q0 -71 -34.5 -126.5t-92.5 -85.5t-127 -30q-105 0 -168 39zM117 915l142 144h156l143 -144l-80 -81l-140 100
l-138 -100z" />
    <glyph glyph-name="Scommaaccent" unicode="&#x218;" horiz-adv-x="684" 
d="M226 27q-2 2 -7 2q-6 0 -7 -11l-1 -18h-163v281h178l2 -36q3 -54 33.5 -84t79.5 -30q30 0 47 17.5t17 45.5q0 21 -10 37t-38 34.5t-84 47.5l-17 9q-77 42 -122.5 79t-68 81.5t-22.5 105.5q0 64 31.5 112t88 74t129.5 26q45 0 81 -7.5t58 -18.5l5 -2q4 0 5 7l2 19h163
v-253h-178l-2 23q-4 45 -21.5 66.5t-55.5 21.5q-30 0 -43.5 -12.5t-13.5 -33.5q0 -18 10 -31t37.5 -29.5t87.5 -46.5l16 -8q79 -39 123 -75.5t63 -81t19 -108.5q0 -71 -34.5 -126.5t-92.5 -85.5t-127 -30q-105 0 -168 39zM250 -296q61 41 61 65q0 8 -4 14t-13 15
q-14 14 -21 26.5t-7 34.5q0 34 26.5 56t67.5 22q49 0 80 -33t31 -82t-36.5 -99.5t-93.5 -83.5z" />
    <glyph glyph-name="uni1E9E" unicode="&#x1e9e;" horiz-adv-x="846" 
d="M518 26q-4 3 -7 3q-5 0 -7 -8l-3 -21h-121v222h137l3 -30q3 -31 16 -48t34 -17q13 0 21.5 9.5t8.5 25.5q0 25 -19.5 45t-68.5 45q-46 23 -73 43t-43 48t-16 68q0 41 15.5 66t44.5 52q23 22 33.5 37t10.5 37q0 27 -16.5 41.5t-44.5 14.5q-41 0 -63.5 -31.5t-22.5 -96.5
v-531h-301l-4 103q8 5 27 11l17 6q13 4 16.5 14.5t3.5 42.5v341q0 282 338 282q86 0 155.5 -23t108.5 -64t39 -94q0 -35 -13 -59.5t-30 -39t-44 -31.5q-22 -15 -31.5 -23.5t-9.5 -19.5q0 -10 7.5 -18t30 -21.5t56.5 -31.5q64 -35 94.5 -80t30.5 -118q0 -52 -24.5 -95.5
t-66.5 -68.5t-91 -25q-75 0 -128 38z" />
    <glyph glyph-name="T" unicode="T" horiz-adv-x="754" 
d="M183 105q14 10 28 15l18 6q12 4 17 9.5t7.5 18.5t2.5 41v438q0 7 -3.5 10.5t-9.5 3.5h-37q-15 0 -20.5 -4.5t-10.5 -16.5l-9 -25l-22 -54h-108v241h682v-241h-108q-8 16 -22 55l-9 24q-5 12 -10.5 16.5t-20.5 4.5h-37q-6 0 -10 -3.5t-4 -10.5v-439q0 -35 5.5 -49
t23.5 -20l14 -5q22 -9 29 -16l-4 -104h-377z" />
    <glyph glyph-name="Tbar" unicode="&#x166;" horiz-adv-x="754" 
d="M718 788v-241h-108q-8 16 -22 55l-9 24q-5 12 -10.5 16.5t-20.5 4.5h-37q-6 0 -10 -3.5t-4 -10.5v-171h101v-144h-101v-124q0 -35 5.5 -49t23.5 -20l14 -5q22 -9 29 -16l-4 -104h-377l-5 105q14 10 28 15l18 6q12 4 17 9.5t7.5 18.5t2.5 41v123h-101v144h101v171
q0 7 -3.5 10.5t-9.5 3.5h-37q-15 0 -20.5 -4.5t-10.5 -16.5l-9 -25l-22 -54h-108v241h682z" />
    <glyph glyph-name="Tcaron" unicode="&#x164;" horiz-adv-x="754" 
d="M183 105q14 10 28 15l18 6q12 4 17 9.5t7.5 18.5t2.5 41v438q0 7 -3.5 10.5t-9.5 3.5h-37q-15 0 -20.5 -4.5t-10.5 -16.5l-9 -25l-22 -54h-108v241h682v-241h-108q-8 16 -22 55l-9 24q-5 12 -10.5 16.5t-20.5 4.5h-37q-6 0 -10 -3.5t-4 -10.5v-439q0 -35 5.5 -49
t23.5 -20l14 -5q22 -9 29 -16l-4 -104h-377zM172 991l80 81l141 -94l138 94l82 -81l-143 -138h-156z" />
    <glyph glyph-name="uni0162" unicode="&#x162;" horiz-adv-x="754" 
d="M183 105q14 10 28 15l18 6q12 4 17 9.5t7.5 18.5t2.5 41v438q0 7 -3.5 10.5t-9.5 3.5h-37q-15 0 -20.5 -4.5t-10.5 -16.5l-9 -25l-22 -54h-108v241h682v-241h-108q-8 16 -22 55l-9 24q-5 12 -10.5 16.5t-20.5 4.5h-37q-6 0 -10 -3.5t-4 -10.5v-439q0 -35 5.5 -49
t23.5 -20l14 -5q22 -9 29 -16l-4 -104h-377zM279 -296q61 41 61 65q0 8 -4 14t-13 15q-14 14 -21 26.5t-7 34.5q0 34 26.5 56t67.5 22q49 0 80 -33t31 -82t-36.5 -99.5t-93.5 -83.5z" />
    <glyph glyph-name="uni021A" unicode="&#x21a;" horiz-adv-x="754" 
d="M183 105q14 10 28 15l18 6q12 4 17 9.5t7.5 18.5t2.5 41v438q0 7 -3.5 10.5t-9.5 3.5h-37q-15 0 -20.5 -4.5t-10.5 -16.5l-9 -25l-22 -54h-108v241h682v-241h-108q-8 16 -22 55l-9 24q-5 12 -10.5 16.5t-20.5 4.5h-37q-6 0 -10 -3.5t-4 -10.5v-439q0 -35 5.5 -49
t23.5 -20l14 -5q22 -9 29 -16l-4 -104h-377zM279 -296q61 41 61 65q0 8 -4 14t-13 15q-14 14 -21 26.5t-7 34.5q0 34 26.5 56t67.5 22q49 0 80 -33t31 -82t-36.5 -99.5t-93.5 -83.5z" />
    <glyph glyph-name="U" unicode="U" horiz-adv-x="792" 
d="M166 52.5q-80 64.5 -80 198.5v351q0 29 -4.5 42t-15.5 18l-13 6q-22 9 -29 16l4 104h356l5 -105q-8 -7 -26 -14l-16 -6q-12 -4 -16 -17.5t-4 -43.5v-342q0 -68 25.5 -99.5t80.5 -31.5q47 0 73.5 33t26.5 99v339q0 35 -4 47t-17 17l-14 5q-20 8 -30 16l5 103h289l6 -104
q-8 -8 -27 -14l-15 -5q-11 -4 -15 -16.5t-4 -48.5v-338q0 -134 -75.5 -204t-215.5 -70q-170 0 -250 64.5z" />
    <glyph glyph-name="Uacute" unicode="&#xda;" horiz-adv-x="792" 
d="M166 52.5q-80 64.5 -80 198.5v351q0 29 -4.5 42t-15.5 18l-13 6q-22 9 -29 16l4 104h356l5 -105q-8 -7 -26 -14l-16 -6q-12 -4 -16 -17.5t-4 -43.5v-342q0 -68 25.5 -99.5t80.5 -31.5q47 0 73.5 33t26.5 99v339q0 35 -4 47t-17 17l-14 5q-20 8 -30 16l5 103h289l6 -104
q-8 -8 -27 -14l-15 -5q-11 -4 -15 -16.5t-4 -48.5v-338q0 -134 -75.5 -204t-215.5 -70q-170 0 -250 64.5zM259 943l262 157l86 -164l-289 -107z" />
    <glyph glyph-name="Ubreve" unicode="&#x16c;" horiz-adv-x="792" 
d="M166 52.5q-80 64.5 -80 198.5v351q0 29 -4.5 42t-15.5 18l-13 6q-22 9 -29 16l4 104h356l5 -105q-8 -7 -26 -14l-16 -6q-12 -4 -16 -17.5t-4 -43.5v-342q0 -68 25.5 -99.5t80.5 -31.5q47 0 73.5 33t26.5 99v339q0 35 -4 47t-17 17l-14 5q-20 8 -30 16l5 103h289l6 -104
q-8 -8 -27 -14l-15 -5q-11 -4 -15 -16.5t-4 -48.5v-338q0 -134 -75.5 -204t-215.5 -70q-170 0 -250 64.5zM274.5 896.5q-54.5 48.5 -59.5 130.5h157q7 -50 51 -50q22 0 34.5 13.5t15.5 36.5h157q-5 -82 -59 -130.5t-148 -48.5t-148.5 48.5z" />
    <glyph glyph-name="Ucircumflex" unicode="&#xdb;" horiz-adv-x="792" 
d="M166 52.5q-80 64.5 -80 198.5v351q0 29 -4.5 42t-15.5 18l-13 6q-22 9 -29 16l4 104h356l5 -105q-8 -7 -26 -14l-16 -6q-12 -4 -16 -17.5t-4 -43.5v-342q0 -68 25.5 -99.5t80.5 -31.5q47 0 73.5 33t26.5 99v339q0 35 -4 47t-17 17l-14 5q-20 8 -30 16l5 103h289l6 -104
q-8 -8 -27 -14l-15 -5q-11 -4 -15 -16.5t-4 -48.5v-338q0 -134 -75.5 -204t-215.5 -70q-170 0 -250 64.5zM202 915l142 144h156l143 -144l-80 -81l-140 100l-138 -100z" />
    <glyph glyph-name="Udieresis" unicode="&#xdc;" horiz-adv-x="792" 
d="M166 52.5q-80 64.5 -80 198.5v351q0 29 -4.5 42t-15.5 18l-13 6q-22 9 -29 16l4 104h356l5 -105q-8 -7 -26 -14l-16 -6q-12 -4 -16 -17.5t-4 -43.5v-342q0 -68 25.5 -99.5t80.5 -31.5q47 0 73.5 33t26.5 99v339q0 35 -4 47t-17 17l-14 5q-20 8 -30 16l5 103h289l6 -104
q-8 -8 -27 -14l-15 -5q-11 -4 -15 -16.5t-4 -48.5v-338q0 -134 -75.5 -204t-215.5 -70q-170 0 -250 64.5zM226.5 868q-29.5 27 -29.5 68t29.5 68t71.5 27t71 -27t29 -68t-29 -68t-71 -27t-71.5 27zM475.5 868q-29.5 27 -29.5 68t29.5 68t71.5 27t71 -27t29 -68t-29 -68
t-71 -27t-71.5 27z" />
    <glyph glyph-name="Ugrave" unicode="&#xd9;" horiz-adv-x="792" 
d="M166 52.5q-80 64.5 -80 198.5v351q0 29 -4.5 42t-15.5 18l-13 6q-22 9 -29 16l4 104h356l5 -105q-8 -7 -26 -14l-16 -6q-12 -4 -16 -17.5t-4 -43.5v-342q0 -68 25.5 -99.5t80.5 -31.5q47 0 73.5 33t26.5 99v339q0 35 -4 47t-17 17l-14 5q-20 8 -30 16l5 103h289l6 -104
q-8 -8 -27 -14l-15 -5q-11 -4 -15 -16.5t-4 -48.5v-338q0 -134 -75.5 -204t-215.5 -70q-170 0 -250 64.5zM228 936l86 164l262 -157l-59 -114z" />
    <glyph glyph-name="Uhungarumlaut" unicode="&#x170;" horiz-adv-x="792" 
d="M166 52.5q-80 64.5 -80 198.5v351q0 29 -4.5 42t-15.5 18l-13 6q-22 9 -29 16l4 104h356l5 -105q-8 -7 -26 -14l-16 -6q-12 -4 -16 -17.5t-4 -43.5v-342q0 -68 25.5 -99.5t80.5 -31.5q47 0 73.5 33t26.5 99v339q0 35 -4 47t-17 17l-14 5q-20 8 -30 16l5 103h289l6 -104
q-8 -8 -27 -14l-15 -5q-11 -4 -15 -16.5t-4 -48.5v-338q0 -134 -75.5 -204t-215.5 -70q-170 0 -250 64.5zM149 927l189 186l114 -124l-218 -161zM454 927l189 186l114 -124l-218 -161z" />
    <glyph glyph-name="Umacron" unicode="&#x16a;" horiz-adv-x="792" 
d="M166 52.5q-80 64.5 -80 198.5v351q0 29 -4.5 42t-15.5 18l-13 6q-22 9 -29 16l4 104h356l5 -105q-8 -7 -26 -14l-16 -6q-12 -4 -16 -17.5t-4 -43.5v-342q0 -68 25.5 -99.5t80.5 -31.5q47 0 73.5 33t26.5 99v339q0 35 -4 47t-17 17l-14 5q-20 8 -30 16l5 103h289l6 -104
q-8 -8 -27 -14l-15 -5q-11 -4 -15 -16.5t-4 -48.5v-338q0 -134 -75.5 -204t-215.5 -70q-170 0 -250 64.5zM218 1003h410v-137h-410v137z" />
    <glyph glyph-name="Uogonek" unicode="&#x172;" horiz-adv-x="792" 
d="M768 684q-8 -8 -27 -14l-15 -5q-11 -4 -15 -16.5t-4 -48.5v-338q0 -82 -26.5 -135.5t-84.5 -95.5q-55 -40 -73.5 -64t-18.5 -48q0 -12 8 -19.5t19 -7.5q26 0 58 32l54 -82q-25 -27 -65.5 -43t-88.5 -16q-70 0 -109.5 25.5t-39.5 73.5q0 25 18 53t50 53h-10
q-152 0 -232 66.5t-80 196.5v351q0 29 -4.5 42t-15.5 18l-13 6q-3 2 -14 7t-15 9l4 104h356l5 -105q-8 -7 -26 -14l-16 -6q-12 -4 -16 -17.5t-4 -43.5v-342q0 -68 25.5 -99.5t80.5 -31.5q47 0 73.5 33t26.5 99v339q0 35 -4 47t-17 17l-14 5q-20 8 -30 16l5 103h289z" />
    <glyph glyph-name="Uring" unicode="&#x16e;" horiz-adv-x="792" 
d="M166 52.5q-80 64.5 -80 198.5v351q0 29 -4.5 42t-15.5 18l-13 6q-22 9 -29 16l4 104h356l5 -105q-8 -7 -26 -14l-16 -6q-12 -4 -16 -17.5t-4 -43.5v-342q0 -68 25.5 -99.5t80.5 -31.5q47 0 73.5 33t26.5 99v339q0 35 -4 47t-17 17l-14 5q-20 8 -30 16l5 103h289l6 -104
q-8 -8 -27 -14l-15 -5q-11 -4 -15 -16.5t-4 -48.5v-338q0 -134 -75.5 -204t-215.5 -70q-170 0 -250 64.5zM317 859.5q-37 29.5 -37 77.5q0 49 37.5 79t106.5 30q68 0 105.5 -30t37.5 -78q0 -49 -37.5 -78.5t-107.5 -29.5q-68 0 -105 29.5zM448.5 915.5q9.5 8.5 9.5 22.5
q0 15 -9.5 23t-25.5 8q-15 0 -24.5 -8t-9.5 -23q0 -14 9.5 -22.5t25.5 -8.5q15 0 24.5 8.5z" />
    <glyph glyph-name="Utilde" unicode="&#x168;" horiz-adv-x="792" 
d="M166 52.5q-80 64.5 -80 198.5v351q0 29 -4.5 42t-15.5 18l-13 6q-22 9 -29 16l4 104h356l5 -105q-8 -7 -26 -14l-16 -6q-12 -4 -16 -17.5t-4 -43.5v-342q0 -68 25.5 -99.5t80.5 -31.5q47 0 73.5 33t26.5 99v339q0 35 -4 47t-17 17l-14 5q-20 8 -30 16l5 103h289l6 -104
q-8 -8 -27 -14l-15 -5q-11 -4 -15 -16.5t-4 -48.5v-338q0 -134 -75.5 -204t-215.5 -70q-170 0 -250 64.5zM184 910q18 53 63.5 89.5t98.5 36.5q24 0 43.5 -7t44.5 -20q4 -2 16.5 -8t23 -9t19.5 -3q36 0 53 49l112 -64q-14 -57 -55 -96.5t-97 -39.5q-26 0 -46.5 7t-48.5 21
q-19 10 -31 15t-25 5q-37 0 -59 -45z" />
    <glyph glyph-name="V" unicode="V" horiz-adv-x="796" 
d="M785 684q-7 -6 -27 -14l-13 -5q-13 -5 -22.5 -18.5t-20.5 -46.5l-192 -600h-222l-201 616q-7 21 -15.5 30.5t-21.5 15.5l-13 6q-22 10 -29 16l4 104h356l5 -104q-9 -7 -22 -12l-10 -4q-19 -9 -19 -23q0 -7 3 -16l108 -341l101 320q7 21 7 35q0 19 -17 25l-11 4
q-15 5 -25 15l5 101h286z" />
    <glyph glyph-name="W" unicode="W" horiz-adv-x="1052" 
d="M1041 684q-7 -6 -27 -14l-13 -5q-17 -7 -25.5 -18t-16.5 -39l-144 -608h-216l-72 339l-83 -339h-216l-136 602q-6 27 -16.5 40t-25.5 20l-13 6q-22 10 -29 16l4 104h356l5 -104q-9 -7 -20 -12l-10 -4q-9 -4 -13.5 -11t-4.5 -21q0 -6 4 -34l48 -264l95 450h175l91 -465
l56 288q3 15 3 25q0 27 -21 33l-11 4q-15 5 -24 14l5 101h289z" />
    <glyph glyph-name="Wacute" unicode="&#x1e82;" horiz-adv-x="1052" 
d="M1041 684q-7 -6 -27 -14l-13 -5q-17 -7 -25.5 -18t-16.5 -39l-144 -608h-216l-72 339l-83 -339h-216l-136 602q-6 27 -16.5 40t-25.5 20l-13 6q-22 10 -29 16l4 104h356l5 -104q-9 -7 -20 -12l-10 -4q-9 -4 -13.5 -11t-4.5 -21q0 -6 4 -34l48 -264l95 450h175l91 -465
l56 288q3 15 3 25q0 27 -21 33l-11 4q-15 5 -24 14l5 101h289zM398 943l262 157l86 -164l-289 -107z" />
    <glyph glyph-name="Wcircumflex" unicode="&#x174;" horiz-adv-x="1052" 
d="M1041 684q-7 -6 -27 -14l-13 -5q-17 -7 -25.5 -18t-16.5 -39l-144 -608h-216l-72 339l-83 -339h-216l-136 602q-6 27 -16.5 40t-25.5 20l-13 6q-22 10 -29 16l4 104h356l5 -104q-9 -7 -20 -12l-10 -4q-9 -4 -13.5 -11t-4.5 -21q0 -6 4 -34l48 -264l95 450h175l91 -465
l56 288q3 15 3 25q0 27 -21 33l-11 4q-15 5 -24 14l5 101h289zM341 915l142 144h156l143 -144l-80 -81l-140 100l-138 -100z" />
    <glyph glyph-name="Wdieresis" unicode="&#x1e84;" horiz-adv-x="1052" 
d="M1041 684q-7 -6 -27 -14l-13 -5q-17 -7 -25.5 -18t-16.5 -39l-144 -608h-216l-72 339l-83 -339h-216l-136 602q-6 27 -16.5 40t-25.5 20l-13 6q-22 10 -29 16l4 104h356l5 -104q-9 -7 -20 -12l-10 -4q-9 -4 -13.5 -11t-4.5 -21q0 -6 4 -34l48 -264l95 450h175l91 -465
l56 288q3 15 3 25q0 27 -21 33l-11 4q-15 5 -24 14l5 101h289zM365.5 868q-29.5 27 -29.5 68t29.5 68t71.5 27t71 -27t29 -68t-29 -68t-71 -27t-71.5 27zM614.5 868q-29.5 27 -29.5 68t29.5 68t71.5 27t71 -27t29 -68t-29 -68t-71 -27t-71.5 27z" />
    <glyph glyph-name="Wgrave" unicode="&#x1e80;" horiz-adv-x="1052" 
d="M1041 684q-7 -6 -27 -14l-13 -5q-17 -7 -25.5 -18t-16.5 -39l-144 -608h-216l-72 339l-83 -339h-216l-136 602q-6 27 -16.5 40t-25.5 20l-13 6q-22 10 -29 16l4 104h356l5 -104q-9 -7 -20 -12l-10 -4q-9 -4 -13.5 -11t-4.5 -21q0 -6 4 -34l48 -264l95 450h175l91 -465
l56 288q3 15 3 25q0 27 -21 33l-11 4q-15 5 -24 14l5 101h289zM367 936l86 164l262 -157l-59 -114z" />
    <glyph glyph-name="X" unicode="X" horiz-adv-x="774" 
d="M765 104l-9 -104h-364l-5 104q7 5 18 10l9 4q12 5 12 17q0 13 -18 41l-49 77l-49 -74q-10 -16 -16.5 -28.5t-6.5 -19.5q0 -8 10 -13l9 -4q13 -5 21 -13l-5 -101h-307l-6 104q11 7 38 16l17 6q24 9 39.5 20.5t30.5 33.5l135 201l-134 211q-18 27 -33.5 40t-41.5 25l-13 6
q-17 8 -33 21l4 104h359l5 -104q-6 -5 -16 -10l-6 -3q-10 -4 -10 -14t10 -27l56 -94l42 62q30 44 30 59q0 9 -9 13l-9 4q-12 5 -20 13l5 101h296l6 -104q-7 -6 -32 -14l-17 -6q-21 -8 -34.5 -20t-30.5 -36l-134 -202l137 -225q13 -20 25 -30t31 -17l18 -7q29 -12 45 -23z
" />
    <glyph glyph-name="Y" unicode="Y" horiz-adv-x="735" 
d="M737 684q-7 -6 -27 -14l-13 -5q-17 -7 -30 -19.5t-26 -37.5l-144 -315v-99q0 -35 5.5 -48.5t23.5 -20.5l14 -5q19 -6 29 -16l-4 -104h-377l-5 105q14 10 28 15l18 6q12 4 17 9.5t7.5 18.5t2.5 41v82l-164 333q-12 24 -21.5 35t-21.5 16l-13 6q-17 8 -28 17l4 104h356
l5 -104q-9 -7 -22 -12l-10 -4q-19 -9 -19 -27q0 -13 12 -39l71 -145l64 142q17 35 17 53q0 15 -13 18l-9 3q-16 6 -24 14l5 101h286z" />
    <glyph glyph-name="Yacute" unicode="&#xdd;" horiz-adv-x="735" 
d="M737 684q-7 -6 -27 -14l-13 -5q-17 -7 -30 -19.5t-26 -37.5l-144 -315v-99q0 -35 5.5 -48.5t23.5 -20.5l14 -5q19 -6 29 -16l-4 -104h-377l-5 105q14 10 28 15l18 6q12 4 17 9.5t7.5 18.5t2.5 41v82l-164 333q-12 24 -21.5 35t-21.5 16l-13 6q-17 8 -28 17l4 104h356
l5 -104q-9 -7 -22 -12l-10 -4q-19 -9 -19 -27q0 -13 12 -39l71 -145l64 142q17 35 17 53q0 15 -13 18l-9 3q-16 6 -24 14l5 101h286zM225 943l262 157l86 -164l-289 -107z" />
    <glyph glyph-name="Ycircumflex" unicode="&#x176;" horiz-adv-x="735" 
d="M737 684q-7 -6 -27 -14l-13 -5q-17 -7 -30 -19.5t-26 -37.5l-144 -315v-99q0 -35 5.5 -48.5t23.5 -20.5l14 -5q19 -6 29 -16l-4 -104h-377l-5 105q14 10 28 15l18 6q12 4 17 9.5t7.5 18.5t2.5 41v82l-164 333q-12 24 -21.5 35t-21.5 16l-13 6q-17 8 -28 17l4 104h356
l5 -104q-9 -7 -22 -12l-10 -4q-19 -9 -19 -27q0 -13 12 -39l71 -145l64 142q17 35 17 53q0 15 -13 18l-9 3q-16 6 -24 14l5 101h286zM168 915l142 144h156l143 -144l-80 -81l-140 100l-138 -100z" />
    <glyph glyph-name="Ydieresis" unicode="&#x178;" horiz-adv-x="735" 
d="M737 684q-7 -6 -27 -14l-13 -5q-17 -7 -30 -19.5t-26 -37.5l-144 -315v-99q0 -35 5.5 -48.5t23.5 -20.5l14 -5q19 -6 29 -16l-4 -104h-377l-5 105q14 10 28 15l18 6q12 4 17 9.5t7.5 18.5t2.5 41v82l-164 333q-12 24 -21.5 35t-21.5 16l-13 6q-17 8 -28 17l4 104h356
l5 -104q-9 -7 -22 -12l-10 -4q-19 -9 -19 -27q0 -13 12 -39l71 -145l64 142q17 35 17 53q0 15 -13 18l-9 3q-16 6 -24 14l5 101h286zM192.5 868q-29.5 27 -29.5 68t29.5 68t71.5 27t71 -27t29 -68t-29 -68t-71 -27t-71.5 27zM441.5 868q-29.5 27 -29.5 68t29.5 68t71.5 27
t71 -27t29 -68t-29 -68t-71 -27t-71.5 27z" />
    <glyph glyph-name="Ygrave" unicode="&#x1ef2;" horiz-adv-x="735" 
d="M737 684q-7 -6 -27 -14l-13 -5q-17 -7 -30 -19.5t-26 -37.5l-144 -315v-99q0 -35 5.5 -48.5t23.5 -20.5l14 -5q19 -6 29 -16l-4 -104h-377l-5 105q14 10 28 15l18 6q12 4 17 9.5t7.5 18.5t2.5 41v82l-164 333q-12 24 -21.5 35t-21.5 16l-13 6q-17 8 -28 17l4 104h356
l5 -104q-9 -7 -22 -12l-10 -4q-19 -9 -19 -27q0 -13 12 -39l71 -145l64 142q17 35 17 53q0 15 -13 18l-9 3q-16 6 -24 14l5 101h286zM194 936l86 164l262 -157l-59 -114z" />
    <glyph glyph-name="Z" unicode="Z" horiz-adv-x="655" 
d="M630 234v-234h-606v123l320 524h-137q-13 0 -20 -4.5t-11 -15.5l-9 -23q-11 -29 -22 -45h-108v229h590v-123l-320 -524h149q16 0 22.5 4t11.5 15l9 24q15 38 23 50h108z" />
    <glyph glyph-name="Zacute" unicode="&#x179;" horiz-adv-x="655" 
d="M630 234v-234h-606v123l320 524h-137q-13 0 -20 -4.5t-11 -15.5l-9 -23q-11 -29 -22 -45h-108v229h590v-123l-320 -524h149q16 0 22.5 4t11.5 15l9 24q15 38 23 50h108zM185 943l262 157l86 -164l-289 -107z" />
    <glyph glyph-name="Zcaron" unicode="&#x17d;" horiz-adv-x="655" 
d="M630 234v-234h-606v123l320 524h-137q-13 0 -20 -4.5t-11 -15.5l-9 -23q-11 -29 -22 -45h-108v229h590v-123l-320 -524h149q16 0 22.5 4t11.5 15l9 24q15 38 23 50h108zM128 991l80 81l141 -94l138 94l82 -81l-143 -138h-156z" />
    <glyph glyph-name="Zdotaccent" unicode="&#x17b;" horiz-adv-x="655" 
d="M630 234v-234h-606v123l320 524h-137q-13 0 -20 -4.5t-11 -15.5l-9 -23q-11 -29 -22 -45h-108v229h590v-123l-320 -524h149q16 0 22.5 4t11.5 15l9 24q15 38 23 50h108zM268.5 878q-31.5 31 -31.5 78q0 48 31 78t82 30q48 0 79.5 -30t31.5 -78q0 -47 -31.5 -78t-79.5 -31
q-50 0 -81.5 31z" />
    <glyph glyph-name="Cacute.loclPLK" horiz-adv-x="695" 
d="M127.5 89.5q-89.5 101.5 -89.5 302.5q0 133 43.5 225t119.5 137.5t173 45.5q76 0 126 -28l6 -2q4 0 5 7l4 17h141v-268h-171l-4 32q-7 53 -26 77.5t-55 24.5q-50 0 -82 -63t-32 -199q0 -143 33.5 -204.5t93.5 -61.5q84 0 130 145l138 -56q-75 -233 -301 -233
q-163 0 -252.5 101.5zM291 909l130 229l157 -105l-172 -196z" />
    <glyph glyph-name="Nacute.loclPLK" horiz-adv-x="850" 
d="M55 104q8 8 27 14l15 5q11 4 15 16.5t4 48.5v396q0 31 -1.5 44t-8.5 19.5t-24 12.5l-20 7q-15 5 -24 14l5 107h299l248 -417v229q0 35 -4 47t-17 17l-14 5q-20 8 -30 16l5 103h284l6 -104q-7 -8 -27 -14l-15 -5q-11 -4 -15 -16.5t-4 -48.5v-600h-199l-276 459v-271
q0 -35 4 -47t17 -17l14 -5q20 -8 30 -16l-5 -103h-283zM351 909l130 229l157 -105l-172 -196z" />
    <glyph glyph-name="Oacute.loclPLK" horiz-adv-x="755" 
d="M128 86.5q-90 98.5 -90 302.5q0 138 43.5 230t121 136.5t179.5 44.5q154 0 244.5 -101.5t90.5 -303.5q0 -205 -90 -306t-247 -101q-162 0 -252 98.5zM438 156.5q19 27.5 25 83t6 156.5t-6 155.5t-25 81t-56 26.5q-38 0 -58.5 -27t-29 -83t-8.5 -151q0 -98 8.5 -155.5
t29 -85.5t58.5 -28q37 0 56 27.5zM294 909l130 229l157 -105l-172 -196z" />
    <glyph glyph-name="Sacute.loclPLK" horiz-adv-x="684" 
d="M226 27q-2 2 -7 2q-6 0 -7 -11l-1 -18h-163v281h178l2 -36q3 -54 33.5 -84t79.5 -30q30 0 47 17.5t17 45.5q0 21 -10 37t-38 34.5t-84 47.5l-17 9q-77 42 -122.5 79t-68 81.5t-22.5 105.5q0 64 31.5 112t88 74t129.5 26q45 0 81 -7.5t58 -18.5l5 -2q4 0 5 7l2 19h163
v-253h-178l-2 23q-4 45 -21.5 66.5t-55.5 21.5q-30 0 -43.5 -12.5t-13.5 -33.5q0 -18 10 -31t37.5 -29.5t87.5 -46.5l16 -8q79 -39 123 -75.5t63 -81t19 -108.5q0 -71 -34.5 -126.5t-92.5 -85.5t-127 -30q-105 0 -168 39zM249 909l130 229l157 -105l-172 -196z" />
    <glyph glyph-name="Zacute.loclPLK" horiz-adv-x="655" 
d="M630 234v-234h-606v123l320 524h-137q-13 0 -20 -4.5t-11 -15.5l-9 -23q-11 -29 -22 -45h-108v229h590v-123l-320 -524h149q16 0 22.5 4t11.5 15l9 24q15 38 23 50h108zM260 909l130 229l157 -105l-172 -196z" />
    <glyph glyph-name="a" unicode="a" horiz-adv-x="661" 
d="M637 102l-3 -102h-265v73q-17 -37 -57.5 -61t-98.5 -24q-82 0 -131.5 42t-49.5 113q0 50 19.5 83t63 55.5t120.5 40.5l95 21q15 3 20 8.5t5 17.5v25q0 30 -7 46.5t-29 16.5q-24 0 -31.5 -16.5t-7.5 -46.5v-37h-188q-13 0 -20 9q-10 12 -10 41q0 54 35 94.5t94.5 62
t132.5 21.5q261 0 261 -203v-223q0 -23 4 -30.5t14 -11.5l12 -5zM355 241q-12 -7 -33 -13l-15 -5q-20 -7 -33 -22t-13 -39q0 -25 11.5 -37.5t30.5 -12.5q23 0 37.5 18.5t14.5 60.5v50z" />
    <glyph glyph-name="aacute" unicode="&#xe1;" horiz-adv-x="661" 
d="M637 102l-3 -102h-265v73q-17 -37 -57.5 -61t-98.5 -24q-82 0 -131.5 42t-49.5 113q0 50 19.5 83t63 55.5t120.5 40.5l95 21q15 3 20 8.5t5 17.5v25q0 30 -7 46.5t-29 16.5q-24 0 -31.5 -16.5t-7.5 -46.5v-37h-188q-13 0 -20 9q-10 12 -10 41q0 54 35 94.5t94.5 62
t132.5 21.5q261 0 261 -203v-223q0 -23 4 -30.5t14 -11.5l12 -5zM355 241q-12 -7 -33 -13l-15 -5q-20 -7 -33 -22t-13 -39q0 -25 11.5 -37.5t30.5 -12.5q23 0 37.5 18.5t14.5 60.5v50zM200 719l216 178l111 -139l-241 -141z" />
    <glyph glyph-name="abreve" unicode="&#x103;" horiz-adv-x="661" 
d="M637 102l-3 -102h-265v73q-17 -37 -57.5 -61t-98.5 -24q-82 0 -131.5 42t-49.5 113q0 50 19.5 83t63 55.5t120.5 40.5l95 21q15 3 20 8.5t5 17.5v25q0 30 -7 46.5t-29 16.5q-24 0 -31.5 -16.5t-7.5 -46.5v-37h-188q-13 0 -20 9q-10 12 -10 41q0 54 35 94.5t94.5 62
t132.5 21.5q261 0 261 -203v-223q0 -23 4 -30.5t14 -11.5l12 -5zM355 241q-12 -7 -33 -13l-15 -5q-20 -7 -33 -22t-13 -39q0 -25 11.5 -37.5t30.5 -12.5q23 0 37.5 18.5t14.5 60.5v50zM189 675.5q-56 46.5 -59 136.5h143q5 -57 56 -57t56 57h143q-2 -61 -30 -102t-73 -61
t-97 -20q-83 0 -139 46.5z" />
    <glyph glyph-name="uni01CE" unicode="&#x1ce;" horiz-adv-x="661" 
d="M637 102l-3 -102h-265v73q-17 -37 -57.5 -61t-98.5 -24q-82 0 -131.5 42t-49.5 113q0 50 19.5 83t63 55.5t120.5 40.5l95 21q15 3 20 8.5t5 17.5v25q0 30 -7 46.5t-29 16.5q-24 0 -31.5 -16.5t-7.5 -46.5v-37h-188q-13 0 -20 9q-10 12 -10 41q0 54 35 94.5t94.5 62
t132.5 21.5q261 0 261 -203v-223q0 -23 4 -30.5t14 -11.5l12 -5zM355 241q-12 -7 -33 -13l-15 -5q-20 -7 -33 -22t-13 -39q0 -25 11.5 -37.5t30.5 -12.5q23 0 37.5 18.5t14.5 60.5v50zM118 778l84 76l127 -95l128 95l84 -76l-133 -139h-159z" />
    <glyph glyph-name="acircumflex" unicode="&#xe2;" horiz-adv-x="661" 
d="M637 102l-3 -102h-265v73q-17 -37 -57.5 -61t-98.5 -24q-82 0 -131.5 42t-49.5 113q0 50 19.5 83t63 55.5t120.5 40.5l95 21q15 3 20 8.5t5 17.5v25q0 30 -7 46.5t-29 16.5q-24 0 -31.5 -16.5t-7.5 -46.5v-37h-188q-13 0 -20 9q-10 12 -10 41q0 54 35 94.5t94.5 62
t132.5 21.5q261 0 261 -203v-223q0 -23 4 -30.5t14 -11.5l12 -5zM355 241q-12 -7 -33 -13l-15 -5q-20 -7 -33 -22t-13 -39q0 -25 11.5 -37.5t30.5 -12.5q23 0 37.5 18.5t14.5 60.5v50zM118 700l129 139h162l132 -139l-86 -76l-126 95l-124 -95z" />
    <glyph glyph-name="adieresis" unicode="&#xe4;" horiz-adv-x="661" 
d="M637 102l-3 -102h-265v73q-17 -37 -57.5 -61t-98.5 -24q-82 0 -131.5 42t-49.5 113q0 50 19.5 83t63 55.5t120.5 40.5l95 21q15 3 20 8.5t5 17.5v25q0 30 -7 46.5t-29 16.5q-24 0 -31.5 -16.5t-7.5 -46.5v-37h-188q-13 0 -20 9q-10 12 -10 41q0 54 35 94.5t94.5 62
t132.5 21.5q261 0 261 -203v-223q0 -23 4 -30.5t14 -11.5l12 -5zM355 241q-12 -7 -33 -13l-15 -5q-20 -7 -33 -22t-13 -39q0 -25 11.5 -37.5t30.5 -12.5q23 0 37.5 18.5t14.5 60.5v50zM145 663.5q-28 28.5 -28 67.5t28 67.5t67 28.5t67 -28.5t28 -67.5t-28 -67.5t-67 -28.5
t-67 28.5zM379 663.5q-28 28.5 -28 67.5t28 67.5t67 28.5t67 -28.5t28 -67.5t-28 -67.5t-67 -28.5t-67 28.5z" />
    <glyph glyph-name="agrave" unicode="&#xe0;" horiz-adv-x="661" 
d="M637 102l-3 -102h-265v73q-17 -37 -57.5 -61t-98.5 -24q-82 0 -131.5 42t-49.5 113q0 50 19.5 83t63 55.5t120.5 40.5l95 21q15 3 20 8.5t5 17.5v25q0 30 -7 46.5t-29 16.5q-24 0 -31.5 -16.5t-7.5 -46.5v-37h-188q-13 0 -20 9q-10 12 -10 41q0 54 35 94.5t94.5 62
t132.5 21.5q261 0 261 -203v-223q0 -23 4 -30.5t14 -11.5l12 -5zM355 241q-12 -7 -33 -13l-15 -5q-20 -7 -33 -22t-13 -39q0 -25 11.5 -37.5t30.5 -12.5q23 0 37.5 18.5t14.5 60.5v50zM137 758l111 139l216 -178l-86 -102z" />
    <glyph glyph-name="amacron" unicode="&#x101;" horiz-adv-x="661" 
d="M637 102l-3 -102h-265v73q-17 -37 -57.5 -61t-98.5 -24q-82 0 -131.5 42t-49.5 113q0 50 19.5 83t63 55.5t120.5 40.5l95 21q15 3 20 8.5t5 17.5v25q0 30 -7 46.5t-29 16.5q-24 0 -31.5 -16.5t-7.5 -46.5v-37h-188q-13 0 -20 9q-10 12 -10 41q0 54 35 94.5t94.5 62
t132.5 21.5q261 0 261 -203v-223q0 -23 4 -30.5t14 -11.5l12 -5zM355 241q-12 -7 -33 -13l-15 -5q-20 -7 -33 -22t-13 -39q0 -25 11.5 -37.5t30.5 -12.5q23 0 37.5 18.5t14.5 60.5v50zM124 784h410v-136h-410v136z" />
    <glyph glyph-name="aogonek" unicode="&#x105;" horiz-adv-x="661" 
d="M668 -158q-25 -27 -67 -43t-90 -16q-70 0 -108 26t-38 77q0 34 23.5 64t65.5 50q-68 15 -84 77q-15 -39 -56 -64t-101 -25q-82 0 -131.5 42t-49.5 113q0 50 19.5 83t63 55.5t120.5 40.5l95 21q15 3 20 8.5t5 17.5v25q0 30 -7 46.5t-29 16.5q-24 0 -31.5 -16.5t-7.5 -46.5
v-37h-188q-14 0 -21 11q-9 12 -9 39q0 54 35 94.5t94.5 62t132.5 21.5q261 0 261 -203v-225q0 -22 4 -31t14 -12l12 -4q11 -3 21 -10l-2 -100h-5q-37 0 -68 -25t-31 -56q0 -12 7 -20t17 -8q27 0 60 33zM355 241q-12 -7 -33 -13l-15 -5q-20 -7 -33 -22t-13 -39
q0 -25 11.5 -37.5t30.5 -12.5q23 0 37.5 18.5t14.5 60.5v50z" />
    <glyph glyph-name="aring" unicode="&#xe5;" horiz-adv-x="661" 
d="M637 102l-3 -102h-265v73q-17 -37 -57.5 -61t-98.5 -24q-82 0 -131.5 42t-49.5 113q0 50 19.5 83t63 55.5t120.5 40.5l95 21q15 3 20 8.5t5 17.5v25q0 30 -7 46.5t-29 16.5q-24 0 -31.5 -16.5t-7.5 -46.5v-37h-188q-13 0 -20 9q-10 12 -10 41q0 54 35 94.5t94.5 62
t132.5 21.5q261 0 261 -203v-223q0 -23 4 -30.5t14 -11.5l12 -5zM355 241q-12 -7 -33 -13l-15 -5q-20 -7 -33 -22t-13 -39q0 -25 11.5 -37.5t30.5 -12.5q23 0 37.5 18.5t14.5 60.5v50zM233 642.5q-40 29.5 -40 81.5q0 50 39.5 80.5t97.5 30.5q54 0 95 -29.5t41 -80.5
t-40 -81.5t-98 -30.5q-55 0 -95 29.5zM353.5 699q9.5 10 9.5 25q0 16 -10 25.5t-24 9.5q-15 0 -24.5 -9.5t-9.5 -25.5q0 -15 10.5 -25t24.5 -10t23.5 10z" />
    <glyph glyph-name="atilde" unicode="&#xe3;" horiz-adv-x="661" 
d="M637 102l-3 -102h-265v73q-17 -37 -57.5 -61t-98.5 -24q-82 0 -131.5 42t-49.5 113q0 50 19.5 83t63 55.5t120.5 40.5l95 21q15 3 20 8.5t5 17.5v25q0 30 -7 46.5t-29 16.5q-24 0 -31.5 -16.5t-7.5 -46.5v-37h-188q-13 0 -20 9q-10 12 -10 41q0 54 35 94.5t94.5 62
t132.5 21.5q261 0 261 -203v-223q0 -23 4 -30.5t14 -11.5l12 -5zM355 241q-12 -7 -33 -13l-15 -5q-20 -7 -33 -22t-13 -39q0 -25 11.5 -37.5t30.5 -12.5q23 0 37.5 18.5t14.5 60.5v50zM96 684q16 65 58.5 104.5t95.5 39.5q26 0 46.5 -8.5t51.5 -26.5q19 -12 32.5 -18
t26.5 -6q38 0 55 53l103 -61q-17 -58 -60 -96t-93 -38q-29 0 -50.5 9t-46.5 25q-18 11 -30 16.5t-25 5.5q-23 0 -39 -18t-22 -42z" />
    <glyph glyph-name="ae" unicode="&#xe6;" horiz-adv-x="965" 
d="M89 31.5q-57 43.5 -57 115.5q0 47 19.5 79.5t64.5 56t124 40.5l86 19q18 4 23.5 9t5.5 19v31q0 30 -8.5 43t-28.5 13q-38 0 -38 -55v-45h-184q-18 0 -25 11q-9 12 -9 39q0 50 31.5 90.5t90.5 64t137 23.5q105 0 164 -61q36 29 81.5 45t90.5 16q77 0 134 -32t93 -89
q15 -24 27 -54t12 -49q0 -27 -27 -40q-60 -30 -141.5 -61t-148.5 -51q-14 -5 -11 -17q5 -26 27 -43t66 -17q35 0 78.5 22.5t74.5 59.5l77 -99q-45 -59 -112 -93t-149 -34q-67 0 -122 27t-84 70q-32 -45 -84.5 -71t-123.5 -26q-97 0 -154 43.5zM682 355q12 5 17 10t5 13
q0 20 -12 44q-10 21 -25.5 32t-32.5 11q-29 0 -46.5 -22t-17.5 -68q0 -26 4 -38t16 -12q22 0 92 30zM340.5 130.5q14.5 18.5 14.5 60.5v50q-12 -7 -33 -13l-15 -5q-20 -7 -33 -22t-13 -39q0 -25 11.5 -37.5t30.5 -12.5q23 0 37.5 18.5z" />
    <glyph glyph-name="aeacute" unicode="&#x1fd;" horiz-adv-x="965" 
d="M89 31.5q-57 43.5 -57 115.5q0 47 19.5 79.5t64.5 56t124 40.5l86 19q18 4 23.5 9t5.5 19v31q0 30 -8.5 43t-28.5 13q-38 0 -38 -55v-45h-184q-18 0 -25 11q-9 12 -9 39q0 50 31.5 90.5t90.5 64t137 23.5q105 0 164 -61q36 29 81.5 45t90.5 16q77 0 134 -32t93 -89
q15 -24 27 -54t12 -49q0 -27 -27 -40q-60 -30 -141.5 -61t-148.5 -51q-14 -5 -11 -17q5 -26 27 -43t66 -17q35 0 78.5 22.5t74.5 59.5l77 -99q-45 -59 -112 -93t-149 -34q-67 0 -122 27t-84 70q-32 -45 -84.5 -71t-123.5 -26q-97 0 -154 43.5zM682 355q12 5 17 10t5 13
q0 20 -12 44q-10 21 -25.5 32t-32.5 11q-29 0 -46.5 -22t-17.5 -68q0 -26 4 -38t16 -12q22 0 92 30zM340.5 130.5q14.5 18.5 14.5 60.5v50q-12 -7 -33 -13l-15 -5q-20 -7 -33 -22t-13 -39q0 -25 11.5 -37.5t30.5 -12.5q23 0 37.5 18.5zM366 719l216 178l111 -139l-241 -141z
" />
    <glyph glyph-name="b" unicode="b" horiz-adv-x="691" 
d="M608 505q55 -80 55 -217q0 -90 -29 -158t-81 -105t-121 -37q-114 0 -164 86v-74h-248l-3 103q12 6 30 12l12 4q18 6 23.5 15t5.5 31v462q0 19 -5.5 29.5t-22.5 16.5l-15 5q-15 5 -27 13l3 97h297v-261q52 58 138 58q97 0 152 -80zM415 160q13 40 13 126q0 87 -12 124.5
t-41 37.5q-33 0 -46 -37.5t-13 -124.5q0 -88 12.5 -127t44.5 -39q29 0 42 40z" />
    <glyph glyph-name="c" unicode="c" horiz-adv-x="590" 
d="M105.5 65.5q-77.5 77.5 -77.5 225.5q0 91 34.5 157.5t96.5 101.5t141 35q59 0 99 -22q5 -3 8 -3q5 0 6 9l2 13h132v-234h-147l-2 24q-4 47 -19 67t-43 20q-40 0 -57 -39.5t-17 -119.5q0 -97 25 -137.5t75 -40.5q31 0 59.5 18.5t59.5 56.5l85 -86q-43 -60 -104 -91.5
t-146 -31.5q-133 0 -210.5 77.5z" />
    <glyph glyph-name="cacute" unicode="&#x107;" horiz-adv-x="590" 
d="M105.5 65.5q-77.5 77.5 -77.5 225.5q0 91 34.5 157.5t96.5 101.5t141 35q59 0 99 -22q5 -3 8 -3q5 0 6 9l2 13h132v-234h-147l-2 24q-4 47 -19 67t-43 20q-40 0 -57 -39.5t-17 -119.5q0 -97 25 -137.5t75 -40.5q31 0 59.5 18.5t59.5 56.5l85 -86q-43 -60 -104 -91.5
t-146 -31.5q-133 0 -210.5 77.5zM181 719l216 178l111 -139l-241 -141z" />
    <glyph glyph-name="ccaron" unicode="&#x10d;" horiz-adv-x="590" 
d="M105.5 65.5q-77.5 77.5 -77.5 225.5q0 91 34.5 157.5t96.5 101.5t141 35q59 0 99 -22q5 -3 8 -3q5 0 6 9l2 13h132v-234h-147l-2 24q-4 47 -19 67t-43 20q-40 0 -57 -39.5t-17 -119.5q0 -97 25 -137.5t75 -40.5q31 0 59.5 18.5t59.5 56.5l85 -86q-43 -60 -104 -91.5
t-146 -31.5q-133 0 -210.5 77.5zM99 778l84 76l127 -95l128 95l84 -76l-133 -139h-159z" />
    <glyph glyph-name="ccedilla" unicode="&#xe7;" horiz-adv-x="590" 
d="M105.5 65.5q-77.5 77.5 -77.5 225.5q0 91 34.5 157.5t96.5 101.5t141 35q59 0 99 -22q5 -3 8 -3q5 0 6 9l2 13h132v-234h-147l-2 24q-4 47 -19 67t-43 20q-40 0 -57 -39.5t-17 -119.5q0 -97 25 -137.5t75 -40.5q31 0 59.5 18.5t59.5 56.5l85 -86q-43 -60 -104 -91.5
t-146 -31.5q-133 0 -210.5 77.5zM225 -216.5q-39 10.5 -62 26.5l30 83q15 -11 38 -19.5t42 -8.5q18 0 27 6.5t9 16.5q0 16 -20 24.5t-64 12.5l35 77h94l-13 -27q54 -7 84.5 -33t30.5 -67q0 -46 -40 -74t-108 -28q-44 0 -83 10.5z" />
    <glyph glyph-name="ccircumflex" unicode="&#x109;" horiz-adv-x="590" 
d="M105.5 65.5q-77.5 77.5 -77.5 225.5q0 91 34.5 157.5t96.5 101.5t141 35q59 0 99 -22q5 -3 8 -3q5 0 6 9l2 13h132v-234h-147l-2 24q-4 47 -19 67t-43 20q-40 0 -57 -39.5t-17 -119.5q0 -97 25 -137.5t75 -40.5q31 0 59.5 18.5t59.5 56.5l85 -86q-43 -60 -104 -91.5
t-146 -31.5q-133 0 -210.5 77.5zM99 700l129 139h162l132 -139l-86 -76l-126 95l-124 -95z" />
    <glyph glyph-name="cdotaccent" unicode="&#x10b;" horiz-adv-x="590" 
d="M105.5 65.5q-77.5 77.5 -77.5 225.5q0 91 34.5 157.5t96.5 101.5t141 35q59 0 99 -22q5 -3 8 -3q5 0 6 9l2 13h132v-234h-147l-2 24q-4 47 -19 67t-43 20q-40 0 -57 -39.5t-17 -119.5q0 -97 25 -137.5t75 -40.5q31 0 59.5 18.5t59.5 56.5l85 -86q-43 -60 -104 -91.5
t-146 -31.5q-133 0 -210.5 77.5zM233.5 663q-31.5 32 -31.5 77q0 46 31.5 77t76.5 31q43 0 75.5 -31.5t32.5 -76.5t-32.5 -77t-75.5 -32q-45 0 -76.5 32z" />
    <glyph glyph-name="d" unicode="d" horiz-adv-x="669" 
d="M657 102l-3 -102h-248v75q-49 -87 -157 -87q-103 0 -162 78.5t-59 220.5q0 95 28.5 162t77.5 101.5t110 34.5q77 0 129 -54v95q0 22 -6.5 32t-22.5 15l-12 4q-19 6 -29 13l3 98h297v-622q0 -23 4.5 -33t14.5 -13l12 -4q15 -5 23 -14zM362 160.5q13 40.5 13 126.5
q0 90 -12 125.5t-41 35.5q-31 0 -45 -36t-14 -124q0 -89 12.5 -128.5t44.5 -39.5q29 0 42 40.5z" />
    <glyph glyph-name="eth" unicode="&#xf0;" horiz-adv-x="637" 
d="M572 521.5q37 -94.5 37 -209.5q0 -95 -35 -168.5t-102.5 -114.5t-160.5 -41q-138 0 -210.5 76.5t-72.5 209.5q0 86 30 152t85 102t128 36q55 0 100 -33q-18 54 -50 98l-80 -42l-52 101l52 27q-20 19 -57 48l124 66q34 -21 67 -48l97 51l56 -101l-69 -33
q76 -82 113 -176.5zM362 154.5q13 40.5 13 122.5q0 87 -11.5 121.5t-42.5 34.5q-34 0 -46 -40.5t-12 -116.5q0 -85 11.5 -123.5t44.5 -38.5q30 0 43 40.5z" />
    <glyph glyph-name="dcaron" unicode="&#x10f;" horiz-adv-x="669" 
d="M657 102l-3 -102h-248v75q-49 -87 -157 -87q-103 0 -162 78.5t-59 220.5q0 95 28.5 162t77.5 101.5t110 34.5q77 0 129 -54v95q0 22 -6.5 32t-22.5 15l-12 4q-19 6 -29 13l3 98h297v-622q0 -23 4.5 -33t14.5 -13l12 -4q15 -5 23 -14zM362 160.5q13 40.5 13 126.5
q0 90 -12 125.5t-41 35.5q-31 0 -45 -36t-14 -124q0 -89 12.5 -128.5t44.5 -39.5q29 0 42 40.5zM637 577q26 15 42 31.5t16 30.5q0 8 -4 14.5t-12 15.5q-13 14 -19.5 26.5t-6.5 33.5q0 32 24 52.5t64 20.5q49 0 75 -28t26 -81q0 -44 -33.5 -95t-84.5 -83z" />
    <glyph glyph-name="dcroat" unicode="&#x111;" horiz-adv-x="674" 
d="M657 102l-3 -102h-248v86q-25 -48 -65.5 -73t-91.5 -25q-103 0 -162 78.5t-59 220.5q0 95 28.5 162t77.5 101.5t110 34.5q80 0 129 -54v65h-91v70h89q-3 10 -9.5 16t-17.5 10l-12 4q-19 6 -29 13l3 79h297v-122h37v-70h-37v-430q0 -23 4.5 -33t14.5 -13l12 -4
q15 -5 23 -14zM362 160.5q13 40.5 13 126.5q0 90 -12 125.5t-41 35.5q-31 0 -45 -36t-14 -124q0 -89 12.5 -128.5t44.5 -39.5q29 0 42 40.5z" />
    <glyph glyph-name="e" unicode="e" horiz-adv-x="640" 
d="M173.5 24.5q-68.5 36.5 -107 104.5t-38.5 159q0 89 38 156.5t104 104t148 36.5q83 0 141 -30.5t99 -88.5q16 -23 28 -54.5t12 -50.5q0 -27 -25 -40q-48 -24 -140 -59.5t-154 -53.5q-9 -3 -9 -13q0 -5 1 -8q15 -55 90 -55q36 0 78.5 21.5t76.5 60.5l77 -99
q-44 -59 -111.5 -93t-151.5 -34q-88 0 -156.5 36.5zM357 355q12 5 17 10t5 13q0 20 -12 44q-10 21 -25.5 32t-32.5 11q-29 0 -46.5 -22t-17.5 -68q0 -26 4 -38t16 -12q22 0 92 30z" />
    <glyph glyph-name="eacute" unicode="&#xe9;" horiz-adv-x="640" 
d="M173.5 24.5q-68.5 36.5 -107 104.5t-38.5 159q0 89 38 156.5t104 104t148 36.5q83 0 141 -30.5t99 -88.5q16 -23 28 -54.5t12 -50.5q0 -27 -25 -40q-48 -24 -140 -59.5t-154 -53.5q-9 -3 -9 -13q0 -5 1 -8q15 -55 90 -55q36 0 78.5 21.5t76.5 60.5l77 -99
q-44 -59 -111.5 -93t-151.5 -34q-88 0 -156.5 36.5zM357 355q12 5 17 10t5 13q0 20 -12 44q-10 21 -25.5 32t-32.5 11q-29 0 -46.5 -22t-17.5 -68q0 -26 4 -38t16 -12q22 0 92 30zM180 719l216 178l111 -139l-241 -141z" />
    <glyph glyph-name="ebreve" unicode="&#x115;" horiz-adv-x="640" 
d="M173.5 24.5q-68.5 36.5 -107 104.5t-38.5 159q0 89 38 156.5t104 104t148 36.5q83 0 141 -30.5t99 -88.5q16 -23 28 -54.5t12 -50.5q0 -27 -25 -40q-48 -24 -140 -59.5t-154 -53.5q-9 -3 -9 -13q0 -5 1 -8q15 -55 90 -55q36 0 78.5 21.5t76.5 60.5l77 -99
q-44 -59 -111.5 -93t-151.5 -34q-88 0 -156.5 36.5zM357 355q12 5 17 10t5 13q0 20 -12 44q-10 21 -25.5 32t-32.5 11q-29 0 -46.5 -22t-17.5 -68q0 -26 4 -38t16 -12q22 0 92 30zM169 675.5q-56 46.5 -59 136.5h143q5 -57 56 -57t56 57h143q-2 -61 -30 -102t-73 -61
t-97 -20q-83 0 -139 46.5z" />
    <glyph glyph-name="ecaron" unicode="&#x11b;" horiz-adv-x="640" 
d="M173.5 24.5q-68.5 36.5 -107 104.5t-38.5 159q0 89 38 156.5t104 104t148 36.5q83 0 141 -30.5t99 -88.5q16 -23 28 -54.5t12 -50.5q0 -27 -25 -40q-48 -24 -140 -59.5t-154 -53.5q-9 -3 -9 -13q0 -5 1 -8q15 -55 90 -55q36 0 78.5 21.5t76.5 60.5l77 -99
q-44 -59 -111.5 -93t-151.5 -34q-88 0 -156.5 36.5zM357 355q12 5 17 10t5 13q0 20 -12 44q-10 21 -25.5 32t-32.5 11q-29 0 -46.5 -22t-17.5 -68q0 -26 4 -38t16 -12q22 0 92 30zM98 778l84 76l127 -95l128 95l84 -76l-133 -139h-159z" />
    <glyph glyph-name="ecircumflex" unicode="&#xea;" horiz-adv-x="640" 
d="M173.5 24.5q-68.5 36.5 -107 104.5t-38.5 159q0 89 38 156.5t104 104t148 36.5q83 0 141 -30.5t99 -88.5q16 -23 28 -54.5t12 -50.5q0 -27 -25 -40q-48 -24 -140 -59.5t-154 -53.5q-9 -3 -9 -13q0 -5 1 -8q15 -55 90 -55q36 0 78.5 21.5t76.5 60.5l77 -99
q-44 -59 -111.5 -93t-151.5 -34q-88 0 -156.5 36.5zM357 355q12 5 17 10t5 13q0 20 -12 44q-10 21 -25.5 32t-32.5 11q-29 0 -46.5 -22t-17.5 -68q0 -26 4 -38t16 -12q22 0 92 30zM98 700l129 139h162l132 -139l-86 -76l-126 95l-124 -95z" />
    <glyph glyph-name="edieresis" unicode="&#xeb;" horiz-adv-x="640" 
d="M173.5 24.5q-68.5 36.5 -107 104.5t-38.5 159q0 89 38 156.5t104 104t148 36.5q83 0 141 -30.5t99 -88.5q16 -23 28 -54.5t12 -50.5q0 -27 -25 -40q-48 -24 -140 -59.5t-154 -53.5q-9 -3 -9 -13q0 -5 1 -8q15 -55 90 -55q36 0 78.5 21.5t76.5 60.5l77 -99
q-44 -59 -111.5 -93t-151.5 -34q-88 0 -156.5 36.5zM357 355q12 5 17 10t5 13q0 20 -12 44q-10 21 -25.5 32t-32.5 11q-29 0 -46.5 -22t-17.5 -68q0 -26 4 -38t16 -12q22 0 92 30zM125 663.5q-28 28.5 -28 67.5t28 67.5t67 28.5t67 -28.5t28 -67.5t-28 -67.5t-67 -28.5
t-67 28.5zM359 663.5q-28 28.5 -28 67.5t28 67.5t67 28.5t67 -28.5t28 -67.5t-28 -67.5t-67 -28.5t-67 28.5z" />
    <glyph glyph-name="edotaccent" unicode="&#x117;" horiz-adv-x="640" 
d="M173.5 24.5q-68.5 36.5 -107 104.5t-38.5 159q0 89 38 156.5t104 104t148 36.5q83 0 141 -30.5t99 -88.5q16 -23 28 -54.5t12 -50.5q0 -27 -25 -40q-48 -24 -140 -59.5t-154 -53.5q-9 -3 -9 -13q0 -5 1 -8q15 -55 90 -55q36 0 78.5 21.5t76.5 60.5l77 -99
q-44 -59 -111.5 -93t-151.5 -34q-88 0 -156.5 36.5zM357 355q12 5 17 10t5 13q0 20 -12 44q-10 21 -25.5 32t-32.5 11q-29 0 -46.5 -22t-17.5 -68q0 -26 4 -38t16 -12q22 0 92 30zM232.5 663q-31.5 32 -31.5 77q0 46 31.5 77t76.5 31q43 0 75.5 -31.5t32.5 -76.5t-32.5 -77
t-75.5 -32q-45 0 -76.5 32z" />
    <glyph glyph-name="egrave" unicode="&#xe8;" horiz-adv-x="640" 
d="M173.5 24.5q-68.5 36.5 -107 104.5t-38.5 159q0 89 38 156.5t104 104t148 36.5q83 0 141 -30.5t99 -88.5q16 -23 28 -54.5t12 -50.5q0 -27 -25 -40q-48 -24 -140 -59.5t-154 -53.5q-9 -3 -9 -13q0 -5 1 -8q15 -55 90 -55q36 0 78.5 21.5t76.5 60.5l77 -99
q-44 -59 -111.5 -93t-151.5 -34q-88 0 -156.5 36.5zM357 355q12 5 17 10t5 13q0 20 -12 44q-10 21 -25.5 32t-32.5 11q-29 0 -46.5 -22t-17.5 -68q0 -26 4 -38t16 -12q22 0 92 30zM117 758l111 139l216 -178l-86 -102z" />
    <glyph glyph-name="emacron" unicode="&#x113;" horiz-adv-x="640" 
d="M173.5 24.5q-68.5 36.5 -107 104.5t-38.5 159q0 89 38 156.5t104 104t148 36.5q83 0 141 -30.5t99 -88.5q16 -23 28 -54.5t12 -50.5q0 -27 -25 -40q-48 -24 -140 -59.5t-154 -53.5q-9 -3 -9 -13q0 -5 1 -8q15 -55 90 -55q36 0 78.5 21.5t76.5 60.5l77 -99
q-44 -59 -111.5 -93t-151.5 -34q-88 0 -156.5 36.5zM357 355q12 5 17 10t5 13q0 20 -12 44q-10 21 -25.5 32t-32.5 11q-29 0 -46.5 -22t-17.5 -68q0 -26 4 -38t16 -12q22 0 92 30zM104 784h410v-136h-410v136z" />
    <glyph glyph-name="eogonek" unicode="&#x119;" horiz-adv-x="640" 
d="M334.5 -191.5q-39.5 25.5 -39.5 73.5q0 30 18.5 58t50.5 51q-18 -3 -38 -3q-87 0 -154.5 36.5t-105.5 104.5t-38 159q0 89 38 156.5t104 104t148 36.5q83 0 141 -30.5t99 -88.5q16 -23 28 -54.5t12 -50.5q0 -27 -25 -40q-48 -24 -140 -59.5t-154 -53.5q-9 -3 -9 -13
q0 -5 1 -8q15 -55 90 -55q36 0 78.5 21.5t76.5 60.5l77 -99q-13 -19 -33.5 -39.5t-40.5 -35.5q-69 -52 -69 -108q0 -20 10.5 -30t25.5 -10t30.5 9t27.5 23l54 -82q-27 -26 -67.5 -42.5t-86.5 -16.5q-70 0 -109.5 25.5zM357 355q12 5 17 10t5 13q0 20 -12 44q-10 21 -25.5 32
t-32.5 11q-29 0 -46.5 -22t-17.5 -68q0 -26 4 -38t16 -12q22 0 92 30z" />
    <glyph glyph-name="f" unicode="f" horiz-adv-x="474" 
d="M34 103q10 6 29 12l14 5q12 4 16.5 12.5t4.5 34.5v268h-80v138h80v34q0 99 56.5 146t175.5 47q107 0 164.5 -36t57.5 -108v-8q0 -17 -6 -23q-5 -5 -10.5 -6.5t-15.5 -1.5h-154v25q0 23 -4 31t-14 8q-11 0 -15.5 -9t-4.5 -31v-68h116v-138h-116v-268q0 -22 6.5 -31.5
t19.5 -14.5l15 -6q23 -8 29 -12l-3 -103h-358z" />
    <glyph glyph-name="g" unicode="g" horiz-adv-x="690" 
d="M660 447h-88q29 -51 29 -108q0 -60 -28.5 -113t-78.5 -83q70 -16 109.5 -56t39.5 -97q0 -60 -36 -108.5t-105.5 -77t-167.5 -28.5q-310 0 -310 192v3q0 19 8 27t24 8h173l3 -20q6 -43 29 -64.5t66 -21.5q39 0 63.5 24t24.5 63q0 40 -25 64.5t-72 27.5l-16 1
q-272 17 -272 257q0 114 74 181t210 67q52 0 91 -12h255v-126zM358 231.5q11 29.5 11 100.5q0 73 -11.5 101t-40.5 28t-42 -28.5t-13 -100.5q0 -71 13.5 -100.5t43.5 -29.5q28 0 39 29.5z" />
    <glyph glyph-name="gbreve" unicode="&#x11f;" horiz-adv-x="690" 
d="M660 447h-88q29 -51 29 -108q0 -60 -28.5 -113t-78.5 -83q70 -16 109.5 -56t39.5 -97q0 -60 -36 -108.5t-105.5 -77t-167.5 -28.5q-310 0 -310 192v3q0 19 8 27t24 8h173l3 -20q6 -43 29 -64.5t66 -21.5q39 0 63.5 24t24.5 63q0 40 -25 64.5t-72 27.5l-16 1
q-272 17 -272 257q0 114 74 181t210 67q52 0 91 -12h255v-126zM358 231.5q11 29.5 11 100.5q0 73 -11.5 101t-40.5 28t-42 -28.5t-13 -100.5q0 -71 13.5 -100.5t43.5 -29.5q28 0 39 29.5zM186 675.5q-56 46.5 -59 136.5h143q5 -57 56 -57t56 57h143q-2 -61 -30 -102t-73 -61
t-97 -20q-83 0 -139 46.5z" />
    <glyph glyph-name="gcircumflex" unicode="&#x11d;" horiz-adv-x="690" 
d="M660 447h-88q29 -51 29 -108q0 -60 -28.5 -113t-78.5 -83q70 -16 109.5 -56t39.5 -97q0 -60 -36 -108.5t-105.5 -77t-167.5 -28.5q-310 0 -310 192v3q0 19 8 27t24 8h173l3 -20q6 -43 29 -64.5t66 -21.5q39 0 63.5 24t24.5 63q0 40 -25 64.5t-72 27.5l-16 1
q-272 17 -272 257q0 114 74 181t210 67q52 0 91 -12h255v-126zM358 231.5q11 29.5 11 100.5q0 73 -11.5 101t-40.5 28t-42 -28.5t-13 -100.5q0 -71 13.5 -100.5t43.5 -29.5q28 0 39 29.5zM115 700l129 139h162l132 -139l-86 -76l-126 95l-124 -95z" />
    <glyph glyph-name="gcommaaccent" unicode="&#x123;" horiz-adv-x="690" 
d="M660 447h-88q29 -51 29 -108q0 -60 -28.5 -113t-78.5 -83q70 -16 109.5 -56t39.5 -97q0 -60 -36 -108.5t-105.5 -77t-167.5 -28.5q-310 0 -310 192v3q0 19 8 27t24 8h173l3 -20q6 -43 29 -64.5t66 -21.5q39 0 63.5 24t24.5 63q0 40 -25 64.5t-72 27.5l-16 1
q-272 17 -272 257q0 114 74 181t210 67q52 0 91 -12h255v-126zM358 231.5q11 29.5 11 100.5q0 73 -11.5 101t-40.5 28t-42 -28.5t-13 -100.5q0 -71 13.5 -100.5t43.5 -29.5q28 0 39 29.5zM433 864q-61 -41 -61 -65q0 -8 4 -14t13 -15q14 -14 21 -26.5t7 -34.5
q0 -34 -26.5 -56t-67.5 -22q-49 0 -80 33t-31 82t36.5 99.5t93.5 83.5z" />
    <glyph glyph-name="gdotaccent" unicode="&#x121;" horiz-adv-x="690" 
d="M660 447h-88q29 -51 29 -108q0 -60 -28.5 -113t-78.5 -83q70 -16 109.5 -56t39.5 -97q0 -60 -36 -108.5t-105.5 -77t-167.5 -28.5q-310 0 -310 192v3q0 19 8 27t24 8h173l3 -20q6 -43 29 -64.5t66 -21.5q39 0 63.5 24t24.5 63q0 40 -25 64.5t-72 27.5l-16 1
q-272 17 -272 257q0 114 74 181t210 67q52 0 91 -12h255v-126zM358 231.5q11 29.5 11 100.5q0 73 -11.5 101t-40.5 28t-42 -28.5t-13 -100.5q0 -71 13.5 -100.5t43.5 -29.5q28 0 39 29.5zM249.5 663q-31.5 32 -31.5 77q0 46 31.5 77t76.5 31q43 0 75.5 -31.5t32.5 -76.5
t-32.5 -77t-75.5 -32q-45 0 -76.5 32z" />
    <glyph glyph-name="h" unicode="h" horiz-adv-x="719" 
d="M695 102l-3 -102h-283v350q0 43 -9 63t-34 20q-19 0 -29.5 -10t-14.5 -34t-4 -69v-153q0 -23 4 -32t17 -14l15 -6q17 -6 25 -12l-3 -103h-356l-3 103q10 6 29 12l14 5q16 5 22 13.5t6 33.5v459q0 19 -5.5 30t-20.5 16l-15 5q-20 6 -29 13l3 98h297v-273q64 70 155 70
q81 0 123.5 -50.5t42.5 -141.5v-227q0 -23 4 -33.5t16 -14.5l10 -4q16 -6 26 -12z" />
    <glyph glyph-name="hbar" unicode="&#x127;" horiz-adv-x="719" 
d="M695 102l-3 -102h-283v350q0 43 -9 63t-34 20q-19 0 -29.5 -10t-14.5 -34t-4 -69v-153q0 -23 4 -32t17 -14l15 -6q17 -6 25 -12l-3 -103h-356l-3 103q10 6 29 12l14 5q16 5 22 13.5t6 33.5v428h-76v70h74q-4 19 -24 26l-15 5q-21 7 -29 13l3 79h297v-123h52v-70h-52v-80
q64 70 155 70q81 0 123.5 -50.5t42.5 -141.5v-227q0 -23 4 -33.5t16 -14.5l10 -4q16 -6 26 -12z" />
    <glyph glyph-name="hcircumflex" unicode="&#x125;" horiz-adv-x="719" 
d="M695 102l-3 -102h-283v350q0 43 -9 63t-34 20q-19 0 -29.5 -10t-14.5 -34t-4 -69v-153q0 -23 4 -32t17 -14l15 -6q17 -6 25 -12l-3 -103h-356l-3 103q10 6 29 12l14 5q16 5 22 13.5t6 33.5v459q0 19 -5.5 30t-20.5 16l-15 5q-20 6 -29 13l3 98h297v-273q64 70 155 70
q81 0 123.5 -50.5t42.5 -141.5v-227q0 -23 4 -33.5t16 -14.5l10 -4q16 -6 26 -12zM-35 915l142 144h156l143 -144l-80 -81l-140 100l-138 -100z" />
    <glyph glyph-name="i" unicode="i" horiz-adv-x="398" 
d="M109 650q-36 28 -36 81q0 50 36 77t91 27q56 0 91 -27t35 -77q0 -54 -33 -81.5t-93 -27.5q-55 0 -91 28zM22 103q9 5 29 12l14 5q15 5 21.5 14t6.5 33v244q0 21 -5 30.5t-24 16.5l-14 5q-21 8 -27 12l3 98h297v-408q0 -23 6.5 -32t22.5 -15l14 -5q17 -6 28 -12l-3 -101
h-366z" />
    <glyph glyph-name="dotlessi" unicode="&#x131;" horiz-adv-x="398" 
d="M22 103q9 5 29 12l14 5q15 5 21.5 14t6.5 33v244q0 21 -5 30.5t-24 16.5l-14 5q-21 8 -27 12l3 98h297v-408q0 -23 6.5 -32t22.5 -15l14 -5q17 -6 28 -12l-3 -101h-366z" />
    <glyph glyph-name="iacute" unicode="&#xed;" horiz-adv-x="398" 
d="M22 103q9 5 29 12l14 5q15 5 21.5 14t6.5 33v244q0 21 -5 30.5t-24 16.5l-14 5q-21 8 -27 12l3 98h297v-408q0 -23 6.5 -32t22.5 -15l14 -5q17 -6 28 -12l-3 -101h-366zM70 701l179 209l125 -128l-211 -167z" />
    <glyph glyph-name="ibreve" unicode="&#x12d;" horiz-adv-x="398" 
d="M22 103q9 5 29 12l14 5q15 5 21.5 14t6.5 33v244q0 21 -5 30.5t-24 16.5l-14 5q-21 8 -27 12l3 98h297v-408q0 -23 6.5 -32t22.5 -15l14 -5q17 -6 28 -12l-3 -101h-366zM66 668.5q-52 46.5 -52 136.5h136q0 -24 12 -40t34 -16t34 16t12 40h135q0 -90 -52.5 -136.5
t-129.5 -46.5t-129 46.5z" />
    <glyph glyph-name="icircumflex" unicode="&#xee;" horiz-adv-x="398" 
d="M22 103q9 5 29 12l14 5q15 5 21.5 14t6.5 33v244q0 21 -5 30.5t-24 16.5l-14 5q-21 8 -27 12l3 98h297v-408q0 -23 6.5 -32t22.5 -15l14 -5q17 -6 28 -12l-3 -101h-366zM5 686l109 155h162l109 -155l-99 -65l-90 107l-93 -107z" />
    <glyph glyph-name="idieresis" unicode="&#xef;" horiz-adv-x="398" 
d="M22 103q9 5 29 12l14 5q15 5 21.5 14t6.5 33v244q0 21 -5 30.5t-24 16.5l-14 5q-21 8 -27 12l3 98h297v-408q0 -23 6.5 -32t22.5 -15l14 -5q17 -6 28 -12l-3 -101h-366zM24 662q-26 27 -26 69t26 69t65 27q40 0 65.5 -26.5t25.5 -69.5t-25.5 -69.5t-65.5 -26.5
q-39 0 -65 27zM239 662q-26 27 -26 69t26 69t65 27t65 -27t26 -69t-26 -69t-65 -27t-65 27z" />
    <glyph glyph-name="i.loclTRK" horiz-adv-x="398" 
d="M109 650q-36 28 -36 81q0 50 36 77t91 27q56 0 91 -27t35 -77q0 -54 -33 -81.5t-93 -27.5q-55 0 -91 28zM22 103q9 5 29 12l14 5q15 5 21.5 14t6.5 33v244q0 21 -5 30.5t-24 16.5l-14 5q-21 8 -27 12l3 98h297v-408q0 -23 6.5 -32t22.5 -15l14 -5q17 -6 28 -12l-3 -101
h-366z" />
    <glyph glyph-name="igrave" unicode="&#xec;" horiz-adv-x="398" 
d="M22 103q9 5 29 12l14 5q15 5 21.5 14t6.5 33v244q0 21 -5 30.5t-24 16.5l-14 5q-21 8 -27 12l3 98h297v-408q0 -23 6.5 -32t22.5 -15l14 -5q17 -6 28 -12l-3 -101h-366zM18 782l125 128l179 -209l-93 -86z" />
    <glyph glyph-name="ij" unicode="&#x133;" horiz-adv-x="812" 
d="M109 650q-36 28 -36 81q0 50 36 77t91 27q56 0 91 -27t35 -77q0 -54 -33 -81.5t-93 -27.5q-55 0 -91 28zM22 103q9 5 29 12l14 5q15 5 21.5 14t6.5 33v244q0 21 -5 30.5t-24 16.5l-14 5q-21 8 -27 12l3 98h297v-408q0 -23 6.5 -32t22.5 -15l14 -5q17 -6 28 -12l-3 -101
h-366zM555 650q-36 28 -36 81q0 50 36 77t91 27q56 0 91 -27t35 -77q0 -54 -33 -81.5t-93 -27.5q-55 0 -91 28zM363 -186q-54 38 -54 105v6q0 23 8 34q9 12 30 12h154v-42q0 -27 18 -27q12 0 16 13t4 54v442q0 21 -5 30.5t-24 16.5l-14 5q-21 8 -27 12l3 98h297v-566
q0 -118 -58.5 -174.5t-184.5 -56.5q-109 0 -163 38z" />
    <glyph glyph-name="imacron" unicode="&#x12b;" horiz-adv-x="398" 
d="M22 103q9 5 29 12l14 5q15 5 21.5 14t6.5 33v244q0 21 -5 30.5t-24 16.5l-14 5q-21 8 -27 12l3 98h297v-408q0 -23 6.5 -32t22.5 -15l14 -5q17 -6 28 -12l-3 -101h-366zM31 784h330v-136h-330v136z" />
    <glyph glyph-name="iogonek" unicode="&#x12f;" horiz-adv-x="398" 
d="M109 650q-36 28 -36 81q0 50 36 77t91 27q56 0 91 -27t35 -77q0 -54 -33 -81.5t-93 -27.5q-55 0 -91 28zM22 103q9 5 29 12l14 5q15 5 21.5 14t6.5 33v244q0 21 -5 30.5t-24 16.5l-14 5q-21 8 -27 12l3 98h297v-408q0 -23 6.5 -32t22.5 -15l14 -5q17 -6 28 -12l-3 -101
h-366zM121.5 -190.5q-34.5 26.5 -34.5 74.5q0 36 24 69.5t59 51.5h131q-26 -17 -40.5 -41.5t-14.5 -46.5q0 -13 6 -19.5t17 -6.5q24 0 47 27l54 -79q-29 -26 -68 -41t-84 -15q-62 0 -96.5 26.5z" />
    <glyph glyph-name="itilde" unicode="&#x129;" horiz-adv-x="398" 
d="M22 103q9 5 29 12l14 5q15 5 21.5 14t6.5 33v244q0 21 -5 30.5t-24 16.5l-14 5q-21 8 -27 12l3 98h297v-408q0 -23 6.5 -32t22.5 -15l14 -5q17 -6 28 -12l-3 -101h-366zM-19 678q15 73 54.5 113.5t89.5 40.5q23 0 44.5 -9t47.5 -25q3 -2 15.5 -9t22 -10.5t16.5 -3.5
q32 0 45 49l103 -43q-15 -69 -50.5 -109.5t-82.5 -40.5q-27 0 -47 8.5t-50 25.5q-17 11 -28 16.5t-23 5.5q-21 0 -35 -17.5t-19 -42.5z" />
    <glyph glyph-name="j" unicode="j" horiz-adv-x="394" 
d="M137 650q-36 28 -36 81q0 50 36 77t91 27q56 0 91 -27t35 -77q0 -54 -33 -81.5t-93 -27.5q-55 0 -91 28zM-55 -186q-54 38 -54 105v6q0 23 8 34q9 12 30 12h154v-42q0 -27 18 -27q12 0 16 13t4 54v442q0 21 -5 30.5t-24 16.5l-14 5q-21 8 -27 12l3 98h297v-566
q0 -118 -58.5 -174.5t-184.5 -56.5q-109 0 -163 38z" />
    <glyph glyph-name="uni0237" unicode="&#x237;" horiz-adv-x="395" 
d="M-109 -83v8q0 23 8 34q9 12 30 12h154v-40q0 -15 4.5 -22t15.5 -7t14.5 14t3.5 56v439q0 21 -5 30.5t-24 16.5l-14 5q-21 8 -27 12l3 98h297v-566q0 -118 -58.5 -174.5t-184.5 -56.5q-217 0 -217 141z" />
    <glyph glyph-name="uni006A0301" horiz-adv-x="395" 
d="M-109 -83v8q0 23 8 34q9 12 30 12h154v-40q0 -15 4.5 -22t15.5 -7t14.5 14t3.5 56v439q0 21 -5 30.5t-24 16.5l-14 5q-21 8 -27 12l3 98h297v-566q0 -118 -58.5 -174.5t-184.5 -56.5q-217 0 -217 141zM97 701l179 209l125 -128l-211 -167z" />
    <glyph glyph-name="jcircumflex" unicode="&#x135;" horiz-adv-x="395" 
d="M-109 -83v8q0 23 8 34q9 12 30 12h154v-40q0 -15 4.5 -22t15.5 -7t14.5 14t3.5 56v439q0 21 -5 30.5t-24 16.5l-14 5q-21 8 -27 12l3 98h297v-566q0 -118 -58.5 -174.5t-184.5 -56.5q-217 0 -217 141zM32 686l109 155h162l109 -155l-99 -65l-90 107l-93 -107z" />
    <glyph glyph-name="k" unicode="k" horiz-adv-x="756" 
d="M739 101l-4 -101h-263l-115 206q-4 7 -9 7q-4 0 -11 -5l-7 -5q-7 -5 -9.5 -10t-2.5 -15v-11q0 -22 4.5 -31t15.5 -15l10 -5q15 -8 22 -13l-3 -103h-347l-3 103q10 6 29 12l14 5q16 5 22 13.5t6 33.5v459q0 19 -5.5 30t-20.5 16l-15 5q-20 6 -29 13l3 98h297v-436l92 80
q10 9 10 18q0 10 -17 15l-11 3q-19 5 -34 12l9 93h351l-2 -99q-12 -8 -34 -12l-18 -4q-26 -6 -48.5 -21t-65.5 -57l-17 -16q-7 -7 -7 -11q0 -3 3 -8l100 -170q16 -27 29.5 -40t30.5 -18l17 -5q26 -7 33 -11z" />
    <glyph glyph-name="kcommaaccent" unicode="&#x137;" horiz-adv-x="756" 
d="M739 101l-4 -101h-263l-115 206q-4 7 -9 7q-4 0 -11 -5l-7 -5q-7 -5 -9.5 -10t-2.5 -15v-11q0 -22 4.5 -31t15.5 -15l10 -5q15 -8 22 -13l-3 -103h-347l-3 103q10 6 29 12l14 5q16 5 22 13.5t6 33.5v459q0 19 -5.5 30t-20.5 16l-15 5q-20 6 -29 13l3 98h297v-436l92 80
q10 9 10 18q0 10 -17 15l-11 3q-19 5 -34 12l9 93h351l-2 -99q-12 -8 -34 -12l-18 -4q-26 -6 -48.5 -21t-65.5 -57l-17 -16q-7 -7 -7 -11q0 -3 3 -8l100 -170q16 -27 29.5 -40t30.5 -18l17 -5q26 -7 33 -11zM301 -296q61 41 61 65q0 8 -4 14t-13 15q-14 14 -21 26.5t-7 34.5
q0 34 26.5 56t67.5 22q49 0 80 -33t31 -82t-36.5 -99.5t-93.5 -83.5z" />
    <glyph glyph-name="kgreenlandic" unicode="&#x138;" horiz-adv-x="757" 
d="M740 101l-4 -101h-263l-115 206q-4 7 -9 7q-4 0 -11 -5l-7 -5q-12 -10 -12 -25v-11q0 -22 4.5 -31t15.5 -15l10 -5q15 -8 22 -13l-3 -103h-347l-3 103q10 6 29 12l14 5q16 5 22 13.5t6 33.5v248q0 19 -5 28t-20 14l-15 5q-20 6 -29 13l3 98h296v-221l92 80q10 9 10 18
q0 10 -17 15l-11 3q-19 5 -34 12l9 93h351l-2 -99q-12 -8 -34 -12l-18 -4q-24 -5 -47.5 -21t-66.5 -57l-15 -15q-6 -6 -7.5 -10.5t1.5 -9.5l100 -170q17 -29 30.5 -41t29.5 -17l17 -5q26 -7 33 -11z" />
    <glyph glyph-name="l" unicode="l" horiz-adv-x="401" 
d="M17 103q10 6 29 12l14 5q16 5 22 13.5t6 33.5v459q0 19 -5.5 30t-20.5 16l-15 5q-20 6 -29 13l3 98h297v-621q0 -22 6.5 -31.5t20.5 -14.5l15 -6l29 -12l-3 -103h-366z" />
    <glyph glyph-name="lacute" unicode="&#x13a;" horiz-adv-x="401" 
d="M17 103q10 6 29 12l14 5q16 5 22 13.5t6 33.5v459q0 19 -5.5 30t-20.5 16l-15 5q-20 6 -29 13l3 98h297v-621q0 -22 6.5 -31.5t20.5 -14.5l15 -6l29 -12l-3 -103h-366zM30 943l262 157l86 -164l-289 -107z" />
    <glyph glyph-name="lcaron" unicode="&#x13e;" horiz-adv-x="401" 
d="M17 103q10 6 29 12l14 5q16 5 22 13.5t6 33.5v459q0 19 -5.5 30t-20.5 16l-15 5q-20 6 -29 13l3 98h297v-621q0 -22 6.5 -31.5t20.5 -14.5l15 -6l29 -12l-3 -103h-366zM353 577q26 15 42 31.5t16 30.5q0 8 -4 14.5t-12 15.5q-13 14 -19.5 26.5t-6.5 33.5q0 32 24 52.5
t64 20.5q49 0 75 -28t26 -81q0 -44 -33.5 -95t-84.5 -83z" />
    <glyph glyph-name="lcommaaccent" unicode="&#x13c;" horiz-adv-x="401" 
d="M17 103q10 6 29 12l14 5q16 5 22 13.5t6 33.5v459q0 19 -5.5 30t-20.5 16l-15 5q-20 6 -29 13l3 98h297v-621q0 -22 6.5 -31.5t20.5 -14.5l15 -6l29 -12l-3 -103h-366zM91 -296q61 41 61 65q0 8 -4 14t-13 15q-14 14 -21 26.5t-7 34.5q0 34 26.5 56t67.5 22q49 0 80 -33
t31 -82t-36.5 -99.5t-93.5 -83.5z" />
    <glyph glyph-name="ldot" unicode="&#x140;" horiz-adv-x="548" 
d="M17 103q10 6 29 12l14 5q16 5 22 13.5t6 33.5v459q0 19 -5.5 30t-20.5 16l-15 5q-20 6 -29 13l3 98h297v-621q0 -22 6.5 -31.5t20.5 -14.5l15 -6l29 -12l-3 -103h-366zM397.5 339q-33.5 33 -33.5 81q0 46 33.5 78.5t81.5 32.5q47 0 79 -32t32 -79q0 -48 -32 -81t-79 -33
q-48 0 -81.5 33z" />
    <glyph glyph-name="lslash" unicode="&#x142;" horiz-adv-x="481" 
d="M382 115l29 -12l-3 -103h-366l-3 103q10 6 29 12l14 5q16 5 22 13.5t6 33.5v134l-41 -19l-67 131l108 51v162q0 19 -5.5 30t-20.5 16l-15 5q-20 6 -29 13l3 98h297v-216l59 28l67 -131l-126 -59v-243q0 -22 6.5 -31.5t20.5 -14.5z" />
    <glyph glyph-name="m" unicode="m" horiz-adv-x="1031" 
d="M1007 102l-3 -102h-283v350q0 44 -8 63.5t-33 19.5q-26 0 -35.5 -24t-9.5 -89v-154q0 -23 4 -33.5t16 -14.5l10 -4q16 -6 26 -12l-3 -102h-283v350q0 44 -8 63.5t-33 19.5q-19 0 -28.5 -10t-13 -34t-3.5 -69v-153q0 -23 4 -32t17 -14l15 -6q17 -6 25 -12l-3 -103h-356
l-3 103q10 6 29 12l14 5q16 5 22 13.5t6 33.5v244q0 21 -5 30.5t-24 16.5l-14 5q-20 7 -27 12l3 98h291v-65q66 77 161 77q107 0 143 -88q68 88 173 88q80 0 120.5 -50t40.5 -142v-227q0 -23 4 -33.5t16 -14.5l10 -4q16 -6 26 -12z" />
    <glyph glyph-name="n" unicode="n" horiz-adv-x="720" 
d="M696 102l-3 -102h-283v350q0 43 -8.5 63t-33.5 20q-26 0 -37.5 -22.5t-11.5 -81.5v-162q0 -23 4 -32t17 -14l15 -6q17 -6 25 -12l-3 -103h-356l-3 103q10 6 29 12l14 5q16 5 22 13.5t6 33.5v244q0 22 -4.5 31t-24.5 16l-14 5q-20 7 -27 12l3 98h291v-65q66 77 161 77
q81 0 123.5 -50.5t42.5 -141.5v-227q0 -23 4 -33.5t16 -14.5l10 -4q16 -6 26 -12z" />
    <glyph glyph-name="nacute" unicode="&#x144;" horiz-adv-x="720" 
d="M696 102l-3 -102h-283v350q0 43 -8.5 63t-33.5 20q-26 0 -37.5 -22.5t-11.5 -81.5v-162q0 -23 4 -32t17 -14l15 -6q17 -6 25 -12l-3 -103h-356l-3 103q10 6 29 12l14 5q16 5 22 13.5t6 33.5v244q0 22 -4.5 31t-24.5 16l-14 5q-20 7 -27 12l3 98h291v-65q66 77 161 77
q81 0 123.5 -50.5t42.5 -141.5v-227q0 -23 4 -33.5t16 -14.5l10 -4q16 -6 26 -12zM237 719l216 178l111 -139l-241 -141z" />
    <glyph glyph-name="ncaron" unicode="&#x148;" horiz-adv-x="720" 
d="M696 102l-3 -102h-283v350q0 43 -8.5 63t-33.5 20q-26 0 -37.5 -22.5t-11.5 -81.5v-162q0 -23 4 -32t17 -14l15 -6q17 -6 25 -12l-3 -103h-356l-3 103q10 6 29 12l14 5q16 5 22 13.5t6 33.5v244q0 22 -4.5 31t-24.5 16l-14 5q-20 7 -27 12l3 98h291v-65q66 77 161 77
q81 0 123.5 -50.5t42.5 -141.5v-227q0 -23 4 -33.5t16 -14.5l10 -4q16 -6 26 -12zM155 778l84 76l127 -95l128 95l84 -76l-133 -139h-159z" />
    <glyph glyph-name="ncommaaccent" unicode="&#x146;" horiz-adv-x="720" 
d="M696 102l-3 -102h-283v350q0 43 -8.5 63t-33.5 20q-26 0 -37.5 -22.5t-11.5 -81.5v-162q0 -23 4 -32t17 -14l15 -6q17 -6 25 -12l-3 -103h-356l-3 103q10 6 29 12l14 5q16 5 22 13.5t6 33.5v244q0 22 -4.5 31t-24.5 16l-14 5q-20 7 -27 12l3 98h291v-65q66 77 161 77
q81 0 123.5 -50.5t42.5 -141.5v-227q0 -23 4 -33.5t16 -14.5l10 -4q16 -6 26 -12zM269 -296q61 41 61 65q0 8 -4 14t-13 15q-14 14 -21 26.5t-7 34.5q0 34 26.5 56t67.5 22q49 0 80 -33t31 -82t-36.5 -99.5t-93.5 -83.5z" />
    <glyph glyph-name="eng" unicode="&#x14b;" horiz-adv-x="684" 
d="M18 103q10 6 29 12l14 5q16 5 22 13.5t6 33.5v244q0 21 -5.5 31t-23.5 16l-14 5q-20 7 -27 12l3 98h291v-65q66 77 161 77q81 0 123.5 -50.5t42.5 -141.5v-393q0 -111 -50.5 -167.5t-146.5 -56.5q-37 0 -71 3.5t-55 9.5v134q17 -5 44 -5q49 0 49 73v359q0 43 -8.5 63
t-33.5 20q-26 0 -37.5 -22.5t-11.5 -81.5v-162q0 -23 4 -32t17 -14l15 -6q17 -6 25 -12l-3 -103h-356z" />
    <glyph glyph-name="ntilde" unicode="&#xf1;" horiz-adv-x="720" 
d="M696 102l-3 -102h-283v350q0 43 -8.5 63t-33.5 20q-26 0 -37.5 -22.5t-11.5 -81.5v-162q0 -23 4 -32t17 -14l15 -6q17 -6 25 -12l-3 -103h-356l-3 103q10 6 29 12l14 5q16 5 22 13.5t6 33.5v244q0 22 -4.5 31t-24.5 16l-14 5q-20 7 -27 12l3 98h291v-65q66 77 161 77
q81 0 123.5 -50.5t42.5 -141.5v-227q0 -23 4 -33.5t16 -14.5l10 -4q16 -6 26 -12zM133 684q16 65 58.5 104.5t95.5 39.5q26 0 46.5 -8.5t51.5 -26.5q19 -12 32.5 -18t26.5 -6q38 0 55 53l103 -61q-17 -58 -60 -96t-93 -38q-29 0 -50.5 9t-46.5 25q-18 11 -30 16.5t-25 5.5
q-23 0 -39 -18t-22 -42z" />
    <glyph glyph-name="o" unicode="o" horiz-adv-x="646" 
d="M169.5 22.5q-66.5 34.5 -104 102t-37.5 162.5t37.5 162t105 101.5t155.5 34.5q87 0 153 -34t102.5 -101.5t36.5 -162.5t-36.5 -162.5t-103 -102t-155.5 -34.5q-87 0 -153.5 34.5zM371 156q12 42 12 131q0 87 -11.5 129.5t-45.5 42.5q-35 0 -49 -43.5t-14 -128.5
q0 -86 14 -129.5t48 -43.5t46 42z" />
    <glyph glyph-name="oacute" unicode="&#xf3;" horiz-adv-x="646" 
d="M169.5 22.5q-66.5 34.5 -104 102t-37.5 162.5t37.5 162t105 101.5t155.5 34.5q87 0 153 -34t102.5 -101.5t36.5 -162.5t-36.5 -162.5t-103 -102t-155.5 -34.5q-87 0 -153.5 34.5zM371 156q12 42 12 131q0 87 -11.5 129.5t-45.5 42.5q-35 0 -49 -43.5t-14 -128.5
q0 -86 14 -129.5t48 -43.5t46 42zM197 719l216 178l111 -139l-241 -141z" />
    <glyph glyph-name="obreve" unicode="&#x14f;" horiz-adv-x="646" 
d="M169.5 22.5q-66.5 34.5 -104 102t-37.5 162.5t37.5 162t105 101.5t155.5 34.5q87 0 153 -34t102.5 -101.5t36.5 -162.5t-36.5 -162.5t-103 -102t-155.5 -34.5q-87 0 -153.5 34.5zM371 156q12 42 12 131q0 87 -11.5 129.5t-45.5 42.5q-35 0 -49 -43.5t-14 -128.5
q0 -86 14 -129.5t48 -43.5t46 42zM186 675.5q-56 46.5 -59 136.5h143q5 -57 56 -57t56 57h143q-2 -61 -30 -102t-73 -61t-97 -20q-83 0 -139 46.5z" />
    <glyph glyph-name="ocircumflex" unicode="&#xf4;" horiz-adv-x="646" 
d="M169.5 22.5q-66.5 34.5 -104 102t-37.5 162.5t37.5 162t105 101.5t155.5 34.5q87 0 153 -34t102.5 -101.5t36.5 -162.5t-36.5 -162.5t-103 -102t-155.5 -34.5q-87 0 -153.5 34.5zM371 156q12 42 12 131q0 87 -11.5 129.5t-45.5 42.5q-35 0 -49 -43.5t-14 -128.5
q0 -86 14 -129.5t48 -43.5t46 42zM115 700l129 139h162l132 -139l-86 -76l-126 95l-124 -95z" />
    <glyph glyph-name="odieresis" unicode="&#xf6;" horiz-adv-x="646" 
d="M169.5 22.5q-66.5 34.5 -104 102t-37.5 162.5t37.5 162t105 101.5t155.5 34.5q87 0 153 -34t102.5 -101.5t36.5 -162.5t-36.5 -162.5t-103 -102t-155.5 -34.5q-87 0 -153.5 34.5zM371 156q12 42 12 131q0 87 -11.5 129.5t-45.5 42.5q-35 0 -49 -43.5t-14 -128.5
q0 -86 14 -129.5t48 -43.5t46 42zM142 663.5q-28 28.5 -28 67.5t28 67.5t67 28.5t67 -28.5t28 -67.5t-28 -67.5t-67 -28.5t-67 28.5zM376 663.5q-28 28.5 -28 67.5t28 67.5t67 28.5t67 -28.5t28 -67.5t-28 -67.5t-67 -28.5t-67 28.5z" />
    <glyph glyph-name="ograve" unicode="&#xf2;" horiz-adv-x="646" 
d="M169.5 22.5q-66.5 34.5 -104 102t-37.5 162.5t37.5 162t105 101.5t155.5 34.5q87 0 153 -34t102.5 -101.5t36.5 -162.5t-36.5 -162.5t-103 -102t-155.5 -34.5q-87 0 -153.5 34.5zM371 156q12 42 12 131q0 87 -11.5 129.5t-45.5 42.5q-35 0 -49 -43.5t-14 -128.5
q0 -86 14 -129.5t48 -43.5t46 42zM134 758l111 139l216 -178l-86 -102z" />
    <glyph glyph-name="ohungarumlaut" unicode="&#x151;" horiz-adv-x="646" 
d="M169.5 22.5q-66.5 34.5 -104 102t-37.5 162.5t37.5 162t105 101.5t155.5 34.5q87 0 153 -34t102.5 -101.5t36.5 -162.5t-36.5 -162.5t-103 -102t-155.5 -34.5q-87 0 -153.5 34.5zM371 156q12 42 12 131q0 87 -11.5 129.5t-45.5 42.5q-35 0 -49 -43.5t-14 -128.5
q0 -86 14 -129.5t48 -43.5t46 42zM77 685l162 201l131 -103l-194 -183zM354 685l162 201l131 -103l-194 -183z" />
    <glyph glyph-name="omacron" unicode="&#x14d;" horiz-adv-x="646" 
d="M169.5 22.5q-66.5 34.5 -104 102t-37.5 162.5t37.5 162t105 101.5t155.5 34.5q87 0 153 -34t102.5 -101.5t36.5 -162.5t-36.5 -162.5t-103 -102t-155.5 -34.5q-87 0 -153.5 34.5zM371 156q12 42 12 131q0 87 -11.5 129.5t-45.5 42.5q-35 0 -49 -43.5t-14 -128.5
q0 -86 14 -129.5t48 -43.5t46 42zM121 784h410v-136h-410v136z" />
    <glyph glyph-name="oslash" unicode="&#xf8;" horiz-adv-x="640" 
d="M592 427.5q26 -60.5 26 -140.5q0 -95 -36.5 -162.5t-103 -102t-155.5 -34.5q-54 0 -99 13l-50 -89l-93 50l49 87q-49 38 -75.5 98.5t-26.5 139.5q0 95 37.5 162t105 101.5t155.5 34.5q55 0 98 -13l41 74l93 -50l-40 -71q48 -37 74 -97.5zM263 286l91 162q-11 11 -28 11
q-35 0 -49 -43.5t-14 -128.5v-1zM371 155.5q12 41.5 12 128.5l-89 -157q13 -13 31 -13q34 0 46 41.5z" />
    <glyph glyph-name="oslashacute" unicode="&#x1ff;" horiz-adv-x="640" 
d="M592 427.5q26 -60.5 26 -140.5q0 -95 -36.5 -162.5t-103 -102t-155.5 -34.5q-54 0 -99 13l-50 -89l-93 50l49 87q-49 38 -75.5 98.5t-26.5 139.5q0 95 37.5 162t105 101.5t155.5 34.5q55 0 98 -13l41 74l93 -50l-40 -71q48 -37 74 -97.5zM263 286l91 162q-11 11 -28 11
q-35 0 -49 -43.5t-14 -128.5v-1zM371 155.5q12 41.5 12 128.5l-89 -157q13 -13 31 -13q34 0 46 41.5zM196 719l216 178l111 -139l-241 -141z" />
    <glyph glyph-name="otilde" unicode="&#xf5;" horiz-adv-x="646" 
d="M169.5 22.5q-66.5 34.5 -104 102t-37.5 162.5t37.5 162t105 101.5t155.5 34.5q87 0 153 -34t102.5 -101.5t36.5 -162.5t-36.5 -162.5t-103 -102t-155.5 -34.5q-87 0 -153.5 34.5zM371 156q12 42 12 131q0 87 -11.5 129.5t-45.5 42.5q-35 0 -49 -43.5t-14 -128.5
q0 -86 14 -129.5t48 -43.5t46 42zM93 684q16 65 58.5 104.5t95.5 39.5q26 0 46.5 -8.5t51.5 -26.5q19 -12 32.5 -18t26.5 -6q38 0 55 53l103 -61q-17 -58 -60 -96t-93 -38q-29 0 -50.5 9t-46.5 25q-18 11 -30 16.5t-25 5.5q-23 0 -39 -18t-22 -42z" />
    <glyph glyph-name="oe" unicode="&#x153;" horiz-adv-x="997" 
d="M167.5 23q-65.5 35 -102.5 102t-37 162t37 162t103 101.5t152 34.5q57 0 108.5 -17.5t84.5 -47.5q25 26 71.5 45.5t94.5 19.5q80 0 137.5 -30.5t98.5 -88.5q16 -23 28 -54.5t12 -50.5q0 -27 -25 -40q-76 -40 -294 -113q-9 -3 -9 -13q0 -5 1 -8q7 -25 31 -40t63 -15
q35 0 76 21t75 61l77 -99q-44 -59 -108 -93t-142 -34q-57 0 -106.5 19t-82.5 50q-70 -69 -194 -69q-84 0 -149.5 35zM714 355q12 5 17 10t5 13q0 20 -12 44q-10 21 -25.5 32t-32.5 11q-29 0 -46.5 -22t-17.5 -68q0 -26 4 -38t16 -12q22 0 92 30zM371 156q12 42 12 131
q0 87 -11.5 129.5t-45.5 42.5q-35 0 -49 -43.5t-14 -128.5q0 -86 14 -129.5t48 -43.5t46 42z" />
    <glyph glyph-name="p" unicode="p" horiz-adv-x="690" 
d="M609 508q53 -77 53 -219q0 -97 -26.5 -164.5t-74 -102t-110.5 -34.5q-43 0 -77.5 15t-57.5 43v-93q0 -23 6.5 -32t22.5 -15l14 -5q17 -6 28 -12l-3 -101h-366l-3 101q9 5 29 12l14 5q15 5 21.5 14t6.5 33v458q0 24 -6.5 32.5t-25.5 14.5l-15 5q-22 7 -29 12l3 98h291v-61
q27 35 68 54t87 19q97 0 150 -77zM414 157q13 37 13 130q0 85 -12 123t-42 38q-32 0 -45 -38t-13 -123q0 -64 5 -100t17 -51.5t33 -15.5q31 0 44 37z" />
    <glyph glyph-name="thorn" unicode="&#xfe;" horiz-adv-x="685" 
d="M604 507.5q53 -77.5 53 -218.5q0 -97 -26.5 -164.5t-74 -102t-110.5 -34.5q-43 0 -77.5 15t-57.5 43v-91q0 -23 6.5 -32t22.5 -15l14 -5q17 -6 28 -12l-3 -101h-366l-3 101q9 5 29 12l14 5q15 5 21.5 14t6.5 33v672q0 19 -5.5 29.5t-22.5 16.5l-15 5q-15 5 -27 13l3 97
h297v-268q27 32 64 48.5t81 16.5q95 0 148 -77.5zM409 157q13 37 13 130q0 85 -12 123t-42 38q-32 0 -45 -38t-13 -123q0 -64 5 -100t17 -51.5t33 -15.5q31 0 44 37z" />
    <glyph glyph-name="q" unicode="q" horiz-adv-x="636" 
d="M286 -111q12 6 33 13l14 5q18 6 25.5 15.5t7.5 30.5v89q-45 -54 -123 -54q-63 0 -112 35.5t-76 103t-27 159.5q0 89 27 157t76 105t112 37q103 0 147 -78l17 66h189v-620q0 -23 5 -33t17 -14l14 -5q17 -6 28 -12l-3 -101h-365zM375 287q0 83 -13 122t-42 39
q-31 0 -44 -38.5t-13 -122.5q0 -87 13.5 -127t43.5 -40q55 0 55 167z" />
    <glyph glyph-name="r" unicode="r" horiz-adv-x="598" 
d="M545.5 546q32.5 -39 32.5 -109v-3q0 -37 -12 -50q-11 -13 -39 -13h-150l-1 22q-1 21 -6 30t-17 9q-13 0 -20 -10.5t-10.5 -39t-3.5 -82.5v-133q0 -23 4 -32t17 -14l15 -6q17 -6 25 -12l-3 -103h-356l-3 103q10 6 29 12l14 5q16 5 22 13.5t6 33.5v244q0 20 -5.5 30.5
t-23.5 16.5l-14 5q-20 7 -27 12l3 98h287v-67q52 79 141 79q63 0 95.5 -39z" />
    <glyph glyph-name="racute" unicode="&#x155;" horiz-adv-x="598" 
d="M545.5 546q32.5 -39 32.5 -109v-3q0 -37 -12 -50q-11 -13 -39 -13h-150l-1 22q-1 21 -6 30t-17 9q-13 0 -20 -10.5t-10.5 -39t-3.5 -82.5v-133q0 -23 4 -32t17 -14l15 -6q17 -6 25 -12l-3 -103h-356l-3 103q10 6 29 12l14 5q16 5 22 13.5t6 33.5v244q0 20 -5.5 30.5
t-23.5 16.5l-14 5q-20 7 -27 12l3 98h287v-67q52 79 141 79q63 0 95.5 -39zM187 719l216 178l111 -139l-241 -141z" />
    <glyph glyph-name="rcaron" unicode="&#x159;" horiz-adv-x="598" 
d="M545.5 546q32.5 -39 32.5 -109v-3q0 -37 -12 -50q-11 -13 -39 -13h-150l-1 22q-1 21 -6 30t-17 9q-13 0 -20 -10.5t-10.5 -39t-3.5 -82.5v-133q0 -23 4 -32t17 -14l15 -6q17 -6 25 -12l-3 -103h-356l-3 103q10 6 29 12l14 5q16 5 22 13.5t6 33.5v244q0 20 -5.5 30.5
t-23.5 16.5l-14 5q-20 7 -27 12l3 98h287v-67q52 79 141 79q63 0 95.5 -39zM105 778l84 76l127 -95l128 95l84 -76l-133 -139h-159z" />
    <glyph glyph-name="rcommaaccent" unicode="&#x157;" horiz-adv-x="598" 
d="M545.5 546q32.5 -39 32.5 -109v-3q0 -37 -12 -50q-11 -13 -39 -13h-150l-1 22q-1 21 -6 30t-17 9q-13 0 -20 -10.5t-10.5 -39t-3.5 -82.5v-133q0 -23 4 -32t17 -14l15 -6q17 -6 25 -12l-3 -103h-356l-3 103q10 6 29 12l14 5q16 5 22 13.5t6 33.5v244q0 20 -5.5 30.5
t-23.5 16.5l-14 5q-20 7 -27 12l3 98h287v-67q52 79 141 79q63 0 95.5 -39zM87 -296q61 41 61 65q0 8 -4 14t-13 15q-14 14 -21 26.5t-7 34.5q0 34 26.5 56t67.5 22q49 0 80 -33t31 -82t-36.5 -99.5t-93.5 -83.5z" />
    <glyph glyph-name="s" unicode="s" horiz-adv-x="574" 
d="M255 -0.5q-38 11.5 -65 33.5q-4 2 -6 2q-4 0 -5 -7l-5 -28h-133v211h149l2 -17q5 -36 30 -57.5t64 -21.5q23 0 36.5 10t13.5 27q0 14 -8 23.5t-30 20t-68 25.5l-12 4q-92 30 -135 73.5t-43 119.5t56 121.5t152 45.5q43 0 76.5 -12t51.5 -27q8 -6 9 3l3 27h133v-185h-147
l-3 11q-18 63 -77 63q-48 0 -48 -32q0 -18 20 -30t79 -33l11 -4q69 -25 107.5 -48.5t56.5 -57.5t18 -87q0 -57 -27.5 -99t-73.5 -64t-102 -22q-42 0 -80 11.5z" />
    <glyph glyph-name="sacute" unicode="&#x15b;" horiz-adv-x="574" 
d="M255 -0.5q-38 11.5 -65 33.5q-4 2 -6 2q-4 0 -5 -7l-5 -28h-133v211h149l2 -17q5 -36 30 -57.5t64 -21.5q23 0 36.5 10t13.5 27q0 14 -8 23.5t-30 20t-68 25.5l-12 4q-92 30 -135 73.5t-43 119.5t56 121.5t152 45.5q43 0 76.5 -12t51.5 -27q8 -6 9 3l3 27h133v-185h-147
l-3 11q-18 63 -77 63q-48 0 -48 -32q0 -18 20 -30t79 -33l11 -4q69 -25 107.5 -48.5t56.5 -57.5t18 -87q0 -57 -27.5 -99t-73.5 -64t-102 -22q-42 0 -80 11.5zM158 719l216 178l111 -139l-241 -141z" />
    <glyph glyph-name="scaron" unicode="&#x161;" horiz-adv-x="574" 
d="M255 -0.5q-38 11.5 -65 33.5q-4 2 -6 2q-4 0 -5 -7l-5 -28h-133v211h149l2 -17q5 -36 30 -57.5t64 -21.5q23 0 36.5 10t13.5 27q0 14 -8 23.5t-30 20t-68 25.5l-12 4q-92 30 -135 73.5t-43 119.5t56 121.5t152 45.5q43 0 76.5 -12t51.5 -27q8 -6 9 3l3 27h133v-185h-147
l-3 11q-18 63 -77 63q-48 0 -48 -32q0 -18 20 -30t79 -33l11 -4q69 -25 107.5 -48.5t56.5 -57.5t18 -87q0 -57 -27.5 -99t-73.5 -64t-102 -22q-42 0 -80 11.5zM76 778l84 76l127 -95l128 95l84 -76l-133 -139h-159z" />
    <glyph glyph-name="scedilla" unicode="&#x15f;" horiz-adv-x="574" 
d="M255 -0.5q-38 11.5 -65 33.5q-4 2 -6 2q-4 0 -5 -7l-5 -28h-133v211h149l2 -17q5 -36 30 -57.5t64 -21.5q23 0 36.5 10t13.5 27q0 14 -8 23.5t-30 20t-68 25.5l-12 4q-92 30 -135 73.5t-43 119.5t56 121.5t152 45.5q43 0 76.5 -12t51.5 -27q8 -6 9 3l3 27h133v-185h-147
l-3 11q-18 63 -77 63q-48 0 -48 -32q0 -18 20 -30t79 -33l11 -4q69 -25 107.5 -48.5t56.5 -57.5t18 -87q0 -57 -27.5 -99t-73.5 -64t-102 -22q-42 0 -80 11.5zM210 -216.5q-39 10.5 -62 26.5l30 83q15 -11 38 -19.5t42 -8.5q18 0 27 6.5t9 16.5q0 16 -20 24.5t-64 12.5
l35 77h94l-13 -27q54 -7 84.5 -33t30.5 -67q0 -46 -40 -74t-108 -28q-44 0 -83 10.5z" />
    <glyph glyph-name="scircumflex" unicode="&#x15d;" horiz-adv-x="574" 
d="M255 -0.5q-38 11.5 -65 33.5q-4 2 -6 2q-4 0 -5 -7l-5 -28h-133v211h149l2 -17q5 -36 30 -57.5t64 -21.5q23 0 36.5 10t13.5 27q0 14 -8 23.5t-30 20t-68 25.5l-12 4q-92 30 -135 73.5t-43 119.5t56 121.5t152 45.5q43 0 76.5 -12t51.5 -27q8 -6 9 3l3 27h133v-185h-147
l-3 11q-18 63 -77 63q-48 0 -48 -32q0 -18 20 -30t79 -33l11 -4q69 -25 107.5 -48.5t56.5 -57.5t18 -87q0 -57 -27.5 -99t-73.5 -64t-102 -22q-42 0 -80 11.5zM76 700l129 139h162l132 -139l-86 -76l-126 95l-124 -95z" />
    <glyph glyph-name="scommaaccent" unicode="&#x219;" horiz-adv-x="574" 
d="M255 -0.5q-38 11.5 -65 33.5q-4 2 -6 2q-4 0 -5 -7l-5 -28h-133v211h149l2 -17q5 -36 30 -57.5t64 -21.5q23 0 36.5 10t13.5 27q0 14 -8 23.5t-30 20t-68 25.5l-12 4q-92 30 -135 73.5t-43 119.5t56 121.5t152 45.5q43 0 76.5 -12t51.5 -27q8 -6 9 3l3 27h133v-185h-147
l-3 11q-18 63 -77 63q-48 0 -48 -32q0 -18 20 -30t79 -33l11 -4q69 -25 107.5 -48.5t56.5 -57.5t18 -87q0 -57 -27.5 -99t-73.5 -64t-102 -22q-42 0 -80 11.5zM183 -296q61 41 61 65q0 8 -4 14t-13 15q-14 14 -21 26.5t-7 34.5q0 34 26.5 56t67.5 22q49 0 80 -33t31 -82
t-36.5 -99.5t-93.5 -83.5z" />
    <glyph glyph-name="germandbls" unicode="&#xdf;" horiz-adv-x="771" 
d="M475 22q-8 7 -10 -4l-3 -18h-105v188h121l3 -22q9 -60 47 -60q12 0 19 8t7 22q0 19 -17 39.5t-68 61.5l-16 13q-52 43 -75.5 78.5t-23.5 85.5q0 38 10 63t30 52q18 27 26 46t8 47t-12 43.5t-35 15.5q-53 0 -53 -70v-611h-291l-3 103q10 6 29 12l14 5q12 4 16.5 12.5
t4.5 34.5v268h-80v138h80v20q0 100 75.5 153.5t207.5 53.5q82 0 143 -21.5t94 -59.5t33 -85q0 -36 -16 -60t-46 -53q-22 -21 -32 -34.5t-10 -30.5q0 -18 16.5 -35.5t70.5 -60.5l19 -15q53 -42 78 -85t25 -100q0 -51 -21 -90t-58 -60.5t-82 -21.5q-78 0 -120 34z" />
    <glyph glyph-name="longs" unicode="&#x17f;" horiz-adv-x="474" 
d="M34 103q10 6 29 12l14 5q12 4 16.5 12.5t4.5 34.5v268h-80v138h80v34q0 99 56.5 146t175.5 47q107 0 164.5 -36t57.5 -108v-8q0 -17 -6 -23q-5 -5 -10.5 -6.5t-15.5 -1.5h-154v25q0 23 -4 31t-14 8q-11 0 -15.5 -9t-4.5 -31v-474q0 -22 6.5 -31.5t19.5 -14.5l15 -6
q23 -8 29 -12l-3 -103h-358z" />
    <glyph glyph-name="t" unicode="t" horiz-adv-x="471" 
d="M126 29.5q-45 41.5 -45 124.5v281h-73v128l43 11q22 6 34 17t17 29l32 118h177v-165h109v-138h-109v-249q0 -20 6 -30t22 -10q23 0 47 24l57 -108q-32 -34 -79.5 -54t-108.5 -20q-84 0 -129 41.5z" />
    <glyph glyph-name="tbar" unicode="&#x167;" horiz-adv-x="461" 
d="M443 62q-32 -34 -79.5 -54t-108.5 -20q-84 0 -129 41.5t-45 124.5v84h-71v138h71v59h-73v128l43 11q22 6 34 17t17 29l32 118h177v-165h109v-138h-109v-59h95v-138h-95v-52q0 -20 6 -30t22 -10q23 0 47 24z" />
    <glyph glyph-name="tcaron" unicode="&#x165;" horiz-adv-x="471" 
d="M126 29.5q-45 41.5 -45 124.5v281h-73v128l43 11q22 6 34 17t17 29l32 118h177v-165h109v-138h-109v-249q0 -20 6 -30t22 -10q23 0 47 24l57 -108q-32 -34 -79.5 -54t-108.5 -20q-84 0 -129 41.5zM348 673q26 15 42 31.5t16 30.5q0 8 -4 14.5t-12 15.5q-13 14 -19.5 26.5
t-6.5 33.5q0 32 24 52.5t64 20.5q49 0 75 -28t26 -81q0 -44 -33.5 -95t-84.5 -83z" />
    <glyph glyph-name="uni0163" unicode="&#x163;" horiz-adv-x="471" 
d="M126 29.5q-45 41.5 -45 124.5v281h-73v128l43 11q22 6 34 17t17 29l32 118h177v-165h109v-138h-109v-249q0 -20 6 -30t22 -10q23 0 47 24l57 -108q-32 -34 -79.5 -54t-108.5 -20q-84 0 -129 41.5zM139 -296q61 41 61 65q0 8 -4 14t-13 15q-14 14 -21 26.5t-7 34.5
q0 34 26.5 56t67.5 22q49 0 80 -33t31 -82t-36.5 -99.5t-93.5 -83.5z" />
    <glyph glyph-name="uni021B" unicode="&#x21b;" horiz-adv-x="471" 
d="M126 29.5q-45 41.5 -45 124.5v281h-73v128l43 11q22 6 34 17t17 29l32 118h177v-165h109v-138h-109v-249q0 -20 6 -30t22 -10q23 0 47 24l57 -108q-32 -34 -79.5 -54t-108.5 -20q-84 0 -129 41.5zM139 -296q61 41 61 65q0 8 -4 14t-13 15q-14 14 -21 26.5t-7 34.5
q0 34 26.5 56t67.5 22q49 0 80 -33t31 -82t-36.5 -99.5t-93.5 -83.5z" />
    <glyph glyph-name="u" unicode="u" horiz-adv-x="712" 
d="M676.5 106.5q5.5 -2.5 9.5 -4.5l-3 -102h-245v72q-51 -84 -168 -84q-97 0 -143.5 51.5t-46.5 156.5v221q0 24 -3.5 32t-15.5 12l-13 4q-16 5 -24 11l3 97h288v-364q0 -43 10 -61t33 -18q22 0 31.5 21t9.5 67v207q0 18 -3 25.5t-12 10.5l-8 3q-12 5 -19 11l3 98h274v-412
q0 -24 4 -32t16 -13l10 -4q7 -3 12.5 -5.5z" />
    <glyph glyph-name="uacute" unicode="&#xfa;" horiz-adv-x="712" 
d="M676.5 106.5q5.5 -2.5 9.5 -4.5l-3 -102h-245v72q-51 -84 -168 -84q-97 0 -143.5 51.5t-46.5 156.5v221q0 24 -3.5 32t-15.5 12l-13 4q-16 5 -24 11l3 97h288v-364q0 -43 10 -61t33 -18q22 0 31.5 21t9.5 67v207q0 18 -3 25.5t-12 10.5l-8 3q-12 5 -19 11l3 98h274v-412
q0 -24 4 -32t16 -13l10 -4q7 -3 12.5 -5.5zM211 719l216 178l111 -139l-241 -141z" />
    <glyph glyph-name="ubreve" unicode="&#x16d;" horiz-adv-x="712" 
d="M676.5 106.5q5.5 -2.5 9.5 -4.5l-3 -102h-245v72q-51 -84 -168 -84q-97 0 -143.5 51.5t-46.5 156.5v221q0 24 -3.5 32t-15.5 12l-13 4q-16 5 -24 11l3 97h288v-364q0 -43 10 -61t33 -18q22 0 31.5 21t9.5 67v207q0 18 -3 25.5t-12 10.5l-8 3q-12 5 -19 11l3 98h274v-412
q0 -24 4 -32t16 -13l10 -4q7 -3 12.5 -5.5zM200 675.5q-56 46.5 -59 136.5h143q5 -57 56 -57t56 57h143q-2 -61 -30 -102t-73 -61t-97 -20q-83 0 -139 46.5z" />
    <glyph glyph-name="ucircumflex" unicode="&#xfb;" horiz-adv-x="712" 
d="M676.5 106.5q5.5 -2.5 9.5 -4.5l-3 -102h-245v72q-51 -84 -168 -84q-97 0 -143.5 51.5t-46.5 156.5v221q0 24 -3.5 32t-15.5 12l-13 4q-16 5 -24 11l3 97h288v-364q0 -43 10 -61t33 -18q22 0 31.5 21t9.5 67v207q0 18 -3 25.5t-12 10.5l-8 3q-12 5 -19 11l3 98h274v-412
q0 -24 4 -32t16 -13l10 -4q7 -3 12.5 -5.5zM129 700l129 139h162l132 -139l-86 -76l-126 95l-124 -95z" />
    <glyph glyph-name="udieresis" unicode="&#xfc;" horiz-adv-x="712" 
d="M676.5 106.5q5.5 -2.5 9.5 -4.5l-3 -102h-245v72q-51 -84 -168 -84q-97 0 -143.5 51.5t-46.5 156.5v221q0 24 -3.5 32t-15.5 12l-13 4q-16 5 -24 11l3 97h288v-364q0 -43 10 -61t33 -18q22 0 31.5 21t9.5 67v207q0 18 -3 25.5t-12 10.5l-8 3q-12 5 -19 11l3 98h274v-412
q0 -24 4 -32t16 -13l10 -4q7 -3 12.5 -5.5zM156 663.5q-28 28.5 -28 67.5t28 67.5t67 28.5t67 -28.5t28 -67.5t-28 -67.5t-67 -28.5t-67 28.5zM390 663.5q-28 28.5 -28 67.5t28 67.5t67 28.5t67 -28.5t28 -67.5t-28 -67.5t-67 -28.5t-67 28.5z" />
    <glyph glyph-name="ugrave" unicode="&#xf9;" horiz-adv-x="712" 
d="M676.5 106.5q5.5 -2.5 9.5 -4.5l-3 -102h-245v72q-51 -84 -168 -84q-97 0 -143.5 51.5t-46.5 156.5v221q0 24 -3.5 32t-15.5 12l-13 4q-16 5 -24 11l3 97h288v-364q0 -43 10 -61t33 -18q22 0 31.5 21t9.5 67v207q0 18 -3 25.5t-12 10.5l-8 3q-12 5 -19 11l3 98h274v-412
q0 -24 4 -32t16 -13l10 -4q7 -3 12.5 -5.5zM148 758l111 139l216 -178l-86 -102z" />
    <glyph glyph-name="uhungarumlaut" unicode="&#x171;" horiz-adv-x="712" 
d="M676.5 106.5q5.5 -2.5 9.5 -4.5l-3 -102h-245v72q-51 -84 -168 -84q-97 0 -143.5 51.5t-46.5 156.5v221q0 24 -3.5 32t-15.5 12l-13 4q-16 5 -24 11l3 97h288v-364q0 -43 10 -61t33 -18q22 0 31.5 21t9.5 67v207q0 18 -3 25.5t-12 10.5l-8 3q-12 5 -19 11l3 98h274v-412
q0 -24 4 -32t16 -13l10 -4q7 -3 12.5 -5.5zM91 685l162 201l131 -103l-194 -183zM368 685l162 201l131 -103l-194 -183z" />
    <glyph glyph-name="umacron" unicode="&#x16b;" horiz-adv-x="712" 
d="M676.5 106.5q5.5 -2.5 9.5 -4.5l-3 -102h-245v72q-51 -84 -168 -84q-97 0 -143.5 51.5t-46.5 156.5v221q0 24 -3.5 32t-15.5 12l-13 4q-16 5 -24 11l3 97h288v-364q0 -43 10 -61t33 -18q22 0 31.5 21t9.5 67v207q0 18 -3 25.5t-12 10.5l-8 3q-12 5 -19 11l3 98h274v-412
q0 -24 4 -32t16 -13l10 -4q7 -3 12.5 -5.5zM135 784h410v-136h-410v136z" />
    <glyph glyph-name="uogonek" unicode="&#x173;" horiz-adv-x="712" 
d="M717 -158q-25 -27 -67 -43t-90 -16q-70 0 -108 26t-38 77q0 34 23.5 64t65.5 50q-56 11 -76 56q-51 -68 -157 -68q-97 0 -143.5 51.5t-46.5 156.5v221q0 24 -3.5 32t-15.5 12l-13 4q-16 5 -24 11l3 97h288v-364q0 -43 10 -61t33 -18q22 0 31.5 21t9.5 67v207
q0 18 -3 25.5t-12 10.5l-8 3q-12 5 -19 11l3 98h274v-416q0 -22 4 -31t14 -12l12 -4q11 -3 21 -10l-2 -100h-5q-37 0 -68 -25t-31 -56q0 -12 7 -20t17 -8q27 0 60 33z" />
    <glyph glyph-name="uring" unicode="&#x16f;" horiz-adv-x="712" 
d="M676.5 106.5q5.5 -2.5 9.5 -4.5l-3 -102h-245v72q-51 -84 -168 -84q-97 0 -143.5 51.5t-46.5 156.5v221q0 24 -3.5 32t-15.5 12l-13 4q-16 5 -24 11l3 97h288v-364q0 -43 10 -61t33 -18q22 0 31.5 21t9.5 67v207q0 18 -3 25.5t-12 10.5l-8 3q-12 5 -19 11l3 98h274v-412
q0 -24 4 -32t16 -13l10 -4q7 -3 12.5 -5.5zM244 642.5q-40 29.5 -40 81.5q0 50 39.5 80.5t97.5 30.5q54 0 95 -29.5t41 -80.5t-40 -81.5t-98 -30.5q-55 0 -95 29.5zM364.5 699q9.5 10 9.5 25q0 16 -10 25.5t-24 9.5q-15 0 -24.5 -9.5t-9.5 -25.5q0 -15 10.5 -25t24.5 -10
t23.5 10z" />
    <glyph glyph-name="utilde" unicode="&#x169;" horiz-adv-x="712" 
d="M676.5 106.5q5.5 -2.5 9.5 -4.5l-3 -102h-245v72q-51 -84 -168 -84q-97 0 -143.5 51.5t-46.5 156.5v221q0 24 -3.5 32t-15.5 12l-13 4q-16 5 -24 11l3 97h288v-364q0 -43 10 -61t33 -18q22 0 31.5 21t9.5 67v207q0 18 -3 25.5t-12 10.5l-8 3q-12 5 -19 11l3 98h274v-412
q0 -24 4 -32t16 -13l10 -4q7 -3 12.5 -5.5zM107 684q16 65 58.5 104.5t95.5 39.5q26 0 46.5 -8.5t51.5 -26.5q19 -12 32.5 -18t26.5 -6q38 0 55 53l103 -61q-17 -58 -60 -96t-93 -38q-29 0 -50.5 9t-46.5 25q-18 11 -30 16.5t-25 5.5q-23 0 -39 -18t-22 -42z" />
    <glyph glyph-name="v" unicode="v" horiz-adv-x="663" 
d="M659 474q-14 -7 -26 -11l-14 -5q-10 -3 -18 -13t-17 -33l-152 -412h-200l-148 408q-8 20 -16.5 30.5t-20.5 14.5l-14 5q-16 6 -28 12l3 103h346l6 -103q-12 -7 -26 -12l-14 -5q-17 -6 -17 -24q0 -10 6 -28l57 -188l68 202q5 13 5 25q0 14 -13 18l-11 4q-17 7 -24 11
l3 100h262z" />
    <glyph glyph-name="w" unicode="w" horiz-adv-x="935" 
d="M84 414q-5 17 -13 25t-22 13l-14 5q-12 4 -30 13l3 103h346l6 -103q-7 -4 -25 -12l-14 -5q-17 -6 -17 -26q0 -12 2 -19l34 -159l87 324h154l82 -324l35 160q4 15 4 26q0 10 -3.5 15.5t-12.5 8.5l-11 4q-9 3 -20 10l3 100h270l3 -99q-11 -6 -28 -12l-14 -5
q-16 -5 -24 -15.5t-16 -35.5l-113 -406h-195l-66 242l-65 -242h-195z" />
    <glyph glyph-name="wacute" unicode="&#x1e83;" horiz-adv-x="935" 
d="M84 414q-5 17 -13 25t-22 13l-14 5q-12 4 -30 13l3 103h346l6 -103q-7 -4 -25 -12l-14 -5q-17 -6 -17 -26q0 -12 2 -19l34 -159l87 324h154l82 -324l35 160q4 15 4 26q0 10 -3.5 15.5t-12.5 8.5l-11 4q-9 3 -20 10l3 100h270l3 -99q-11 -6 -28 -12l-14 -5
q-16 -5 -24 -15.5t-16 -35.5l-113 -406h-195l-66 242l-65 -242h-195zM377 719l216 178l111 -139l-241 -141z" />
    <glyph glyph-name="wcircumflex" unicode="&#x175;" horiz-adv-x="935" 
d="M84 414q-5 17 -13 25t-22 13l-14 5q-12 4 -30 13l3 103h346l6 -103q-7 -4 -25 -12l-14 -5q-17 -6 -17 -26q0 -12 2 -19l34 -159l87 324h154l82 -324l35 160q4 15 4 26q0 10 -3.5 15.5t-12.5 8.5l-11 4q-9 3 -20 10l3 100h270l3 -99q-11 -6 -28 -12l-14 -5
q-16 -5 -24 -15.5t-16 -35.5l-113 -406h-195l-66 242l-65 -242h-195zM295 700l129 139h162l132 -139l-86 -76l-126 95l-124 -95z" />
    <glyph glyph-name="wdieresis" unicode="&#x1e85;" horiz-adv-x="935" 
d="M84 414q-5 17 -13 25t-22 13l-14 5q-12 4 -30 13l3 103h346l6 -103q-7 -4 -25 -12l-14 -5q-17 -6 -17 -26q0 -12 2 -19l34 -159l87 324h154l82 -324l35 160q4 15 4 26q0 10 -3.5 15.5t-12.5 8.5l-11 4q-9 3 -20 10l3 100h270l3 -99q-11 -6 -28 -12l-14 -5
q-16 -5 -24 -15.5t-16 -35.5l-113 -406h-195l-66 242l-65 -242h-195zM322 663.5q-28 28.5 -28 67.5t28 67.5t67 28.5t67 -28.5t28 -67.5t-28 -67.5t-67 -28.5t-67 28.5zM556 663.5q-28 28.5 -28 67.5t28 67.5t67 28.5t67 -28.5t28 -67.5t-28 -67.5t-67 -28.5t-67 28.5z" />
    <glyph glyph-name="wgrave" unicode="&#x1e81;" horiz-adv-x="935" 
d="M84 414q-5 17 -13 25t-22 13l-14 5q-12 4 -30 13l3 103h346l6 -103q-7 -4 -25 -12l-14 -5q-17 -6 -17 -26q0 -12 2 -19l34 -159l87 324h154l82 -324l35 160q4 15 4 26q0 10 -3.5 15.5t-12.5 8.5l-11 4q-9 3 -20 10l3 100h270l3 -99q-11 -6 -28 -12l-14 -5
q-16 -5 -24 -15.5t-16 -35.5l-113 -406h-195l-66 242l-65 -242h-195zM314 758l111 139l216 -178l-86 -102z" />
    <glyph glyph-name="x" unicode="x" horiz-adv-x="694" 
d="M684 103l-3 -103h-346l-6 95q4 4 16 9l7 3q11 5 11 16t-10 22l-30 34l-32 -38q-14 -15 -14 -26q0 -8 9 -12l5 -2q10 -3 14 -6l-4 -95h-286l-3 99l45 16l14 5q18 7 32 15.5t29 24.5l100 116l-126 142q-11 13 -19.5 18.5t-24.5 11.5l-17 6q-19 7 -34 16l3 103h339l6 -96
q-5 -4 -17 -9l-7 -3q-12 -4 -12 -15q0 -8 11 -22l30 -35l27 32q22 25 22 36q0 6 -7 9l-5 2q-10 3 -14 6l4 95h268l3 -99q-7 -4 -31 -12l-14 -5q-35 -12 -56 -37l-106 -125l110 -124q30 -33 65 -46l21 -8q19 -6 33 -14z" />
    <glyph glyph-name="y" unicode="y" horiz-adv-x="664" 
d="M660 474q-12 -6 -27 -11l-14 -5q-17 -6 -29.5 -18.5t-22.5 -37.5l-132 -341q-45 -117 -85 -178.5t-81.5 -84t-98.5 -22.5q-50 0 -87.5 19t-57 52t-19.5 72v4q0 25 12 40t31 15h151l2 -22q3 -34 20 -34q10 0 19.5 12t23.5 43l-174 423q-10 25 -20 36.5t-24 16.5l-14 5
q-16 6 -28 12l3 103h346l6 -103q-12 -7 -23 -11l-14 -5q-9 -3 -13 -8.5t-4 -15.5t6 -30l52 -174l58 178q8 24 8 38q0 15 -10 18l-11 4q-9 3 -17 9l3 100h262z" />
    <glyph glyph-name="yacute" unicode="&#xfd;" horiz-adv-x="664" 
d="M660 474q-12 -6 -27 -11l-14 -5q-17 -6 -29.5 -18.5t-22.5 -37.5l-132 -341q-45 -117 -85 -178.5t-81.5 -84t-98.5 -22.5q-50 0 -87.5 19t-57 52t-19.5 72v4q0 25 12 40t31 15h151l2 -22q3 -34 20 -34q10 0 19.5 12t23.5 43l-174 423q-10 25 -20 36.5t-24 16.5l-14 5
q-16 6 -28 12l3 103h346l6 -103q-12 -7 -23 -11l-14 -5q-9 -3 -13 -8.5t-4 -15.5t6 -30l52 -174l58 178q8 24 8 38q0 15 -10 18l-11 4q-9 3 -17 9l3 100h262zM230 719l216 178l111 -139l-241 -141z" />
    <glyph glyph-name="ycircumflex" unicode="&#x177;" horiz-adv-x="664" 
d="M660 474q-12 -6 -27 -11l-14 -5q-17 -6 -29.5 -18.5t-22.5 -37.5l-132 -341q-45 -117 -85 -178.5t-81.5 -84t-98.5 -22.5q-50 0 -87.5 19t-57 52t-19.5 72v4q0 25 12 40t31 15h151l2 -22q3 -34 20 -34q10 0 19.5 12t23.5 43l-174 423q-10 25 -20 36.5t-24 16.5l-14 5
q-16 6 -28 12l3 103h346l6 -103q-12 -7 -23 -11l-14 -5q-9 -3 -13 -8.5t-4 -15.5t6 -30l52 -174l58 178q8 24 8 38q0 15 -10 18l-11 4q-9 3 -17 9l3 100h262zM148 700l129 139h162l132 -139l-86 -76l-126 95l-124 -95z" />
    <glyph glyph-name="ydieresis" unicode="&#xff;" horiz-adv-x="664" 
d="M660 474q-12 -6 -27 -11l-14 -5q-17 -6 -29.5 -18.5t-22.5 -37.5l-132 -341q-45 -117 -85 -178.5t-81.5 -84t-98.5 -22.5q-50 0 -87.5 19t-57 52t-19.5 72v4q0 25 12 40t31 15h151l2 -22q3 -34 20 -34q10 0 19.5 12t23.5 43l-174 423q-10 25 -20 36.5t-24 16.5l-14 5
q-16 6 -28 12l3 103h346l6 -103q-12 -7 -23 -11l-14 -5q-9 -3 -13 -8.5t-4 -15.5t6 -30l52 -174l58 178q8 24 8 38q0 15 -10 18l-11 4q-9 3 -17 9l3 100h262zM175 663.5q-28 28.5 -28 67.5t28 67.5t67 28.5t67 -28.5t28 -67.5t-28 -67.5t-67 -28.5t-67 28.5zM409 663.5
q-28 28.5 -28 67.5t28 67.5t67 28.5t67 -28.5t28 -67.5t-28 -67.5t-67 -28.5t-67 28.5z" />
    <glyph glyph-name="ygrave" unicode="&#x1ef3;" horiz-adv-x="664" 
d="M660 474q-12 -6 -27 -11l-14 -5q-17 -6 -29.5 -18.5t-22.5 -37.5l-132 -341q-45 -117 -85 -178.5t-81.5 -84t-98.5 -22.5q-50 0 -87.5 19t-57 52t-19.5 72v4q0 25 12 40t31 15h151l2 -22q3 -34 20 -34q10 0 19.5 12t23.5 43l-174 423q-10 25 -20 36.5t-24 16.5l-14 5
q-16 6 -28 12l3 103h346l6 -103q-12 -7 -23 -11l-14 -5q-9 -3 -13 -8.5t-4 -15.5t6 -30l52 -174l58 178q8 24 8 38q0 15 -10 18l-11 4q-9 3 -17 9l3 100h262zM167 758l111 139l216 -178l-86 -102z" />
    <glyph glyph-name="z" unicode="z" horiz-adv-x="602" 
d="M564 230v-230h-531v105l261 333h-96q-12 0 -17.5 -5t-9.5 -19l-19 -66h-107v225h508v-113l-254 -325h105q11 0 17 5t11 17l25 73h107z" />
    <glyph glyph-name="zacute" unicode="&#x17a;" horiz-adv-x="602" 
d="M564 230v-230h-531v105l261 333h-96q-12 0 -17.5 -5t-9.5 -19l-19 -66h-107v225h508v-113l-254 -325h105q11 0 17 5t11 17l25 73h107zM171 719l216 178l111 -139l-241 -141z" />
    <glyph glyph-name="zcaron" unicode="&#x17e;" horiz-adv-x="602" 
d="M564 230v-230h-531v105l261 333h-96q-12 0 -17.5 -5t-9.5 -19l-19 -66h-107v225h508v-113l-254 -325h105q11 0 17 5t11 17l25 73h107zM89 778l84 76l127 -95l128 95l84 -76l-133 -139h-159z" />
    <glyph glyph-name="zdotaccent" unicode="&#x17c;" horiz-adv-x="602" 
d="M564 230v-230h-531v105l261 333h-96q-12 0 -17.5 -5t-9.5 -19l-19 -66h-107v225h508v-113l-254 -325h105q11 0 17 5t11 17l25 73h107zM223.5 663q-31.5 32 -31.5 77q0 46 31.5 77t76.5 31q43 0 75.5 -31.5t32.5 -76.5t-32.5 -77t-75.5 -32q-45 0 -76.5 32z" />
    <glyph glyph-name="germandbls.calt" horiz-adv-x="846" 
d="M518 26q-4 3 -7 3q-5 0 -7 -8l-3 -21h-121v222h137l3 -30q3 -31 16 -48t34 -17q13 0 21.5 9.5t8.5 25.5q0 25 -19.5 45t-68.5 45q-46 23 -73 43t-43 48t-16 68q0 41 15.5 66t44.5 52q23 22 33.5 37t10.5 37q0 27 -16.5 41.5t-44.5 14.5q-41 0 -63.5 -31.5t-22.5 -96.5
v-531h-301l-4 103q8 5 27 11l17 6q13 4 16.5 14.5t3.5 42.5v341q0 282 338 282q86 0 155.5 -23t108.5 -64t39 -94q0 -35 -13 -59.5t-30 -39t-44 -31.5q-22 -15 -31.5 -23.5t-9.5 -19.5q0 -10 7.5 -18t30 -21.5t56.5 -31.5q64 -35 94.5 -80t30.5 -118q0 -52 -24.5 -95.5
t-66.5 -68.5t-91 -25q-75 0 -128 38z" />
    <glyph glyph-name="cacute.loclPLK" horiz-adv-x="590" 
d="M105.5 65.5q-77.5 77.5 -77.5 225.5q0 91 34.5 157.5t96.5 101.5t141 35q59 0 99 -22q5 -3 8 -3q5 0 6 9l2 13h132v-234h-147l-2 24q-4 47 -19 67t-43 20q-40 0 -57 -39.5t-17 -119.5q0 -97 25 -137.5t75 -40.5q31 0 59.5 18.5t59.5 56.5l85 -86q-43 -60 -104 -91.5
t-146 -31.5q-133 0 -210.5 77.5zM205 698l151 220l144 -111l-188 -185z" />
    <glyph glyph-name="nacute.loclPLK" horiz-adv-x="720" 
d="M696 102l-3 -102h-283v350q0 43 -8.5 63t-33.5 20q-26 0 -37.5 -22.5t-11.5 -81.5v-162q0 -23 4 -32t17 -14l15 -6q17 -6 25 -12l-3 -103h-356l-3 103q10 6 29 12l14 5q16 5 22 13.5t6 33.5v244q0 22 -4.5 31t-24.5 16l-14 5q-20 7 -27 12l3 98h291v-65q66 77 161 77
q81 0 123.5 -50.5t42.5 -141.5v-227q0 -23 4 -33.5t16 -14.5l10 -4q16 -6 26 -12zM261 698l151 220l144 -111l-188 -185z" />
    <glyph glyph-name="oacute.loclPLK" horiz-adv-x="646" 
d="M169.5 22.5q-66.5 34.5 -104 102t-37.5 162.5t37.5 162t105 101.5t155.5 34.5q87 0 153 -34t102.5 -101.5t36.5 -162.5t-36.5 -162.5t-103 -102t-155.5 -34.5q-87 0 -153.5 34.5zM371 156q12 42 12 131q0 87 -11.5 129.5t-45.5 42.5q-35 0 -49 -43.5t-14 -128.5
q0 -86 14 -129.5t48 -43.5t46 42zM221 698l151 220l144 -111l-188 -185z" />
    <glyph glyph-name="sacute.loclPLK" horiz-adv-x="574" 
d="M255 -0.5q-38 11.5 -65 33.5q-4 2 -6 2q-4 0 -5 -7l-5 -28h-133v211h149l2 -17q5 -36 30 -57.5t64 -21.5q23 0 36.5 10t13.5 27q0 14 -8 23.5t-30 20t-68 25.5l-12 4q-92 30 -135 73.5t-43 119.5t56 121.5t152 45.5q43 0 76.5 -12t51.5 -27q8 -6 9 3l3 27h133v-185h-147
l-3 11q-18 63 -77 63q-48 0 -48 -32q0 -18 20 -30t79 -33l11 -4q69 -25 107.5 -48.5t56.5 -57.5t18 -87q0 -57 -27.5 -99t-73.5 -64t-102 -22q-42 0 -80 11.5zM182 698l151 220l144 -111l-188 -185z" />
    <glyph glyph-name="zacute.loclPLK" horiz-adv-x="602" 
d="M564 230v-230h-531v105l261 333h-96q-12 0 -17.5 -5t-9.5 -19l-19 -66h-107v225h508v-113l-254 -325h105q11 0 17 5t11 17l25 73h107zM195 698l151 220l144 -111l-188 -185z" />
    <glyph glyph-name="ordfeminine" unicode="&#xaa;" horiz-adv-x="480" 
d="M441 498v-67h-178v38q-33 -46 -103 -46q-54 0 -89.5 27.5t-35.5 75.5t30 75t95 40l56 11q22 5 28.5 9t6.5 15v11q0 36 -27 36q-24 0 -24 -30v-31h-128q-10 0 -14 9q-4 10 -4 22q0 47 46.5 77t136.5 30q81 0 125 -32t44 -91v-137q0 -16 2.5 -22t9.5 -9l10 -4q8 -3 13 -7z
M251 591q-12 -6 -25 -10l-7 -2q-14 -4 -20 -13.5t-6 -25.5q0 -36 30 -36q13 0 20.5 12t7.5 33v42zM51 384h384v-111h-384v111z" />
    <glyph glyph-name="ordmasculine" unicode="&#xba;" horiz-adv-x="448" 
d="M77.5 474q-52.5 51 -52.5 138q0 86 54 137t145 51q93 0 144.5 -50.5t51.5 -137.5t-53.5 -138t-144.5 -51q-92 0 -144.5 51zM252 531q8 22 8 81q0 55 -8.5 78.5t-26.5 23.5q-20 0 -30 -23t-10 -79q0 -58 9.5 -80.5t30.5 -22.5q19 0 27 22zM39 384h384v-111h-384v111z" />
    <glyph glyph-name="uni0394" unicode="&#x394;" horiz-adv-x="801" 
d="M781 0h-761l269 788h221zM236 138h259l-125 411z" />
    <glyph glyph-name="uni03A9" unicode="&#x3a9;" horiz-adv-x="798" 
d="M772 138v-138h-349v114q49 66 74 139t25 174q0 123 -28.5 177.5t-88.5 54.5q-64 0 -97 -55.5t-33 -176.5q0 -103 24.5 -175t76.5 -138v-114h-350v138h145q-68 58 -106 134t-38 165q0 106 46.5 188.5t132 128.5t197.5 46q111 0 194 -46t128 -128.5t45 -188.5
q0 -88 -38.5 -164t-106.5 -135h147z" />
    <glyph glyph-name="uni03BC" unicode="&#x3bc;" horiz-adv-x="733" 
d="M725 64q-27 -37 -67.5 -56.5t-90.5 -19.5q-88 0 -131 51q-33 -51 -83 -51q-23 0 -43 11v-211h-230v629q0 24 -3.5 32t-15.5 12l-13 4q-16 5 -24 11l3 97h288v-364q0 -43 10 -61t32 -18q24 0 33 21t9 83v191q0 18 -3 25.5t-12 10.5l-8 3q-12 5 -19 11l3 98h274v-418
q0 -24 16 -24q15 0 29 14z" />
    <glyph glyph-name="pi" unicode="&#x3c0;" horiz-adv-x="761" 
d="M395 133v302h-77v-435h-230v435h-73v138h683v-138h-73v-280q0 -26 21 -26q17 0 30 15l51 -82q-28 -35 -71.5 -54.5t-98.5 -19.5q-162 0 -162 145z" />
    <glyph glyph-name="zero" unicode="0" horiz-adv-x="719" 
d="M124 90.5q-86 102.5 -86 307.5q0 204 86.5 303t238.5 99q150 0 234 -101t84 -311q0 -199 -86 -299.5t-234 -100.5q-151 0 -237 102.5zM405 150.5q15 21.5 21.5 78t6.5 166.5q0 108 -6.5 164t-21 78t-41.5 22t-44 -22.5t-25.5 -80.5t-8.5 -163t8.5 -162.5t25 -79.5
t42.5 -22q28 0 43 21.5z" />
    <glyph glyph-name="one" unicode="1" horiz-adv-x="561" 
d="M95 103q20 8 45 14l22 6q21 6 28 22t7 55v375l-110 -35l-47 118l188 130h210v-588q0 -38 6.5 -54t24.5 -21l24 -7q29 -9 44 -16l-7 -102h-426z" />
    <glyph glyph-name="two" unicode="2" horiz-adv-x="648" 
d="M610 254v-254h-554v135l52 49q254 238 254 401q0 43 -9 60.5t-28 17.5q-21 0 -31 -17t-10 -59v-59h-195q-20 0 -31 11t-11 37v14q0 100 79 155t216 55q121 0 192 -57.5t71 -160.5q0 -57 -28.5 -114.5t-88 -124.5t-160.5 -161l-27 -25h134q13 0 21 6t15 21l10 23
q10 24 22 47h107z" />
    <glyph glyph-name="three" unicode="3" horiz-adv-x="644" 
d="M109.5 40q-74.5 52 -74.5 151v9q0 28 10 40.5t31 12.5h195v-50q0 -42 12.5 -61t36.5 -19q26 0 37 22t11 74q0 60 -23.5 83.5t-83.5 27.5l-49 3v126l44 3q52 4 74 30.5t22 94.5q0 42 -9 60t-30 18t-29.5 -17t-8.5 -58v-57h-195q-22 0 -31.5 11.5t-9.5 37.5v8
q0 60 35.5 107.5t101.5 75t154 27.5q76 0 136 -24.5t94.5 -70t34.5 -105.5q0 -66 -36.5 -112t-96.5 -63v-4q71 -16 112.5 -65t41.5 -127q0 -76 -38.5 -130.5t-105 -82.5t-150.5 -28q-138 0 -212.5 52z" />
    <glyph glyph-name="four" unicode="4" horiz-adv-x="686" 
d="M642 97l-7 -97h-378l-9 98q17 10 36 16l17 5q18 5 23.5 16t5.5 36v17h-298v122l297 478h233v-459h74v-141h-74v-17q0 -25 5.5 -35.5t22.5 -15.5l16 -5q21 -6 36 -18zM330 329v208l-117 -208h117z" />
    <glyph glyph-name="five" unicode="5" horiz-adv-x="651" 
d="M494 478.5q54 -29.5 84.5 -85.5t30.5 -133q0 -127 -76.5 -199.5t-218.5 -72.5q-85 0 -147.5 26t-95.5 74t-33 113v7q0 41 33 41h199v-56q0 -38 10 -56.5t32 -18.5q26 0 37.5 27t11.5 95q0 127 -107 127q-53 0 -106 -29l-74 63l61 387h408v-165h-272l-22 -140
q50 25 122 25q69 0 123 -29.5z" />
    <glyph glyph-name="six" unicode="6" horiz-adv-x="673" 
d="M531.5 497q50.5 -31 79 -87.5t28.5 -132.5q0 -88 -37.5 -153.5t-105 -100.5t-155.5 -35q-303 0 -303 374q0 141 42 239.5t118.5 148.5t178.5 50q106 0 167.5 -46t61.5 -125v-8q0 -17 -8 -24t-26 -7h-180l-1 21q-1 34 -9 47t-25 13q-30 0 -51.5 -47.5t-26.5 -144.5
q27 23 62.5 36t75.5 13q64 0 114.5 -31zM378.5 147q13.5 31 13.5 113q0 76 -12.5 104t-39.5 28q-29 0 -42.5 -28t-13.5 -104q0 -83 12.5 -113.5t41.5 -30.5q27 0 40.5 31z" />
    <glyph glyph-name="seven" unicode="7" horiz-adv-x="627" 
d="M617 788v-107q-114 -155 -161.5 -293t-47.5 -299v-89h-245v77q0 130 51.5 262.5t156.5 280.5h-166q-14 0 -20.5 -4t-10.5 -17l-7 -20q-11 -34 -23 -53h-108v262h581z" />
    <glyph glyph-name="eight" unicode="8" horiz-adv-x="653" 
d="M579.5 353q41.5 -50 41.5 -121q0 -69 -38.5 -125t-106.5 -87.5t-155 -31.5q-86 0 -150 27t-98.5 75.5t-34.5 113.5q0 58 33 107.5t94 83.5q-54 41 -85.5 87.5t-31.5 105.5q0 62 35.5 110.5t100 75t148.5 26.5q127 0 195 -51.5t68 -134.5q0 -48 -35 -91.5t-95 -75.5
q73 -44 114.5 -94zM280.5 660.5q-18.5 -16.5 -18.5 -47.5q0 -28 22 -51t64 -49q44 46 44 99q0 32 -17.5 48.5t-44.5 16.5q-31 0 -49.5 -16.5zM382.5 131.5q20.5 20.5 20.5 51.5q0 36 -30.5 66.5t-91.5 69.5q-40 -50 -40 -111q0 -44 24 -70.5t63 -26.5q34 0 54.5 20.5z" />
    <glyph glyph-name="nine" unicode="9" horiz-adv-x="673" 
d="M554.5 707q80.5 -93 80.5 -281q0 -141 -41.5 -239.5t-117.5 -148.5t-177 -50q-105 0 -168.5 45t-63.5 128v6q0 17 7.5 24t23.5 7h183l1 -19q1 -34 11.5 -48t28.5 -14q30 0 50.5 51t21.5 149q-49 -57 -141 -57q-60 0 -110 31t-79.5 90t-29.5 139q0 87 38.5 150.5t107 96.5
t155.5 33q139 0 219.5 -93zM375.5 426q13.5 30 13.5 108t-12 108t-41 30q-28 0 -41.5 -30.5t-13.5 -107.5q0 -81 13 -109.5t42 -28.5q26 0 39.5 30z" />
    <glyph glyph-name="uni00B9" unicode="&#xb9;" horiz-adv-x="373" 
d="M111 638q0 20 -5 28t-20 12l-17 4q-17 4 -25 9v97h246v-399h-179v249z" />
    <glyph glyph-name="uni00B2" unicode="&#xb2;" horiz-adv-x="495" 
d="M456 543v-154h-416v95q87 56 128 85.5t61.5 54.5t20.5 51q0 18 -5 25.5t-16 7.5q-10 0 -16 -8.5t-6 -23.5v-52h-134q-21 0 -31 8t-10 33q0 61 55.5 98t152.5 37q98 0 145.5 -35t47.5 -91q0 -96 -184 -180h76q15 0 23 5t14 17l3 6q8 15 12 21h79z" />
    <glyph glyph-name="uni00B3" unicode="&#xb3;" horiz-adv-x="488" 
d="M86 417.5q-52 29.5 -52 84.5q0 18 7 25.5t22 7.5h134v-15q0 -19 9.5 -30.5t27.5 -11.5q14 0 24 10.5t10 27.5q0 43 -45 43h-21v76h18q17 0 27 10.5t10 32.5q0 33 -24 33q-12 0 -18.5 -8t-6.5 -23v-18h-130q-16 0 -22.5 5t-6.5 23q0 50 53.5 80t149.5 30q86 0 137 -30.5
t51 -81.5q0 -30 -18.5 -52.5t-53.5 -32.5v-1q38 -8 60.5 -31.5t22.5 -59.5q0 -57 -54.5 -90t-157.5 -33q-101 0 -153 29.5z" />
    <glyph glyph-name="fraction" unicode="&#x2044;" horiz-adv-x="569" 
d="M-35 56l512 783l127 -91l-512 -787z" />
    <glyph glyph-name="onehalf" unicode="&#xbd;" horiz-adv-x="1034" 
d="M782 748l-512 -787l-127 95l512 783zM121 389v249q0 20 -5 28t-20 12l-17 4q-17 4 -25 9v97h246v-399h-179zM990 154v-154h-416v95q87 56 128 85.5t61.5 54.5t20.5 51q0 18 -5 25.5t-16 7.5q-10 0 -16 -8.5t-6 -23.5v-52h-134q-21 0 -31 8t-10 33q0 61 55.5 98t152.5 37
q98 0 145.5 -35t47.5 -91q0 -96 -184 -180h76q15 0 23 5t14 17l3 6q8 15 12 21h79z" />
    <glyph glyph-name="onequarter" unicode="&#xbc;" horiz-adv-x="978" 
d="M772 748l-512 -787l-127 95l512 783zM121 389v249q0 20 -5 28t-20 12l-17 4q-17 4 -25 9v97h246v-399h-179zM938 164v-92h-44v-72h-179v72h-211v87l162 239h228v-234h44zM715 164v140l-85 -140h85z" />
    <glyph glyph-name="threequarters" unicode="&#xbe;" horiz-adv-x="1112" 
d="M886 748l-512 -787l-127 95l512 783zM396.5 421q-54.5 -33 -157.5 -33q-101 0 -153 29.5t-52 84.5q0 18 7 25.5t22 7.5h134v-15q0 -19 9.5 -30.5t27.5 -11.5q14 0 24 10.5t10 27.5q0 43 -45 43h-21v76h18q17 0 27 10.5t10 32.5q0 33 -24 33q-12 0 -18.5 -8t-6.5 -23v-18
h-130q-16 0 -22.5 5t-6.5 23q0 50 53.5 80t149.5 30q86 0 137 -30.5t51 -81.5q0 -30 -18.5 -52.5t-53.5 -32.5v-1q38 -8 60.5 -31.5t22.5 -59.5q0 -57 -54.5 -90zM1052 164v-92h-44v-72h-179v72h-211v87l162 239h228v-234h44zM829 164v140l-85 -140h85z" />
    <glyph glyph-name="asterisk" unicode="*" horiz-adv-x="600" 
d="M137.5 369q-5.5 5 -5.5 14l2 10l52 158l-135 98q-11 8 -11 19q0 7 6 12.5t15 5.5h169l51 159q5 15 19 15t19 -15l53 -159h167q9 0 15 -5.5t6 -12.5q0 -11 -11 -19l-134 -98l51 -158l2 -10q0 -9 -5.5 -14t-13.5 -5q-9 0 -17 7l-132 97l-132 -97q-8 -7 -17 -7q-8 0 -13.5 5
z" />
    <glyph glyph-name="backslash" unicode="\" horiz-adv-x="599" 
d="M-3 813l174 76l431 -961l-174 -76z" />
    <glyph glyph-name="periodcentered" unicode="&#xb7;" horiz-adv-x="504" 
d="M172.5 237q-33.5 33 -33.5 81q0 46 33.5 78.5t81.5 32.5q47 0 79 -32t32 -79q0 -48 -32 -81t-79 -33q-48 0 -81.5 33z" />
    <glyph glyph-name="bullet" unicode="&#x2022;" horiz-adv-x="678" 
d="M209.5 86q-59.5 35 -94.5 94.5t-35 129.5t35 129.5t94.5 94.5t129.5 35t129.5 -35t94.5 -94.5t35 -129.5t-35 -129.5t-94.5 -94.5t-129.5 -35t-129.5 35z" />
    <glyph glyph-name="colon" unicode=":" horiz-adv-x="291" 
d="M71.5 401.5q-31.5 30.5 -31.5 73.5t30 73t73 30t73 -30t30 -73q0 -44 -26.5 -74t-70.5 -30q-46 0 -77.5 30.5zM71.5 20.5q-31.5 30.5 -31.5 73.5t30 73t73 30t73 -30t30 -73q0 -44 -26.5 -74t-70.5 -30q-46 0 -77.5 30.5z" />
    <glyph glyph-name="comma" unicode="," horiz-adv-x="297" 
d="M26 -100q35 30 52.5 54t17.5 46q0 8 -4.5 14.5t-15.5 17.5q-17 19 -26.5 35.5t-9.5 44.5q0 41 29.5 66.5t76.5 25.5q48 0 80.5 -33t32.5 -91q0 -128 -135 -251z" />
    <glyph glyph-name="ellipsis" unicode="&#x2026;" horiz-adv-x="900" 
d="M71.5 21q-31.5 31 -31.5 77q0 44 31.5 75t77.5 31q45 0 75.5 -31t30.5 -75q0 -46 -30.5 -77t-75.5 -31q-46 0 -77.5 31zM371.5 21q-31.5 31 -31.5 77q0 44 31.5 75t77.5 31q45 0 75.5 -31t30.5 -75q0 -46 -30.5 -77t-75.5 -31q-46 0 -77.5 31zM671.5 21
q-31.5 31 -31.5 77q0 44 31.5 75t77.5 31q45 0 75.5 -31t30.5 -75q0 -46 -30.5 -77t-75.5 -31q-46 0 -77.5 31z" />
    <glyph glyph-name="exclam" unicode="!" horiz-adv-x="360" 
d="M50 788h260l-50 -539h-160zM104 20q-31 30 -31 75q0 46 31 76t78 30t77 -30t30 -76q0 -45 -30.5 -75t-76.5 -30q-47 0 -78 30z" />
    <glyph glyph-name="exclamdown" unicode="&#xa1;" horiz-adv-x="374" 
d="M108 427q-30 30 -30 76q0 45 30.5 75t76.5 30q47 0 78 -30t31 -75q0 -46 -31 -76t-78 -30t-77 30zM107 349h160l50 -539h-260z" />
    <glyph glyph-name="numbersign" unicode="#" horiz-adv-x="673" 
d="M94 204h-68v131h87l18 119h-73v131h93l30 203h159l-30 -203h103l31 203h158l-30 -203h75v-131h-94l-18 -119h73v-131h-94l-30 -204h-159l32 204h-104l-32 -204h-158zM377 335l16 119h-102l-18 -119h104z" />
    <glyph glyph-name="period" unicode="." horiz-adv-x="300" 
d="M71.5 21q-31.5 31 -31.5 77q0 44 31.5 75t77.5 31q45 0 75.5 -31t30.5 -75q0 -46 -30.5 -77t-75.5 -31q-46 0 -77.5 31z" />
    <glyph glyph-name="question" unicode="?" horiz-adv-x="600" 
d="M184 328q0 52 18.5 84.5t54.5 71.5q31 33 46.5 59t15.5 63q0 29 -6 43t-24 14t-25 -14t-7 -46v-70h-195q-21 0 -29.5 11.5t-8.5 36.5v4q0 65 33.5 113.5t96 75t147.5 26.5q81 0 141 -24.5t92 -69.5t32 -105q0 -43 -15 -76t-36.5 -56t-58.5 -55q-47 -40 -71.5 -72
t-27.5 -77l-2 -23h-158q-13 39 -13 86zM201 20q-31 30 -31 75q0 46 31 76t78 30t77 -30t30 -76q0 -45 -30.5 -75t-76.5 -30q-47 0 -78 30z" />
    <glyph glyph-name="questiondown" unicode="&#xbf;" horiz-adv-x="600" 
d="M244 427q-30 30 -30 76q0 45 30.5 75t76.5 30q47 0 78 -30t31 -75q0 -46 -31 -76t-78 -30t-77 30zM158 -177.5q-60 24.5 -92 69.5t-32 105q0 43 15 76t36.5 56t58.5 55q47 40 71.5 72t27.5 77l2 23h158q13 -39 13 -86q0 -52 -18.5 -84.5t-54.5 -71.5q-31 -33 -46.5 -59
t-15.5 -63q0 -29 6 -43t24 -14t25 14t7 46v70h195q21 0 29.5 -11.5t8.5 -36.5v-4q0 -65 -33.5 -113.5t-96 -75t-147.5 -26.5q-81 0 -141 24.5z" />
    <glyph glyph-name="quotedbl" unicode="&#x22;" horiz-adv-x="540" 
d="M40 796h201l-29 -306h-142zM299 796h201l-29 -306h-142z" />
    <glyph glyph-name="quotesingle" unicode="'" horiz-adv-x="281" 
d="M40 796h201l-29 -306h-142z" />
    <glyph glyph-name="semicolon" unicode=";" horiz-adv-x="304" 
d="M73.5 401.5q-31.5 30.5 -31.5 73.5t30 73t73 30t73 -30t30 -73q0 -44 -26.5 -74t-70.5 -30q-46 0 -77.5 30.5zM26 -100q35 30 52.5 54t17.5 46q0 8 -4.5 14.5t-15.5 17.5q-17 19 -26.5 35.5t-9.5 44.5q0 41 29.5 66.5t76.5 25.5q48 0 80.5 -33t32.5 -91q0 -128 -135 -251
z" />
    <glyph glyph-name="slash" unicode="/" horiz-adv-x="599" 
d="M-3 -72l431 961l174 -76l-431 -961z" />
    <glyph glyph-name="underscore" unicode="_" horiz-adv-x="620" 
d="M0 -70h620v-146h-620v146z" />
    <glyph glyph-name="braceleft" unicode="{" horiz-adv-x="397" 
d="M106 -41v249q0 25 -8.5 37t-31.5 12h-33v136h31q24 0 33 13.5t9 42.5v215q0 169 185 169h76v-127h-28q-39 0 -54.5 -17t-15.5 -62v-202q0 -85 -55 -98l-8 -2l8 -2q55 -13 55 -91v-236q0 -45 15.5 -62t54.5 -17h28v-127h-76q-185 0 -185 169z" />
    <glyph glyph-name="braceright" unicode="}" horiz-adv-x="397" 
d="M291 -41v249q0 25 8.5 37t31.5 12h33v136h-31q-24 0 -33 13.5t-9 42.5v215q0 169 -185 169h-76v-127h28q39 0 54.5 -17t15.5 -62v-202q0 -85 55 -98l8 -2l-8 -2q-55 -13 -55 -91v-236q0 -45 -15.5 -62t-54.5 -17h-28v-127h76q185 0 185 169z" />
    <glyph glyph-name="bracketleft" unicode="[" horiz-adv-x="415" 
d="M95 833h265v-127h-102v-791h102v-127h-265v1045z" />
    <glyph glyph-name="bracketright" unicode="]" horiz-adv-x="415" 
d="M320 833h-265v-127h102v-791h-102v-127h265v1045z" />
    <glyph glyph-name="parenleft" unicode="(" horiz-adv-x="376" 
d="M101 33.5q-43 139.5 -43 276.5q0 148 42 287t111 249l117 -30q-47 -132 -68.5 -251t-21.5 -246q0 -134 22 -257.5t67 -254.5l-117 -30q-66 117 -109 256.5z" />
    <glyph glyph-name="parenright" unicode=")" horiz-adv-x="376" 
d="M275 33.5q43 139.5 43 276.5q0 148 -42 287t-111 249l-117 -30q47 -132 68.5 -251t21.5 -246q0 -134 -22 -257.5t-67 -254.5l117 -30q66 117 109 256.5z" />
    <glyph glyph-name="emdash" unicode="&#x2014;" horiz-adv-x="1000" 
d="M40 373h920v-146h-920v146z" />
    <glyph glyph-name="endash" unicode="&#x2013;" horiz-adv-x="700" 
d="M40 373h620v-146h-620v146z" />
    <glyph glyph-name="hyphen" unicode="-" horiz-adv-x="374" 
d="M40 373h294v-146h-294v146z" />
    <glyph glyph-name="uni00AD" unicode="&#xad;" horiz-adv-x="374" 
d="M40 373h294v-146h-294v146z" />
    <glyph glyph-name="guillemotleft" unicode="&#xab;" horiz-adv-x="615" 
d="M54 295q-4 7 -4 14q0 8 4 15l122 222l112 -41l-85 -191l85 -199l-112 -40zM306 295q-4 7 -4 14q0 8 4 15l122 222l112 -41l-85 -191l85 -199l-112 -40z" />
    <glyph glyph-name="guillemotright" unicode="&#xbb;" horiz-adv-x="615" 
d="M75 115l85 199l-85 191l112 41l122 -222q4 -7 4 -15q0 -7 -4 -14l-122 -220zM327 115l85 199l-85 191l112 41l122 -222q4 -7 4 -15q0 -7 -4 -14l-122 -220z" />
    <glyph glyph-name="guilsinglleft" unicode="&#x2039;" horiz-adv-x="363" 
d="M54 295q-4 7 -4 14q0 8 4 15l122 222l112 -41l-85 -191l85 -199l-112 -40z" />
    <glyph glyph-name="guilsinglright" unicode="&#x203a;" horiz-adv-x="363" 
d="M75 115l85 199l-85 191l112 41l122 -222q4 -7 4 -15q0 -7 -4 -14l-122 -220z" />
    <glyph glyph-name="quotedblbase" unicode="&#x201e;" horiz-adv-x="509" 
d="M34 -100q35 33 50.5 54t15.5 37q0 11 -5.5 18.5t-17.5 18.5q-17 15 -26 29t-9 38q0 35 25.5 58t61.5 23q45 0 74.5 -32t29.5 -86q0 -56 -31 -111.5t-89 -105.5zM274 -100q35 33 50.5 54t15.5 37q0 11 -5.5 18.5t-17.5 18.5q-17 15 -26 29t-9 38q0 35 25.5 58t61.5 23
q45 0 74.5 -32t29.5 -86q0 -56 -31 -111.5t-89 -105.5z" />
    <glyph glyph-name="quotedblleft" unicode="&#x201c;" horiz-adv-x="509" 
d="M65.5 507q-29.5 32 -29.5 86q0 56 31 111.5t89 105.5l79 -59q-35 -33 -50.5 -54t-15.5 -37q0 -11 5.5 -18.5t17.5 -18.5q17 -15 26 -29t9 -38q0 -35 -25.5 -58t-61.5 -23q-45 0 -74.5 32zM305.5 507q-29.5 32 -29.5 86q0 56 31 111.5t89 105.5l79 -59q-35 -33 -50.5 -54
t-15.5 -37q0 -11 5.5 -18.5t17.5 -18.5q17 -15 26 -29t9 -38q0 -35 -25.5 -58t-61.5 -23q-45 0 -74.5 32z" />
    <glyph glyph-name="quotedblright" unicode="&#x201d;" horiz-adv-x="509" 
d="M34 524q35 33 50.5 54t15.5 37q0 11 -5.5 18.5t-17.5 18.5q-17 15 -26 29t-9 38q0 35 25.5 58t61.5 23q45 0 74.5 -32t29.5 -86q0 -56 -31 -111.5t-89 -105.5zM274 524q35 33 50.5 54t15.5 37q0 11 -5.5 18.5t-17.5 18.5q-17 15 -26 29t-9 38q0 35 25.5 58t61.5 23
q45 0 74.5 -32t29.5 -86q0 -56 -31 -111.5t-89 -105.5z" />
    <glyph glyph-name="quoteleft" unicode="&#x2018;" horiz-adv-x="269" 
d="M65.5 507q-29.5 32 -29.5 86q0 56 31 111.5t89 105.5l79 -59q-35 -33 -50.5 -54t-15.5 -37q0 -11 5.5 -18.5t17.5 -18.5q17 -15 26 -29t9 -38q0 -35 -25.5 -58t-61.5 -23q-45 0 -74.5 32z" />
    <glyph glyph-name="quoteright" unicode="&#x2019;" horiz-adv-x="269" 
d="M34 524q35 33 50.5 54t15.5 37q0 11 -5.5 18.5t-17.5 18.5q-17 15 -26 29t-9 38q0 35 25.5 58t61.5 23q45 0 74.5 -32t29.5 -86q0 -56 -31 -111.5t-89 -105.5z" />
    <glyph glyph-name="quotesinglbase" unicode="&#x201a;" horiz-adv-x="269" 
d="M34 -100q35 33 50.5 54t15.5 37q0 11 -5.5 18.5t-17.5 18.5q-17 15 -26 29t-9 38q0 35 25.5 58t61.5 23q45 0 74.5 -32t29.5 -86q0 -56 -31 -111.5t-89 -105.5z" />
    <glyph glyph-name="uni2003" unicode="&#x2003;" horiz-adv-x="1000" 
 />
    <glyph glyph-name="uni2002" unicode="&#x2002;" horiz-adv-x="700" 
 />
    <glyph glyph-name="uni200A" unicode="&#x200a;" horiz-adv-x="63" 
 />
    <glyph glyph-name="uni00A0" unicode="&#xa0;" horiz-adv-x="240" 
 />
    <glyph glyph-name="uni2009" unicode="&#x2009;" horiz-adv-x="200" 
 />
    <glyph glyph-name="cent" unicode="&#xa2;" horiz-adv-x="569" 
d="M355 102v-99h-162v113q-83 28 -129 100.5t-46 185.5q0 106 46.5 178t127.5 100v105h162v-97q20 -6 35 -14q4 -3 8 -3q5 0 6 9l2 13h132v-234h-147l-2 24q-4 47 -19 67t-43 20q-40 0 -57 -39.5t-17 -119.5q0 -97 25 -137.5t75 -40.5q31 0 59.5 18.5t59.5 56.5l85 -86
q-76 -105 -201 -120z" />
    <glyph glyph-name="currency" unicode="&#xa4;" horiz-adv-x="764" 
d="M33 102l106 98q-27 53 -27 116q0 60 28 119l-107 99l116 120l108 -103q55 25 118 25q70 0 126 -31l114 109l116 -120l-119 -110q23 -51 23 -108t-21 -105l117 -109l-116 -120l-112 107q-56 -32 -130 -32q-63 0 -117 27l-107 -102zM421 225.5q13 28.5 13 89.5
q0 59 -13.5 90t-45.5 31q-62 0 -62 -114q0 -61 14.5 -93t48.5 -32q32 0 45 28.5z" />
    <glyph glyph-name="dollar" unicode="$" horiz-adv-x="642" 
d="M620 114.5q-28 -51.5 -76 -83t-108 -40.5v-106h-166v122q-22 6 -44 20q-2 2 -7 2q-6 0 -7 -11l-1 -18h-163v281h178l2 -36q3 -54 33.5 -84t79.5 -30q30 0 47 17.5t17 45.5q0 21 -10 37t-38 34.5t-84 47.5l-17 9q-77 42 -122.5 79t-68 81.5t-22.5 105.5q0 79 46.5 132.5
t125.5 71.5v117h166v-118q31 -7 50 -17l5 -2q4 0 5 7l2 19h163v-253h-178l-2 23q-4 45 -21.5 66.5t-55.5 21.5q-30 0 -43.5 -12.5t-13.5 -33.5q0 -18 10 -31t37.5 -29.5t87.5 -46.5l16 -8q79 -39 123 -75.5t63 -81t19 -108.5t-28 -115.5z" />
    <glyph glyph-name="Euro" unicode="&#x20ac;" horiz-adv-x="797" 
d="M779 221q-75 -233 -301 -233q-122 0 -204 57.5t-116 171.5h-118v131h97q-1 14 -1 44v21h-96v131h114q32 126 116.5 191t201.5 65q76 0 126 -28l6 -2q4 0 5 7l4 17h141v-268h-171l-4 32q-7 53 -26 77.5t-55 24.5q-34 0 -60 -28t-40 -88h132v-131h-146v-15q0 -34 1 -50h145
v-131h-123q30 -85 104 -85q84 0 130 145z" />
    <glyph glyph-name="florin" unicode="&#x192;" horiz-adv-x="691" 
d="M-70.5 -184.5q-49.5 39.5 -49.5 110.5v5q0 20 7 27t26 7h146v-28q0 -23 3.5 -32t12.5 -9q8 0 13.5 10t12 38.5t16.5 91.5l46 284h-89v138h112l19 116q19 119 80 172.5t184 53.5q95 0 150 -39.5t55 -115.5v-5q0 -12 -1 -17t-5 -9q-8 -8 -30 -8h-146v36q0 20 -4.5 29
t-14.5 9q-13 0 -18.5 -12t-12.5 -52l-27 -158h112v-138h-134l-48 -293q-21 -131 -85.5 -191t-187.5 -60q-93 0 -142.5 39.5z" />
    <glyph glyph-name="sterling" unicode="&#xa3;" horiz-adv-x="670" 
d="M654 238v-238h-608v115q63 15 101.5 49t38.5 85q0 26 -9 51h-135v140h69q-24 39 -34.5 72.5t-10.5 69.5q0 103 78 160.5t216 57.5q122 0 195.5 -51.5t73.5 -151.5v-8q0 -26 -9.5 -37.5t-31.5 -11.5h-184v44q0 43 -10 60.5t-34 17.5q-22 0 -34 -17t-12 -51q0 -39 10.5 -74
t33.5 -80h165v-140h-115q2 -20 2 -29q0 -70 -55 -130h126q17 0 23 4.5t11 17.5l10 27q12 31 23 48h106z" />
    <glyph glyph-name="yen" unicode="&#xa5;" horiz-adv-x="735" 
d="M737 684q-7 -6 -27 -14l-13 -5q-40 -16 -63 -65l-73 -152h78v-115h-142v-57h142v-115h-140q2 -16 8 -23.5t19 -12.5l14 -5q19 -6 29 -16l-4 -104h-377l-5 105q14 10 28 15l18 6q13 4 18.5 10.5t7.5 24.5h-155v115h156v57h-156v115h83l-86 161q-13 24 -24 35t-24 17l-13 6
q-17 8 -28 17l4 104h356l5 -104q-9 -7 -22 -12l-10 -4q-19 -8 -19 -23t14 -43l65 -130l67 138q12 24 12 40t-12 21l-10 4q-12 5 -21 12l5 101h289z" />
    <glyph glyph-name="dotmath" unicode="&#x22c5;" horiz-adv-x="526" 
d="M183.5 237q-33.5 33 -33.5 81q0 46 33.5 78.5t81.5 32.5q47 0 79 -32t32 -79q0 -48 -32 -81t-79 -33q-48 0 -81.5 33z" />
    <glyph glyph-name="plus" unicode="+" horiz-adv-x="645" 
d="M240 244h-209v153h209v193h165v-193h209v-153h-209v-193h-165v193z" />
    <glyph glyph-name="minus" unicode="&#x2212;" horiz-adv-x="645" 
d="M31 397h583v-153h-583v153z" />
    <glyph glyph-name="multiply" unicode="&#xd7;" horiz-adv-x="625" 
d="M27 155l174 171l-166 169l113 110l165 -168l163 168l113 -110l-167 -166l177 -174l-113 -110l-174 173l-172 -173z" />
    <glyph glyph-name="divide" unicode="&#xf7;" horiz-adv-x="645" 
d="M253 473q-29 29 -29 70q0 40 29 68.5t70 28.5q40 0 69 -28.5t29 -68.5q0 -41 -29 -70t-69 -29q-41 0 -70 29zM31 397h583v-153h-583v153zM253 30q-29 29 -29 70q0 40 29 68.5t70 28.5q40 0 69 -28.5t29 -68.5q0 -41 -29 -70t-69 -29q-41 0 -70 29z" />
    <glyph glyph-name="equal" unicode="=" horiz-adv-x="645" 
d="M31 532h583v-153h-583v153zM31 262h583v-153h-583v153z" />
    <glyph glyph-name="notequal" unicode="&#x2260;" horiz-adv-x="645" 
d="M439 379l-73 -117h248v-153h-343l-87 -139l-114 71l42 68h-81v153h177l73 117h-250v153h345l87 140l114 -71l-43 -69h80v-153h-175z" />
    <glyph glyph-name="greater" unicode="&#x3e;" horiz-adv-x="645" 
d="M595 394v-148l-503 -202l-58 143l342 135l-339 135l58 143z" />
    <glyph glyph-name="less" unicode="&#x3c;" horiz-adv-x="645" 
d="M611 187l-58 -143l-503 202v148l500 206l58 -143l-339 -135z" />
    <glyph glyph-name="greaterequal" unicode="&#x2265;" horiz-adv-x="645" 
d="M34 346l342 135l-339 135l58 143l500 -206v-148l-503 -202zM614 153v-153h-583v153h583z" />
    <glyph glyph-name="lessequal" unicode="&#x2264;" horiz-adv-x="625" 
d="M553 203l-503 202v148l500 206l58 -143l-339 -135l342 -135zM614 153v-153h-583v153h583z" />
    <glyph glyph-name="plusminus" unicode="&#xb1;" horiz-adv-x="645" 
d="M240 408h-209v153h209v179h165v-179h209v-153h-209v-179h-165v179zM31 153h583v-153h-583v153z" />
    <glyph glyph-name="approxequal" unicode="&#x2248;" horiz-adv-x="645" 
d="M372.5 360q-28.5 11 -65.5 32q-27 16 -45 23.5t-40 7.5q-32 0 -62 -20.5t-51 -57.5l-106 96q41 65 96.5 102t117.5 37q39 0 66.5 -10.5t61.5 -30.5q30 -17 50.5 -25t45.5 -8q31 0 58.5 20t44.5 52l99 -99q-28 -56 -83.5 -93t-116.5 -37q-42 0 -70.5 11zM372.5 86
q-28.5 11 -65.5 32q-27 16 -45 23.5t-40 7.5q-32 0 -62 -20.5t-51 -57.5l-106 96q41 65 96.5 102t117.5 37q39 0 66.5 -10.5t61.5 -30.5q30 -17 50.5 -25t45.5 -8q31 0 58.5 20t44.5 52l99 -99q-28 -56 -83.5 -93t-116.5 -37q-42 0 -70.5 11z" />
    <glyph glyph-name="asciitilde" unicode="~" horiz-adv-x="645" 
d="M374.5 312.5q-29.5 12.5 -64.5 35.5q-28 18 -47 27t-41 9q-31 0 -61.5 -21.5t-51.5 -58.5l-106 96q41 66 96.5 103.5t117.5 37.5q38 0 66.5 -12t65.5 -35q31 -19 50 -28t43 -9q30 0 57 22.5t45 56.5l99 -99q-29 -57 -84 -97t-115 -40q-40 0 -69.5 12.5z" />
    <glyph glyph-name="logicalnot" unicode="&#xac;" horiz-adv-x="645" 
d="M449 379h-418v153h583v-392h-165v239z" />
    <glyph glyph-name="infinity" unicode="&#x221e;" horiz-adv-x="843" 
d="M415 230q-86 -80 -188 -80q-57 0 -103 23.5t-72.5 66t-26.5 96.5q0 53 26 95.5t71 67t99 24.5q59 0 108 -21.5t98 -66.5q43 39 90 60t102 21q56 0 101.5 -24t72 -66.5t26.5 -97.5q0 -53 -25.5 -95.5t-71 -67t-102.5 -24.5q-113 0 -205 89zM283.5 295.5
q19.5 12.5 43.5 38.5q-23 27 -43 41t-40 14q-24 0 -39 -14.5t-15 -36.5q0 -23 15 -39t39 -16q20 0 39.5 12.5zM638.5 291q15.5 16 15.5 39q0 21 -15 36.5t-38 15.5q-21 0 -41 -12t-46 -40q23 -27 44 -41t44 -14q21 0 36.5 16z" />
    <glyph glyph-name="integral" unicode="&#x222b;" horiz-adv-x="694" 
d="M17.5 -186q-51.5 38 -51.5 109v5q0 20 7 27t24 7h151v-35q0 -20 4.5 -29t15.5 -9q8 0 12 8.5t5.5 31t1.5 71.5v590q0 102 63.5 156t179.5 54q102 0 159 -39.5t57 -110.5v-5q0 -12 -1 -17t-5 -9q-8 -8 -30 -8h-151v29q0 29 -3.5 38.5t-16.5 9.5q-10 0 -14.5 -6.5t-6 -23
t-1.5 -52.5v-590q0 -125 -67 -182.5t-179 -57.5q-102 0 -153.5 38z" />
    <glyph glyph-name="uni2126" unicode="&#x2126;" horiz-adv-x="798" 
d="M772 138v-138h-349v114q49 66 74 139t25 174q0 123 -28.5 177.5t-88.5 54.5q-64 0 -97 -55.5t-33 -176.5q0 -103 24.5 -175t76.5 -138v-114h-350v138h145q-68 58 -106 134t-38 165q0 106 46.5 188.5t132 128.5t197.5 46q111 0 194 -46t128 -128.5t45 -188.5
q0 -88 -38.5 -164t-106.5 -135h147z" />
    <glyph glyph-name="uni2206" unicode="&#x2206;" horiz-adv-x="801" 
d="M781 0h-761l269 788h221zM236 138h259l-125 411z" />
    <glyph glyph-name="product" unicode="&#x220f;" horiz-adv-x="846" 
d="M42 -6q11 8 26 13l11 4q15 5 19.5 19t4.5 56v559h-83v143h806v-143h-82v-562q0 -39 4 -52.5t19 -18.5l12 -4q14 -4 25 -15l-6 -104h-349l-7 105q11 8 26 13l11 4q15 6 19.5 20t4.5 55v559h-159v-562q0 -39 4 -52.5t19 -18.5l12 -4q17 -7 25 -15l-6 -104h-349z" />
    <glyph glyph-name="summation" unicode="&#x2211;" horiz-adv-x="673" 
d="M45 19l226 322l-224 300v147h588v-235h-108q-7 15 -21 51l-9 24q-4 11 -10 15t-18 4h-155l191 -279l-229 -322h188q16 0 22 4t11 17l13 36q19 50 25 61h108v-275h-598v130z" />
    <glyph glyph-name="radical" unicode="&#x221a;" horiz-adv-x="682" 
d="M692 802l-273 -802h-197l-121 400q-13 44 -40 53l-14 5q-16 6 -28 12l3 103h248l79 -321l196 588z" />
    <glyph glyph-name="partialdiff" unicode="&#x2202;" horiz-adv-x="657" 
d="M103 60q-75 72 -75 197q0 91 38.5 162t100 110t127.5 39q61 0 101 -28q-53 132 -184 201l94 104q156 -73 240 -204t84 -312q0 -94 -37 -172t-109 -123.5t-172 -45.5q-133 0 -208 72zM354.5 145q18.5 29 29 77t10.5 101q0 57 -10.5 84t-34.5 27t-43.5 -27t-31 -72
t-11.5 -98q0 -63 12 -92t38 -29q23 0 41.5 29z" />
    <glyph glyph-name="uni00B5" unicode="&#xb5;" horiz-adv-x="733" 
d="M725 64q-27 -37 -67.5 -56.5t-90.5 -19.5q-88 0 -131 51q-33 -51 -83 -51q-23 0 -43 11v-211h-230v629q0 24 -3.5 32t-15.5 12l-13 4q-16 5 -24 11l3 97h288v-364q0 -43 10 -61t32 -18q24 0 33 21t9 83v191q0 18 -3 25.5t-12 10.5l-8 3q-12 5 -19 11l3 98h274v-418
q0 -24 16 -24q15 0 29 14z" />
    <glyph glyph-name="percent" unicode="%" horiz-adv-x="950" 
d="M143 37l544 789l115 -74l-544 -789zM95 464q-62 54 -62 146q0 48 18.5 86.5t49.5 62.5q52 41 140 41q97 0 152 -53q24 -25 37.5 -60t13.5 -75q0 -46 -15 -82.5t-41 -60.5q-52 -49 -148 -49q-94 0 -145 44zM271 543q8 23 8 68q0 50 -10 73q-9 20 -29 20q-16 0 -27 -15
q-15 -22 -15 -77q0 -61 14 -80q11 -16 29 -16q20 0 30 27zM568 32q-62 54 -62 146q0 48 18.5 86.5t49.5 62.5q52 41 140 41q100 0 152 -53q24 -25 37.5 -60t13.5 -75q0 -46 -15 -82.5t-41 -60.5q-52 -49 -148 -49q-94 0 -145 44zM743 109q9 22 9 70q0 50 -10 73
q-9 20 -29 20q-16 0 -27 -15q-15 -22 -15 -77q0 -61 14 -80q11 -16 29 -16q20 0 29 25z" />
    <glyph glyph-name="perthousand" unicode="&#x2030;" horiz-adv-x="1405" 
d="M143 37l544 789l115 -74l-544 -789zM95 464q-62 54 -62 146q0 48 18.5 86.5t49.5 62.5q52 41 140 41q97 0 152 -53q24 -25 37.5 -60t13.5 -75q0 -46 -15 -82.5t-41 -60.5q-52 -49 -148 -49q-94 0 -145 44zM268 535q11 22 11 76q0 50 -10 73q-9 20 -29 20q-16 0 -27 -15
q-15 -22 -15 -77q0 -61 14 -80q11 -16 29 -16t27 19zM568 32q-62 54 -62 146q0 48 18.5 86.5t49.5 62.5q52 41 140 41q100 0 152 -53q24 -25 37.5 -60t13.5 -75q0 -46 -15 -82.5t-41 -60.5q-52 -49 -148 -49q-94 0 -145 44zM1023 32q-62 54 -62 146q0 48 18.5 86.5
t49.5 62.5q52 41 140 41q100 0 152 -53q24 -25 37.5 -60t13.5 -75q0 -46 -15 -82.5t-41 -60.5q-52 -49 -148 -49q-94 0 -145 44zM741 103q11 23 11 76q0 50 -10 73q-9 20 -29 20q-16 0 -27 -15q-15 -22 -15 -77q0 -61 14 -80q11 -16 29 -16t27 19zM1197 107q10 24 10 72
q0 50 -10 73q-9 20 -29 20q-16 0 -27 -15q-15 -22 -15 -77q0 -61 14 -80q11 -16 29 -16q19 0 28 23z" />
    <glyph glyph-name="arrowup" unicode="&#x2191;" horiz-adv-x="722" 
d="M288 579l-161 -165l-97 100l331 330l331 -330l-97 -100l-162 166v-640h-145v639z" />
    <glyph glyph-name="arrowright" unicode="&#x2192;" horiz-adv-x="969" 
d="M30 449h641l-168 162l100 98l331 -330l-329 -332l-100 96l164 161h-639v145z" />
    <glyph glyph-name="arrowdown" unicode="&#x2193;" horiz-adv-x="722" 
d="M30 270l97 100l161 -165v639h145v-640l162 166l97 -100l-331 -330z" />
    <glyph glyph-name="arrowleft" unicode="&#x2190;" horiz-adv-x="958" 
d="M30 379l331 330l100 -98l-168 -162h641v-145h-639l164 -161l-100 -96z" />
    <glyph glyph-name="lozenge" unicode="&#x25ca;" horiz-adv-x="694" 
d="M10 385l287 403h114l273 -403l-285 -406h-108zM501 376l-157 229l-151 -209l161 -232z" />
    <glyph glyph-name="uniF8FF" unicode="&#xf8ff;" horiz-adv-x="934" 
d="M192 -32.5q-11 9.5 -11 25.5q0 7 5 22l84 257l-219 159q-23 16 -23 37q0 17 11.5 26.5t29.5 9.5h276l84 259q12 33 38 33q16 0 24 -8.5t14 -24.5l84 -259h276q18 0 29.5 -9.5t11.5 -26.5q0 -21 -23 -37l-219 -159l84 -257q5 -15 5 -22q0 -16 -11 -25.5t-26 -9.5
q-14 0 -31 12l-218 159l-218 -159q-16 -12 -31 -12t-26 9.5zM467 178l244 -178l-93 287v1l242 176h-300l-93 287l-93 -287h-300l242 -176v-1l-93 -287z" />
    <glyph glyph-name="at" unicode="@" horiz-adv-x="994" 
d="M766.5 757q87.5 -43 135 -119.5t47.5 -175.5q0 -86 -31.5 -154.5t-87.5 -107t-127 -38.5q-48 0 -86.5 21t-52.5 64q-19 -39 -50 -61t-72 -22q-39 0 -71 21t-51 62.5t-19 98.5q0 69 25 123.5t65 84.5t82 30q37 0 61 -15t38 -45l9 52h127l-20 -257q-3 -39 21 -39t39.5 43.5
t15.5 125.5q0 113 -58 171.5t-156 58.5q-86 0 -157 -43.5t-112.5 -125t-41.5 -192.5q0 -134 59.5 -200.5t157.5 -66.5q43 0 90.5 18t83.5 46l57 -97q-48 -41 -115 -64.5t-145 -23.5q-106 0 -191 42t-135.5 127.5t-50.5 211.5q0 133 65 245t182 178t265 66q117 0 204.5 -43z
M527.5 318q15.5 36 15.5 93q0 34 -8 47.5t-23 13.5q-22 0 -38 -35.5t-16 -85.5q0 -69 31 -69q23 0 38.5 36z" />
    <glyph glyph-name="ampersand" unicode="&#x26;" horiz-adv-x="870" 
d="M114.5 50.5q-76.5 62.5 -76.5 171.5q0 71 38.5 129t106.5 98q-36 44 -54.5 81.5t-18.5 82.5q0 59 34 101t94 64t136 22q68 0 120 -20.5t80.5 -55.5t28.5 -79q0 -51 -38 -95t-112 -85l136 -171q6 11 11 21q9 20 9 30q0 12 -12 16l-10 4q-15 6 -25 14l4 76h252l7 -87
q-7 -6 -29 -13l-15 -5q-15 -5 -27 -18t-29 -46q-26 -50 -54 -95l26 -31q11 -14 24 -22.5t33 -16.5l18 -7q27 -10 36 -17l-4 -97h-261q-15 15 -35 40q-80 -52 -184 -52q-133 0 -209.5 62.5zM406 601.5q11 19.5 11 43.5q0 22 -11.5 34t-30.5 12q-20 0 -33.5 -12t-13.5 -34
q0 -20 10 -39.5t31 -43.5q26 20 37 39.5zM432 134l-144 181q-19 -38 -19 -81q0 -54 28.5 -85t73.5 -31q34 0 61 16z" />
    <glyph glyph-name="paragraph" unicode="&#xb6;" horiz-adv-x="794" 
d="M227 -66q7 3 37 11l25 6q14 4 17.5 16t3.5 47v262h-15q-71 0 -126.5 32t-87 90.5t-31.5 134.5q0 71 31.5 129t92 92t143.5 34h395v-960h-148v837h-97v-837h-239z" />
    <glyph glyph-name="section" unicode="&#xa7;" horiz-adv-x="662" 
d="M45 83h149l5 -28q9 -52 45 -82t88 -30q32 0 49.5 15t17.5 35t-11.5 33t-40 26t-86.5 31l-13 4q-102 31 -152.5 84.5t-50.5 134.5q0 48 24 87t63 65q-35 29 -52 66t-17 86q0 56 28.5 99t81 67t121.5 24t116 -21q6 -2 7 -2q7 0 8 9l2 9h133v-206h-149l-1 17q-2 31 -23.5 52
t-56.5 21q-30 0 -46 -15.5t-16 -37.5q0 -27 25 -44.5t88 -36.5l10 -3q81 -24 129 -52t71 -67t23 -95q0 -44 -21.5 -84t-57.5 -71q39 -29 54 -65t15 -85q0 -61 -31 -108t-83.5 -72.5t-116.5 -25.5q-112 0 -175 49q-3 3 -7 3q-5 0 -6 -7l-3 -22h-137v243zM415 276
q0 35 -23.5 56.5t-91.5 44.5l-49 17q-9 -18 -9 -39q0 -30 25 -54t88 -45q29 -10 53 -19q7 23 7 39z" />
    <glyph glyph-name="copyright" unicode="&#xa9;" horiz-adv-x="916" 
d="M243 39q-97 53 -152.5 146t-55.5 209t55.5 209t152.5 146t215 53q119 0 215.5 -53t152 -146t55.5 -209t-55.5 -209t-152 -146t-215.5 -53q-118 0 -215 53zM616 115.5q70 39.5 110 112t40 166.5q0 95 -40 167t-110 111.5t-158 39.5q-87 0 -157.5 -39.5t-110.5 -111.5
t-40 -167q0 -94 40 -166.5t110.5 -112t157.5 -39.5q88 0 158 39.5zM341 178q-55 29 -86 84.5t-31 132.5q0 72 29.5 128t83.5 87t125 31q61 0 109.5 -22t76 -59.5t27.5 -80.5v-7q0 -21 -6 -28t-21 -7h-148v29q0 74 -40 74q-57 0 -57 -138t92 -138q66 0 122 73l69 -74
q-34 -51 -91 -82.5t-128 -31.5t-126 29z" />
    <glyph glyph-name="registered" unicode="&#xae;" horiz-adv-x="705" 
d="M195.5 262q-69.5 38 -109 105.5t-39.5 151.5q0 83 39.5 150t109 105.5t156.5 38.5q88 0 157.5 -38.5t109 -105.5t39.5 -150q0 -84 -39.5 -151.5t-109 -105.5t-157.5 -38q-87 0 -156.5 38zM503.5 363q54.5 58 54.5 156q0 97 -55 155t-151 58t-150.5 -58t-54.5 -155
q0 -99 54 -156.5t151 -57.5t151.5 58zM232 675h132q61 0 94.5 -22t33.5 -68q0 -66 -52 -85q-6 -2 -3 -9l15 -41q6 -12 17 -18l8 -4q9 -4 15 -9l-4 -46h-111l-29 105q-1 4 -6 4h-3q-3 0 -3 -5v-104h-104v302zM348 546q38 0 38 34q0 30 -39 30h-6q-8 0 -8 -9v-47q0 -8 8 -8h7z
" />
    <glyph glyph-name="trademark" unicode="&#x2122;" horiz-adv-x="1127" 
d="M135 498q1 0 2 1.5t12 4.5l10 3q8 2 11 10.5t3 24.5v153q0 7 -8 7h-34q-14 0 -19 -18l-4 -14l-9 -24h-74v142h435v-143h-74l-10 25l-4 13q-3 10 -7 14.5t-11 4.5h-32q-8 0 -8 -7v-154q0 -31 11 -34l11 -3q3 -1 7 -2.5t9 -4.5l-5 -68h-207zM501 497q1 0 3.5 1.5t13.5 5.5
l10 3q11 3 14 9t3 24v131q0 36 -18 40l-9 2q-2 1 -6.5 2t-9.5 5l3 68h238l60 -115l60 115h231l3 -68q-6 -3 -16 -6l-12 -3q-10 -2 -13.5 -9t-3.5 -25v-136q0 -18 3.5 -24t13.5 -9l9 -3q14 -5 19 -8l-3 -68h-224l-4 69q6 4 18 7l10 3q10 3 13.5 9t3.5 24v125l-85 -159h-84
l-85 163v-130q0 -17 3.5 -23t13.5 -10l8 -3l19 -8l-2 -67h-195z" />
    <glyph glyph-name="degree" unicode="&#xb0;" horiz-adv-x="345" 
d="M94.5 614q-36.5 20 -58 55t-21.5 76q0 42 21.5 77t58 55.5t78.5 20.5t78 -20.5t57.5 -55t21.5 -75.5q0 -42 -21.5 -77t-57.5 -55.5t-78 -20.5t-78.5 20zM202 715.5q12 12.5 12 29.5q0 18 -12 31t-29 13q-18 0 -30 -12.5t-12 -29.5q0 -18 12 -31t30 -13q17 0 29 12.5z" />
    <glyph glyph-name="bar" unicode="|" horiz-adv-x="511" 
d="M158 869h195v-1081h-195v1081z" />
    <glyph glyph-name="brokenbar" unicode="&#xa6;" horiz-adv-x="511" 
d="M158 869h195v-401h-195v401zM158 189h195v-401h-195v401z" />
    <glyph glyph-name="uni2113" unicode="&#x2113;" horiz-adv-x="401" 
d="M17 103q10 6 29 12l14 5q16 5 22 13.5t6 33.5v459q0 19 -5.5 30t-20.5 16l-15 5q-20 6 -29 13l3 98h297v-621q0 -22 6.5 -31.5t20.5 -14.5l15 -6l29 -12l-3 -103h-366z" />
    <glyph glyph-name="dagger" unicode="&#x2020;" horiz-adv-x="628" 
d="M215 326l27 87l-192 -16v160l192 -13l-26 86l19 93h155l20 -93l-26 -86l194 13v-160l-194 16l26 -88l-31 -238h-133z" />
    <glyph glyph-name="daggerdbl" unicode="&#x2021;" horiz-adv-x="628" 
d="M215 91l27 75l-192 -16v160l202 -16l-33 66l23 63l-192 -17v160l192 -16l-27 80l20 93h155l19 -93l-25 -80l194 16v-160l-194 17l23 -64l-32 -65l203 16v-160l-194 16l25 -75l-19 -93h-155z" />
    <glyph glyph-name="uni2116" unicode="&#x2116;" horiz-adv-x="1298" 
d="M55 104q8 8 27 14l15 5q11 4 15 16.5t4 48.5v396q0 31 -1.5 44t-8.5 19.5t-24 12.5l-20 7q-15 5 -24 14l5 107h299l248 -417v229q0 35 -4 47t-17 17l-14 5q-20 8 -30 16l5 103h284l6 -104q-7 -8 -27 -14l-15 -5q-11 -4 -15 -16.5t-4 -48.5v-600h-199l-276 459v-271
q0 -35 4 -47t17 -17l14 -5q20 -8 30 -16l-5 -103h-283zM927.5 474q-52.5 51 -52.5 138q0 86 54 137t145 51q93 0 144.5 -50.5t51.5 -137.5t-53.5 -138t-144.5 -51q-92 0 -144.5 51zM1102 531q8 22 8 81q0 55 -8.5 78.5t-26.5 23.5q-20 0 -30 -23t-10 -79q0 -58 9.5 -80.5
t30.5 -22.5q19 0 27 22zM889 384h384v-111h-384v111z" />
    <glyph glyph-name="estimated" unicode="&#x212e;" horiz-adv-x="960" 
d="M287.5 31.5q-88.5 47.5 -140 128.5t-51.5 176t51.5 176t140 128.5t192.5 47.5t192.5 -47.5t140 -128.5t51.5 -176q0 -11 -1 -16h-623v-196q44 -51 106.5 -79.5t133.5 -28.5q72 0 135 29.5t108 82.5h66q-54 -67 -135 -105.5t-174 -38.5q-104 0 -192.5 47.5zM720 352v196
q-45 51 -107.5 79.5t-132.5 28.5q-71 0 -133.5 -28.5t-106.5 -79.5v-196h480z" />
    <glyph glyph-name="asciicircum" unicode="^" horiz-adv-x="645" 
d="M464 319l-139 280l-144 -280l-142 65l208 404h157l202 -404z" />
    <glyph glyph-name="uni0308" unicode="&#x308;" 
d="M-384 663.5q-28 28.5 -28 67.5t28 67.5t67 28.5t67 -28.5t28 -67.5t-28 -67.5t-67 -28.5t-67 28.5zM-150 663.5q-28 28.5 -28 67.5t28 67.5t67 28.5t67 -28.5t28 -67.5t-28 -67.5t-67 -28.5t-67 28.5z" />
    <glyph glyph-name="uni0307" unicode="&#x307;" 
d="M-276.5 663q-31.5 32 -31.5 77q0 46 31.5 77t76.5 31q43 0 75.5 -31.5t32.5 -76.5t-32.5 -77t-75.5 -32q-45 0 -76.5 32z" />
    <glyph glyph-name="gravecomb" unicode="&#x300;" 
d="M-362 758l111 139l216 -178l-86 -102z" />
    <glyph glyph-name="acutecomb" unicode="&#x301;" 
d="M-342 719l216 178l111 -139l-241 -141z" />
    <glyph glyph-name="uni030B" unicode="&#x30b;" 
d="M-462 685l162 201l131 -103l-194 -183zM-185 685l162 201l131 -103l-194 -183z" />
    <glyph glyph-name="uni0302" unicode="&#x302;" 
d="M-411 700l129 139h162l132 -139l-86 -76l-126 95l-124 -95z" />
    <glyph glyph-name="uni030C" unicode="&#x30c;" 
d="M-411 778l84 76l127 -95l128 95l84 -76l-133 -139h-159z" />
    <glyph glyph-name="uni0306" unicode="&#x306;" 
d="M-340 675.5q-56 46.5 -59 136.5h143q5 -57 56 -57t56 57h143q-2 -61 -30 -102t-73 -61t-97 -20q-83 0 -139 46.5z" />
    <glyph glyph-name="uni030A" unicode="&#x30a;" 
d="M-296 642.5q-40 29.5 -40 81.5q0 50 39.5 80.5t97.5 30.5q54 0 95 -29.5t41 -80.5t-40 -81.5t-98 -30.5q-55 0 -95 29.5zM-175.5 699q9.5 10 9.5 25q0 16 -10 25.5t-24 9.5q-15 0 -24.5 -9.5t-9.5 -25.5q0 -15 10.5 -25t24.5 -10t23.5 10z" />
    <glyph glyph-name="tildecomb" unicode="&#x303;" 
d="M-432 684q16 65 58.5 104.5t95.5 39.5q26 0 46.5 -8.5t51.5 -26.5q19 -12 32.5 -18t26.5 -6q38 0 55 53l103 -61q-17 -58 -60 -96t-93 -38q-29 0 -50.5 9t-46.5 25q-18 11 -30 16.5t-25 5.5q-23 0 -39 -18t-22 -42z" />
    <glyph glyph-name="uni0304" unicode="&#x304;" 
d="M-405 784h410v-136h-410v136z" />
    <glyph glyph-name="uni0315" unicode="&#x315;" 
d="M-289 577q26 15 42 31.5t16 30.5q0 8 -4 14.5t-12 15.5q-13 14 -19.5 26.5t-6.5 33.5q0 32 24 52.5t64 20.5q49 0 75 -28t26 -81q0 -44 -33.5 -95t-84.5 -83z" />
    <glyph glyph-name="uni0326" unicode="&#x326;" 
d="M-306 -296q61 41 61 65q0 8 -4 14t-13 15q-14 14 -21 26.5t-7 34.5q0 34 26.5 56t67.5 22q49 0 80 -33t31 -82t-36.5 -99.5t-93.5 -83.5z" />
    <glyph glyph-name="uni0327" unicode="&#x327;" 
d="M-279 -216.5q-39 10.5 -62 26.5l30 83q15 -11 38 -19.5t42 -8.5q18 0 27 6.5t9 16.5q0 16 -20 24.5t-64 12.5l35 77h94l-13 -27q54 -7 84.5 -33t30.5 -67q0 -46 -40 -74t-108 -28q-44 0 -83 10.5z" />
    <glyph glyph-name="uni0328" unicode="&#x328;" 
d="M-312.5 -191.5q-39.5 25.5 -39.5 73.5q0 38 26.5 72.5t64.5 50.5h137q-28 -16 -45.5 -41.5t-17.5 -47.5q0 -25 24 -25q27 0 60 33l54 -82q-25 -27 -65.5 -43t-88.5 -16q-70 0 -109.5 25.5z" />
    <glyph glyph-name="uni0308.case" 
d="M-396.5 868q-29.5 27 -29.5 68t29.5 68t71.5 27t71 -27t29 -68t-29 -68t-71 -27t-71.5 27zM-147.5 868q-29.5 27 -29.5 68t29.5 68t71.5 27t71 -27t29 -68t-29 -68t-71 -27t-71.5 27z" />
    <glyph glyph-name="uni0307.case" 
d="M-280.5 878q-31.5 31 -31.5 78q0 48 31 78t82 30q48 0 79.5 -30t31.5 -78q0 -47 -31.5 -78t-79.5 -31q-50 0 -81.5 31z" />
    <glyph glyph-name="gravecomb.case" 
d="M-380 936l86 164l262 -157l-59 -114z" />
    <glyph glyph-name="acutecomb.case" 
d="M-375 943l262 157l86 -164l-289 -107z" />
    <glyph glyph-name="uni030B.case" 
d="M-457 927l189 186l114 -124l-218 -161zM-152 927l189 186l114 -124l-218 -161z" />
    <glyph glyph-name="uni0302.case" 
d="M-421 915l142 144h156l143 -144l-80 -81l-140 100l-138 -100z" />
    <glyph glyph-name="uni030C.case" 
d="M-421 991l80 81l141 -94l138 94l82 -81l-143 -138h-156z" />
    <glyph glyph-name="uni0306.case" 
d="M-348.5 896.5q-54.5 48.5 -59.5 130.5h157q7 -50 51 -50q22 0 34.5 13.5t15.5 36.5h157q-5 -82 -59 -130.5t-148 -48.5t-148.5 48.5z" />
    <glyph glyph-name="uni030A.case" 
d="M-306 859.5q-37 29.5 -37 77.5q0 49 37.5 79t106.5 30q68 0 105.5 -30t37.5 -78q0 -49 -37.5 -78.5t-107.5 -29.5q-68 0 -105 29.5zM-174.5 915.5q9.5 8.5 9.5 22.5q0 15 -9.5 23t-25.5 8q-15 0 -24.5 -8t-9.5 -23q0 -14 9.5 -22.5t25.5 -8.5q15 0 24.5 8.5z" />
    <glyph glyph-name="tildecomb.case" 
d="M-432 910q18 53 63.5 89.5t98.5 36.5q24 0 43.5 -7t44.5 -20q4 -2 16.5 -8t23 -9t19.5 -3q36 0 53 49l112 -64q-14 -57 -55 -96.5t-97 -39.5q-26 0 -46.5 7t-48.5 21q-19 10 -31 15t-25 5q-37 0 -59 -45z" />
    <glyph glyph-name="uni0304.case" 
d="M-405 1003h410v-137h-410v137z" />
    <glyph glyph-name="acutecomb.loclPLK" 
d="M-295 698l151 220l144 -111l-188 -185z" />
    <glyph glyph-name="acutecomb.case.loclPLK" 
d="M-259 895l130 229l157 -105l-172 -196z" />
    <glyph glyph-name="uni0308.narrow" 
d="M-372 662q-26 27 -26 69t26 69t65 27q40 0 65.5 -26.5t25.5 -69.5t-25.5 -69.5t-65.5 -26.5q-39 0 -65 27zM-157 662q-26 27 -26 69t26 69t65 27t65 -27t26 -69t-26 -69t-65 -27t-65 27z" />
    <glyph glyph-name="gravecomb.narrow" 
d="M-353 782l125 128l179 -209l-93 -86z" />
    <glyph glyph-name="acutecomb.narrow" 
d="M-339 701l179 209l125 -128l-211 -167z" />
    <glyph glyph-name="uni0302.narrow" 
d="M-390 686l109 155h162l109 -155l-99 -65l-90 107l-93 -107z" />
    <glyph glyph-name="uni030C.narrow" 
d="M-390 783l98 65l93 -107l90 107l99 -65l-109 -155h-162z" />
    <glyph glyph-name="uni0306.narrow" 
d="M-330 668.5q-52 46.5 -52 136.5h136q0 -24 12 -40t34 -16t34 16t12 40h135q0 -90 -52.5 -136.5t-129.5 -46.5t-129 46.5z" />
    <glyph glyph-name="tildecomb.narrow" 
d="M-417 678q15 73 54.5 113.5t89.5 40.5q23 0 44.5 -9t47.5 -25q3 -2 15.5 -9t22 -10.5t16.5 -3.5q32 0 45 49l103 -43q-15 -69 -50.5 -109.5t-82.5 -40.5q-27 0 -47 8.5t-50 25.5q-17 11 -28 16.5t-23 5.5q-21 0 -35 -17.5t-19 -42.5z" />
    <glyph glyph-name="uni0304.narrow" 
d="M-365 784h330v-136h-330v136z" />
    <glyph glyph-name="uni0328.narrow" 
d="M-291.5 -190.5q-34.5 26.5 -34.5 74.5q0 36 24 69.5t59 51.5h131q-26 -17 -40.5 -41.5t-14.5 -46.5q0 -13 6 -19.5t17 -6.5q24 0 47 27l54 -79q-29 -26 -68 -41t-84 -15q-62 0 -96.5 26.5z" />
    <glyph glyph-name="acute" unicode="&#xb4;" horiz-adv-x="400" 
d="M58 719l216 178l111 -139l-241 -141z" />
    <glyph glyph-name="breve" unicode="&#x2d8;" horiz-adv-x="400" 
d="M60 675.5q-56 46.5 -59 136.5h143q5 -57 56 -57t56 57h143q-2 -61 -30 -102t-73 -61t-97 -20q-83 0 -139 46.5z" />
    <glyph glyph-name="caron" unicode="&#x2c7;" horiz-adv-x="400" 
d="M-11 778l84 76l127 -95l128 95l84 -76l-133 -139h-159z" />
    <glyph glyph-name="cedilla" unicode="&#xb8;" horiz-adv-x="400" 
d="M121 -216.5q-39 10.5 -62 26.5l30 83q15 -11 38 -19.5t42 -8.5q18 0 27 6.5t9 16.5q0 16 -20 24.5t-64 12.5l35 77h94l-13 -27q54 -7 84.5 -33t30.5 -67q0 -46 -40 -74t-108 -28q-44 0 -83 10.5z" />
    <glyph glyph-name="circumflex" unicode="&#x2c6;" horiz-adv-x="400" 
d="M-11 700l129 139h162l132 -139l-86 -76l-126 95l-124 -95z" />
    <glyph glyph-name="dieresis" unicode="&#xa8;" horiz-adv-x="400" 
d="M16 663.5q-28 28.5 -28 67.5t28 67.5t67 28.5t67 -28.5t28 -67.5t-28 -67.5t-67 -28.5t-67 28.5zM250 663.5q-28 28.5 -28 67.5t28 67.5t67 28.5t67 -28.5t28 -67.5t-28 -67.5t-67 -28.5t-67 28.5z" />
    <glyph glyph-name="dotaccent" unicode="&#x2d9;" horiz-adv-x="400" 
d="M123.5 663q-31.5 32 -31.5 77q0 46 31.5 77t76.5 31q43 0 75.5 -31.5t32.5 -76.5t-32.5 -77t-75.5 -32q-45 0 -76.5 32z" />
    <glyph glyph-name="grave" unicode="`" horiz-adv-x="400" 
d="M38 758l111 139l216 -178l-86 -102z" />
    <glyph glyph-name="hungarumlaut" unicode="&#x2dd;" horiz-adv-x="400" 
d="M-62 685l162 201l131 -103l-194 -183zM215 685l162 201l131 -103l-194 -183z" />
    <glyph glyph-name="macron" unicode="&#xaf;" horiz-adv-x="400" 
d="M-5 784h410v-136h-410v136z" />
    <glyph glyph-name="ogonek" unicode="&#x2db;" horiz-adv-x="400" 
d="M87.5 -191.5q-39.5 25.5 -39.5 73.5q0 38 26.5 72.5t64.5 50.5h137q-28 -16 -45.5 -41.5t-17.5 -47.5q0 -25 24 -25q27 0 60 33l54 -82q-25 -27 -65.5 -43t-88.5 -16q-70 0 -109.5 25.5z" />
    <glyph glyph-name="ring" unicode="&#x2da;" horiz-adv-x="400" 
d="M104 642.5q-40 29.5 -40 81.5q0 50 39.5 80.5t97.5 30.5q54 0 95 -29.5t41 -80.5t-40 -81.5t-98 -30.5q-55 0 -95 29.5zM224.5 699q9.5 10 9.5 25q0 16 -10 25.5t-24 9.5q-15 0 -24.5 -9.5t-9.5 -25.5q0 -15 10.5 -25t24.5 -10t23.5 10z" />
    <glyph glyph-name="tilde" unicode="&#x2dc;" horiz-adv-x="400" 
d="M-32 684q16 65 58.5 104.5t95.5 39.5q26 0 46.5 -8.5t51.5 -26.5q19 -12 32.5 -18t26.5 -6q38 0 55 53l103 -61q-17 -58 -60 -96t-93 -38q-29 0 -50.5 9t-46.5 25q-18 11 -30 16.5t-25 5.5q-23 0 -39 -18t-22 -42z" />
    <glyph glyph-name="acute.case" horiz-adv-x="400" 
d="M25 943l262 157l86 -164l-289 -107z" />
    <glyph glyph-name="breve.case" horiz-adv-x="400" 
d="M51.5 896.5q-54.5 48.5 -59.5 130.5h157q7 -50 51 -50q22 0 34.5 13.5t15.5 36.5h157q-5 -82 -59 -130.5t-148 -48.5t-148.5 48.5z" />
    <glyph glyph-name="caron.case" horiz-adv-x="400" 
d="M-21 991l80 81l141 -94l138 94l82 -81l-143 -138h-156z" />
    <glyph glyph-name="circumflex.case" horiz-adv-x="400" 
d="M-21 915l142 144h156l143 -144l-80 -81l-140 100l-138 -100z" />
    <glyph glyph-name="dieresis.case" horiz-adv-x="400" 
d="M3.5 868q-29.5 27 -29.5 68t29.5 68t71.5 27t71 -27t29 -68t-29 -68t-71 -27t-71.5 27zM252.5 868q-29.5 27 -29.5 68t29.5 68t71.5 27t71 -27t29 -68t-29 -68t-71 -27t-71.5 27z" />
    <glyph glyph-name="dotaccent.case" horiz-adv-x="400" 
d="M119.5 878q-31.5 31 -31.5 78q0 48 31 78t82 30q48 0 79.5 -30t31.5 -78q0 -47 -31.5 -78t-79.5 -31q-50 0 -81.5 31z" />
    <glyph glyph-name="grave.case" horiz-adv-x="400" 
d="M20 936l86 164l262 -157l-59 -114z" />
    <glyph glyph-name="hungarumlaut.case" horiz-adv-x="400" 
d="M-57 927l189 186l114 -124l-218 -161zM248 927l189 186l114 -124l-218 -161z" />
    <glyph glyph-name="macron.case" horiz-adv-x="400" 
d="M-5 1003h410v-137h-410v137z" />
    <glyph glyph-name="ring.case" horiz-adv-x="400" 
d="M94 859.5q-37 29.5 -37 77.5q0 49 37.5 79t106.5 30q68 0 105.5 -30t37.5 -78q0 -49 -37.5 -78.5t-107.5 -29.5q-68 0 -105 29.5zM225.5 915.5q9.5 8.5 9.5 22.5q0 15 -9.5 23t-25.5 8q-15 0 -24.5 -8t-9.5 -23q0 -14 9.5 -22.5t25.5 -8.5q15 0 24.5 8.5z" />
    <glyph glyph-name="tilde.case" horiz-adv-x="400" 
d="M-32 910q18 53 63.5 89.5t98.5 36.5q24 0 43.5 -7t44.5 -20q4 -2 16.5 -8t23 -9t19.5 -3q36 0 53 49l112 -64q-14 -57 -55 -96.5t-97 -39.5q-26 0 -46.5 7t-48.5 21q-19 10 -31 15t-25 5q-37 0 -59 -45z" />
	k="10" />
  </font>
</defs>
</svg>
